<?xml version="1.0" encoding="UTF-8"?>
<svg width="62px" height="50px" viewBox="0 0 62 50" version="1.1" xmlns="http://www.w3.org/2000/svg" xmlns:xlink="http://www.w3.org/1999/xlink">
    <title>Library</title>
    <g id="Page-1" stroke="none" stroke-width="1" fill="none" fill-rule="evenodd">
        <g id="Client-View-.1" transform="translate(-204.000000, -1264.000000)" fill="#FFFFFF" fill-rule="nonzero">
            <g id="Account-Copy" transform="translate(70.000000, 1234.000000)">
                <g id="Library" transform="translate(134.000000, 30.000000)">
                    <g id="Group" transform="translate(0.000000, 0.430959)">
                        <g transform="translate(0.088243, 0.000000)" id="Shape">
                            <path d="M2.02702703,0.24472973 C0.827364865,0.24472973 0,1.29289865 0,2.35621622 L0,46.7608108 C0,47.8241216 0.827432432,48.8933784 2.02702703,48.8933784 L10.1351351,48.8933784 C11.3347297,48.8933784 12.1621622,47.8241216 12.1621622,46.7608108 L12.1621622,2.35621622 C12.1621622,1.29289865 11.3347973,0.24472973 10.1351351,0.24472973 L2.02702703,0.24472973 Z M31.7567568,0.24472973 C30.5570946,0.24472973 29.7297297,1.29289865 29.7297297,2.35621622 L29.7297297,46.7608108 C29.7297297,47.8241216 30.5571622,48.8933784 31.7567568,48.8933784 L39.8648649,48.8933784 C41.0644595,48.8933784 41.8918919,47.8241216 41.8918919,46.7608108 L41.8918919,2.35621622 C41.8918919,1.29289865 41.064527,0.24472973 39.8648649,0.24472973 L31.7567568,0.24472973 Z M2.7027027,2.94743243 L9.45945946,2.94743243 L9.45945946,9.70418919 L2.7027027,9.70418919 L2.7027027,2.94743243 Z M32.4324324,2.94743243 L39.1891892,2.94743243 L39.1891892,9.70418919 L32.4324324,9.70418919 L32.4324324,2.94743243 Z M16.8918919,5.65013514 C15.7922973,5.65013514 14.8648649,6.57756081 14.8648649,7.67716216 L14.8648649,46.8663514 C14.8648649,47.9659459 15.7922973,48.8933784 16.8918919,48.8933784 L25,48.8933784 C26.0995946,48.8933784 27.027027,47.9659459 27.027027,46.8663514 L27.027027,7.67716216 C27.027027,6.57756081 26.0995946,5.65013514 25,5.65013514 L16.8918919,5.65013514 Z M17.5675676,8.35283784 L24.3243243,8.35283784 L24.3243243,13.7582432 L17.5675676,13.7582432 L17.5675676,8.35283784 Z M2.7027027,12.4068919 L9.45945946,12.4068919 L9.45945946,36.7312162 L2.7027027,36.7312162 L2.7027027,12.4068919 Z M32.4324324,12.4068919 L39.1891892,12.4068919 L39.1891892,36.7312162 L32.4324324,36.7312162 L32.4324324,12.4068919 Z M17.5675676,16.4609459 L24.3243243,16.4609459 L24.3243243,38.0825676 L17.5675676,38.0825676 L17.5675676,16.4609459 Z M2.7027027,39.4339189 L9.45945946,39.4339189 L9.45945946,46.1906757 L2.7027027,46.1906757 L2.7027027,39.4339189 Z M32.4324324,39.4339189 L39.1891892,39.4339189 L39.1891892,46.1906757 L32.4324324,46.1906757 L32.4324324,39.4339189 Z M17.5675676,40.7852703 L24.3243243,40.7852703 L24.3243243,46.1906757 L17.5675676,46.1906757 L17.5675676,40.7852703 Z"></path>
                            <path d="M43.5375,10.3911351 C42.5072973,10.5918108 41.7117568,11.6201689 41.9273649,12.7268716 L48.6610811,47.2967568 C48.8766216,48.4034527 49.9999324,49.0580608 51.0302027,48.8573851 L58.9887162,47.3071757 C60.0189189,47.1065 60.8144595,46.0781351 60.5988514,44.9714392 L53.8651351,10.4015541 C53.6495946,9.29485135 52.5262838,8.64025 51.4960135,8.84092568 L43.5375,10.3911351 Z M44.7174324,12.9147973 L51.349527,11.6229527 L52.3830405,16.9286419 L45.7509459,18.2204865 L44.7174324,12.9147973 Z M46.2676351,20.8733311 L52.8997973,19.5814865 L56.2585811,36.8249797 L49.6264189,38.1168243 L46.2676351,20.8733311 L46.2676351,20.8733311 Z M50.1431757,40.7696689 L56.7752703,39.4778243 L57.8087838,44.7835135 L51.1766892,46.0753581 L50.1431757,40.7696689 Z"></path>
                        </g>
                    </g>
                </g>
            </g>
        </g>
    </g>
</svg>