<?xml version="1.0" encoding="UTF-8"?>
<svg width="160px" height="160px" viewBox="0 0 160 160" version="1.1" xmlns="http://www.w3.org/2000/svg" xmlns:xlink="http://www.w3.org/1999/xlink">
    <title>Answers</title>
    <g id="Page-1" stroke="none" stroke-width="1" fill="none" fill-rule="evenodd">
        <g id="Consultants" transform="translate(-496.000000, -1140.000000)" fill-rule="nonzero">
            <g id="why-to-join-nformacy" transform="translate(100.000000, 590.000000)">
                <g id="Reason3" transform="translate(0.000000, 480.000000)">
                    <g id="Answers" transform="translate(396.000000, 70.000000)">
                        <path d="M108.125,99.6875 C106.399375,99.6875 105,101.086562 105,102.8125 L105,124.375 C105,132.990625 97.990625,140 89.375,140 L55.635,140 C53.9096875,140 52.51125,141.397812 52.51,143.122813 L52.505625,149.335938 L45.046875,141.8775 C44.5640625,140.769062 43.4590625,140 42.1809375,140 L21.875,140 C13.259375,140 6.25,132.990625 6.25,124.375 L6.25,76.25 C6.25,67.634375 13.259375,60.625 21.875,60.625 L53.4375,60.625 C55.163125,60.625 56.5625,59.2259375 56.5625,57.5 C56.5625,55.7740625 55.163125,54.375 53.4375,54.375 L21.875,54.375 C9.813125,54.375 0,64.188125 0,76.25 L0,124.375 C0,136.436875 9.813125,146.25 21.875,146.25 L40.580625,146.25 L53.4153125,159.084688 C54.013125,159.6825 54.8121875,160 55.625625,160 C56.0278125,160 56.43375,159.922188 56.8196875,159.7625 C57.9875,159.279375 58.7490625,158.140625 58.75,156.877187 L58.7575,146.25 L89.375,146.25 C101.436875,146.25 111.25,136.436875 111.25,124.375 L111.25,102.8125 C111.25,101.086562 109.850625,99.6875 108.125,99.6875 Z" id="Path" fill="#125773"></path>
                        <path d="M114.579687,0 L106.670625,0 C81.625625,0 61.25,20.375625 61.25,45.420625 C61.25,70.465625 81.625625,90.8409375 106.670313,90.8409375 L114.579375,90.8409375 C118.488438,90.8409375 122.3575,90.344375 126.1075,89.363125 L137.790938,101.04 C138.38875,101.637187 139.1875,101.954688 140.000625,101.954688 C140.403438,101.954688 140.809688,101.876875 141.19625,101.716563 C142.36375,101.232813 143.125,100.093437 143.125,98.8296875 L143.125,80.7496875 C148.071563,76.74375 152.180625,71.6834375 155.064375,66.0303125 C158.339688,59.6096875 160,52.675625 160,45.420625 C160,20.375625 139.624375,0 114.579687,0 Z M138.119687,76.7296875 C137.33625,77.32 136.875,78.244375 136.875,79.2259375 L136.875,91.2884375 L129.227812,83.6453125 C128.632812,83.0509375 127.834687,82.730625 127.018438,82.730625 C126.712187,82.730625 126.402812,82.7759375 126.100938,82.86875 C122.38125,84.011875 118.505,84.59125 114.579688,84.59125 L106.670625,84.59125 C85.0715625,84.59125 67.5,67.019375 67.5,45.420625 C67.5,23.821875 85.071875,6.25 106.670625,6.25 L114.579688,6.25 C136.178438,6.25 153.75,23.821875 153.75,45.420625 C153.75,57.8365625 148.053125,69.2484375 138.119687,76.7296875 Z" id="Shape" fill="#ED7D31"></path>
                        <path d="M124.697813,34.1940625 C124.246875,27.651875 118.973125,22.378125 112.430625,21.9271875 C108.721875,21.6725 105.1825,22.9234375 102.473438,25.4525 C99.8015625,27.9465625 98.269375,31.4721875 98.269375,35.125625 C98.269375,36.8515625 99.66875,38.250625 101.394375,38.250625 C103.12,38.250625 104.519375,36.8515625 104.519375,35.125625 C104.519375,33.1696875 105.3075,31.356875 106.738125,30.0215625 C108.1675,28.6875 110.035625,28.0271875 112.00125,28.1628125 C115.4475,28.4003125 118.225313,31.178125 118.462813,34.6240625 C118.702813,38.104375 116.419375,41.18 113.03375,41.9375 C110.290625,42.55125 108.375,44.935 108.375,47.7340625 L108.375,55.241875 C108.375,56.9678125 109.774375,58.366875 111.5,58.366875 C113.225938,58.366875 114.625,56.9678125 114.624688,55.241875 L114.624688,47.98375 C120.921563,46.4625 125.14625,40.700625 124.697813,34.1940625 Z" id="Path" fill="#ED7D31"></path>
                        <path d="M113.709375,65.39375 C113.128125,64.8125 112.321875,64.478125 111.5,64.478125 C110.678125,64.478125 109.871875,64.8125 109.290625,65.39375 C108.709375,65.975 108.375,66.78125 108.375,67.603125 C108.375,68.428125 108.709688,69.234375 109.290625,69.815625 C109.871875,70.396875 110.678125,70.728125 111.5,70.728125 C112.321875,70.728125 113.128125,70.396875 113.709375,69.815625 C114.290625,69.23125 114.625,68.428125 114.625,67.603125 C114.625,66.78125 114.290312,65.975 113.709375,65.39375 Z" id="Path" fill="#ED7D31"></path>
                        <path d="M85.9375,96.875 L20,96.875 C18.274375,96.875 16.875,98.2740625 16.875,100 C16.875,101.725938 18.274375,103.125 20,103.125 L85.9375,103.125 C87.6634375,103.125 89.0625,101.725938 89.0625,100 C89.0625,98.2740625 87.663125,96.875 85.9375,96.875 Z" id="Path" fill="#125773"></path>
                        <path d="M88.1465625,115.290625 C87.565625,114.709375 86.759375,114.375 85.9375,114.375 C85.115625,114.375 84.309375,114.709375 83.728125,115.290625 C83.1465625,115.871875 82.8125,116.678125 82.8125,117.5 C82.8125,118.321875 83.146875,119.128125 83.728125,119.709375 C84.309375,120.290625 85.115625,120.625 85.9375,120.625 C86.759375,120.625 87.565625,120.290625 88.1465625,119.709375 C88.728125,119.128125 89.0625,118.325 89.0625,117.5 C89.0625,116.678125 88.7278125,115.871875 88.1465625,115.290625 Z" id="Path" fill="#125773"></path>
                        <path d="M73.6459375,114.375 L20,114.375 C18.274375,114.375 16.875,115.774062 16.875,117.5 C16.875,119.225938 18.274375,120.625 20,120.625 L73.6459375,120.625 C75.371875,120.625 76.7709375,119.225938 76.7709375,117.5 C76.7709375,115.774062 75.3715625,114.375 73.6459375,114.375 Z" id="Path" fill="#125773"></path>
                        <path d="M65.625,79.375 L20,79.375 C18.274375,79.375 16.875,80.7740625 16.875,82.5 C16.875,84.2259375 18.274375,85.625 20,85.625 L65.625,85.625 C67.3509375,85.625 68.75,84.2259375 68.75,82.5 C68.75,80.7740625 67.350625,79.375 65.625,79.375 Z" id="Path" fill="#125773"></path>
                    </g>
                </g>
            </g>
        </g>
    </g>
</svg>