<?xml version="1.0" encoding="UTF-8"?>
<svg width="160px" height="160px" viewBox="0 0 160 160" version="1.1" xmlns="http://www.w3.org/2000/svg" xmlns:xlink="http://www.w3.org/1999/xlink">
    <title>reward</title>
    <g id="Page-1" stroke="none" stroke-width="1" fill="none" fill-rule="evenodd">
        <g id="Consultants" transform="translate(-1127.000000, -1130.000000)" fill-rule="nonzero">
            <g id="why-to-join-nformacy" transform="translate(100.000000, 590.000000)">
                <g id="Reason4" transform="translate(640.000000, 480.000000)">
                    <g id="reward" transform="translate(387.000000, 60.000000)">
                        <path d="M18.4615385,7.239819 C14.2700643,7.239819 10.8597285,10.6498425 10.8597285,14.841629 C10.8597285,19.0334155 14.2700643,22.4434389 18.4615385,22.4434389 C22.6530126,22.4434389 26.0633484,19.0331031 26.0633484,14.841629 C26.0633484,10.6501548 22.6530126,7.239819 18.4615385,7.239819 Z M18.4615385,17.6938303 C16.8889548,17.6938303 15.6093371,16.4142126 15.6093371,14.841629 C15.6093371,13.2690453 16.8889548,11.9894276 18.4615385,11.9894276 C20.0341221,11.9894276 21.3137398,13.268733 21.3137398,14.841629 C21.3137398,16.4145249 20.0341221,17.6938303 18.4615385,17.6938303 Z" id="Shape" fill="#125773"></path>
                        <path d="M35.8371041,7.239819 C31.6456299,7.239819 28.2352941,10.6498425 28.2352941,14.841629 C28.2352941,19.0334155 31.6456299,22.4434389 35.8371041,22.4434389 C40.0288906,22.4434389 43.438914,19.0331031 43.438914,14.841629 C43.438914,10.6501548 40.0285782,7.239819 35.8371041,7.239819 Z M35.8374164,17.6938303 C34.2648328,17.6938303 32.9852151,16.4142126 32.9852151,14.841629 C32.9852151,13.2690453 34.2648328,11.9894276 35.8374164,11.9894276 C37.41,11.9894276 38.6896177,13.268733 38.6896177,14.841629 C38.6896177,16.4145249 37.4096877,17.6938303 35.8374164,17.6938303 Z" id="Shape" fill="#125773"></path>
                        <path d="M53.9366516,7.239819 C49.7448651,7.239819 46.3348416,10.6498425 46.3348416,14.841629 C46.3348416,19.0334155 49.7451774,22.4434389 53.9366516,22.4434389 C58.1281257,22.4434389 61.5384615,19.0331031 61.5384615,14.841629 C61.5384615,10.6501548 58.1281257,7.239819 53.9366516,7.239819 Z M53.9366516,17.6938303 C52.3637556,17.6938303 51.0844502,16.4142126 51.0844502,14.841629 C51.0844502,13.2690453 52.3637556,11.9894276 53.9366516,11.9894276 C55.5092352,11.9894276 56.7888529,13.2690453 56.7888529,14.841629 C56.7888529,16.4142126 55.5092352,17.6938303 53.9366516,17.6938303 Z" id="Shape" fill="#125773"></path>
                        <path d="M147.466557,0 L55.9704836,0 C54.6582628,0 53.5941733,1.06314311 53.5941733,2.37450906 C53.5941733,3.68556279 54.6579503,4.7487059 55.9704836,4.7487059 L147.466557,4.7487059 C151.756978,4.7487059 155.248004,8.23475372 155.248004,12.5201103 L155.248004,26.0777609 L4.7535582,26.0777609 L4.7535582,12.5197981 C4.7535582,8.23475372 8.24270929,4.74839367 12.5318807,4.74839367 L48.049345,4.74839367 C49.3615658,4.74839367 50.4256553,3.68556279 50.4256553,2.37419683 C50.4256553,1.06314311 49.3618783,0 48.049345,0 L12.5315682,0 C5.62233025,0 0,5.61639304 0,12.5197981 L0,28.4304138 C0,28.4375951 0,28.4447764 0,28.4519577 C0,28.459139 0,28.4663203 0,28.4735016 L0,109.833143 C0,116.736548 5.62201775,122.352941 12.5315682,122.352941 L55.4942215,122.352941 C56.8064424,122.352941 57.8705319,121.289798 57.8705319,119.978432 C57.8705319,118.667066 56.8067549,117.604235 55.4942215,117.604235 L12.5315682,117.604235 C8.24270929,117.604235 4.75324569,114.118187 4.75324569,109.832831 L4.75324569,30.8261545 L155.247692,30.8261545 L155.247692,109.833143 C155.247692,114.118187 151.756978,117.604548 147.466244,117.604548 C146.154023,117.604548 145.089934,118.667378 145.089934,119.978744 C145.089934,121.29011 146.153711,122.352941 147.466244,122.352941 C154.377357,122.352941 160,116.73686 160,109.833455 L160,12.5197981 C160,5.61639304 154.377357,0 147.466557,0 Z" id="Path" fill="#125773"></path>
                        <path d="M142.309527,103.607833 C141.258356,101.285734 140.171077,98.8845714 140.171077,97.0138188 C140.171077,95.1430663 141.258356,92.741904 142.309527,90.4194938 C143.988537,86.7109836 145.72451,82.8764077 144.222926,79.2559879 C142.661577,75.4905147 138.444443,73.9216972 134.724101,72.5377761 C132.413517,71.6780392 130.023869,70.7890426 128.802743,69.5682287 C127.581617,68.3474148 126.692619,65.9580809 125.833504,63.6468765 C124.449271,59.9262267 122.880763,55.7090959 119.115286,54.147749 C115.494863,52.6464778 111.659661,54.3821378 107.951459,56.061146 C105.629358,57.112316 103.228193,58.1995936 101.357439,58.1995936 C99.4866847,58.1995936 97.0855202,57.112316 94.7634191,56.061146 C91.0549055,54.3821378 87.2206374,52.6461665 83.5995917,54.147749 C79.834115,55.7090959 78.2652961,59.9259154 76.8813736,63.6465653 C76.021636,65.957147 75.1326386,68.3467922 73.9118236,69.5679174 C72.6906972,70.7887313 70.3013611,71.6777279 67.9904659,72.5374648 C64.2698127,73.9216972 60.0529893,75.4902034 58.4916409,79.2556766 C56.9900571,82.876719 58.7260299,86.7112949 60.4050397,90.4194938 C61.4562106,92.7415927 62.5434893,95.142755 62.5434893,97.0135076 C62.5434893,98.8842602 61.4562106,101.285422 60.4050397,103.607521 C58.7260299,107.316032 56.9900571,111.150607 58.4916409,114.771339 C60.0529893,118.536812 64.2701239,120.105629 67.9904659,121.48955 C70.3010498,122.349287 72.6906972,123.238284 73.9118236,124.459098 C75.1329499,125.679912 76.0219473,128.069246 76.8813736,130.38045 C78.2656073,134.1011 79.8338037,138.317919 83.5995917,139.879577 C84.5723216,140.282988 85.5599928,140.452489 86.5573134,140.452489 C89.2716191,140.452489 92.0516036,139.193842 94.7637304,137.965869 C97.0858314,136.914699 99.486996,135.827421 101.35775,135.827421 C103.228505,135.827421 105.629669,136.914699 107.95177,137.965869 C111.660284,139.644877 115.494863,141.38116 119.115598,139.879266 C122.881074,138.317919 124.449893,134.100788 125.833816,130.38045 C126.693553,128.069868 127.582551,125.680223 128.803366,124.459098 C130.024181,123.238284 132.413828,122.348976 134.724723,121.48955 C138.445377,120.105318 142.6622,118.536812 144.22386,114.771339 C145.72451,111.150919 143.988537,107.316032 142.309527,103.607833 Z M137.997143,105.560139 C139.259668,108.349148 140.565772,111.233717 139.850154,112.958483 C139.078507,114.819586 136.025536,115.955111 133.073106,117.053283 C130.286896,118.089512 127.406059,119.161226 125.455307,121.112287 C123.504244,123.063348 122.432529,125.944183 121.396299,128.73039 C120.298126,131.682506 119.162289,134.735475 117.301495,135.507121 C115.576728,136.222739 112.692778,134.916947 109.903456,133.654111 C107.123471,132.395633 104.249171,131.094511 101.356816,131.094511 C98.4644622,131.094511 95.5901618,132.395945 92.8101773,133.654111 C90.0208546,134.916636 87.1365935,136.222427 85.4121378,135.507121 C83.551033,134.735163 82.4155069,131.682506 81.3170224,128.730079 C80.2807926,125.943871 79.2090776,123.063037 77.2580147,121.112287 C75.3072631,119.161226 72.4261147,118.089823 69.6399047,117.053283 C66.687786,115.955111 63.6348145,114.819275 62.8631673,112.958172 C62.1478606,111.233095 63.4536533,108.349148 64.716179,105.560139 C65.9746581,102.780157 67.2757818,99.9058592 67.2757818,97.0135076 C67.2757818,94.121156 65.9743469,91.2468583 64.716179,88.4668763 C63.4536533,85.6778675 62.1475493,82.793609 62.8631673,81.0688436 C63.6348145,79.2077405 66.687786,78.0722155 69.6399047,76.9740432 C72.4261147,75.9378144 75.3069518,74.8657891 77.2580147,72.9150393 C79.2090776,70.9646008 80.2807926,68.0831437 81.3170224,65.2969364 C82.4151956,62.3448203 83.551033,59.2918517 85.4121378,58.5202052 C85.7517373,58.3795096 86.1355376,58.3167493 86.5554457,58.3167493 C88.2683843,58.3167493 90.5702525,59.3590867 92.8104886,60.3732152 C95.5904731,61.6316931 98.4647735,62.9328156 101.357128,62.9328156 C104.249482,62.9328156 107.123782,61.6313819 109.903767,60.3732152 C112.69309,59.1106906 115.577039,57.8042765 117.302118,58.5202052 C119.163222,59.2918517 120.298749,62.3448203 121.397233,65.2969364 C122.433463,68.0831437 123.505489,70.9639782 125.456241,72.914728 C127.407304,74.8657891 130.288141,75.9371919 133.074351,76.973732 C136.026469,78.0719042 139.079441,79.2077405 139.851399,81.0688436 C140.566706,82.7939203 139.260913,85.6778675 137.998388,88.4668763 C136.739909,91.246547 135.438785,94.121156 135.438785,97.0135076 C135.43754,99.9058592 136.738663,102.780468 137.997143,105.560139 Z" id="Shape" fill="#ED7D31"></path>
                        <path d="M101.719771,70.2262443 C99.9604099,70.2262443 98.1994781,70.3958658 96.486606,70.7303969 C95.1921358,70.9832584 94.3474791,72.2375146 94.6003421,73.5326055 C94.8532052,74.8273823 96.1074686,75.6714059 97.402567,75.4188585 C98.8145164,75.1430666 100.266987,75.003286 101.720085,75.003286 C114.056345,75.003286 124.092651,85.039534 124.092651,97.3757227 C124.092651,109.711911 114.056345,119.748159 101.720085,119.748159 C89.3838252,119.748159 79.3475192,109.711911 79.3475192,97.3757227 C79.3475192,89.9318554 83.0355499,82.99591 89.2129463,78.822909 C90.3057543,78.0844276 90.5934842,76.599612 89.8549985,75.5064962 C89.1165128,74.4140087 87.6320027,74.1265946 86.5385665,74.8644478 C79.0447118,79.9273329 74.5701357,88.342754 74.5701357,97.3757227 C74.5701357,112.345755 86.749338,124.524887 101.719457,124.524887 C116.689576,124.524887 128.868778,112.345755 128.868778,97.3757227 C128.868778,82.4056903 116.690518,70.2262443 101.719771,70.2262443 Z" id="Path" fill="#ED7D31"></path>
                        <path d="M98.6709251,139.654801 C97.5224542,139.02713 96.0861654,139.456556 95.4632343,140.614657 L88.4420351,153.668396 L80.4886172,145.650455 C80.1363904,145.295057 79.6814827,145.060739 79.1889253,144.981692 L68.8791351,143.321077 L74.5639261,131.57632 C75.1367614,130.392183 74.6494936,128.964317 73.4751969,128.386835 C72.3002778,127.809353 70.8845253,128.300573 70.3113788,129.484397 L63.2260818,144.122526 C62.8975028,144.801954 62.9071485,145.597757 63.2528411,146.268088 C63.5985336,146.93842 64.2385783,147.404232 64.9791258,147.523744 L77.685116,149.570497 L87.3377481,159.301438 C87.784877,159.752194 88.3878942,160 89.0105142,160 C89.1234632,160 89.2373457,159.991844 89.3509171,159.975219 C90.0895977,159.867 90.7349319,159.413735 91.0905814,158.751873 L99.6230576,142.888514 C100.245678,141.730099 99.8197072,140.282472 98.6709251,139.654801 Z" id="Path" fill="#ED7D31"></path>
                        <path d="M140.212863,144.122437 L133.126675,129.484515 C132.553843,128.300708 131.137476,127.809181 129.962875,128.386969 C128.788586,128.964443 128.30101,130.392602 128.874153,131.576408 L134.55891,143.320999 L124.249181,144.981591 C123.756626,145.06095 123.302033,145.294951 122.949497,145.650344 L114.996126,153.668172 L107.975591,140.614932 C107.352663,139.45716 105.917005,139.027426 104.767919,139.655089 C103.619455,140.283064 103.193176,141.730671 103.815792,142.888756 L112.348218,158.75189 C112.704176,159.413743 113.349196,159.867002 114.087872,159.97522 C114.201442,159.992158 114.315013,160 114.428273,160 C115.050889,160 115.654214,159.751884 116.101029,159.301447 L125.753604,149.570645 L138.459518,147.523921 C139.199439,147.404724 139.840102,146.938918 140.185793,146.268283 C140.531483,145.597647 140.541751,144.801856 140.212863,144.122437 Z" id="Path" fill="#ED7D31"></path>
                    </g>
                </g>
            </g>
        </g>
    </g>
</svg>