<?xml version="1.0" encoding="UTF-8"?>
<svg width="160px" height="160px" viewBox="0 0 160 160" version="1.1" xmlns="http://www.w3.org/2000/svg" xmlns:xlink="http://www.w3.org/1999/xlink">
    <title>special services</title>
    <g id="Page-1" stroke="none" stroke-width="1" fill="none" fill-rule="evenodd">
        <g id="Consultants" transform="translate(-1139.000000, -763.000000)" fill-rule="nonzero">
            <g id="why-to-join-nformacy" transform="translate(100.000000, 590.000000)">
                <g id="Reason2" transform="translate(640.000000, 103.000000)">
                    <g id="special-services" transform="translate(399.000000, 70.000000)">
                        <path d="M147.78,87.9988345 C147.748667,87.9988345 147.717,87.9988345 147.685333,88 C144.645333,87.994 141.715667,89.137 139.482667,91.2 L110.592,117.866667 C109.116333,119.237333 107.176667,119.999333 105.162667,120 L64.648,120 C61.7023333,120 59.3146667,117.612333 59.3146667,114.666667 C59.3146667,111.721 61.7023333,109.333333 64.648,109.333333 L92.6853333,109.333333 C98.5763333,109.333333 103.352,104.557667 103.352,98.6666667 C103.352,92.7756667 98.5763333,88 92.6853333,88 L49.176,88 C42.678,87.998 36.311,89.825 30.8026667,93.272 L21.3333333,99.2 L21.3333333,96 L0,96 L0,160 L21.3333333,160 L21.3333333,154.666667 L77.5546667,154.666667 C79.3196667,154.666667 81.082,154.532 82.8266667,154.264 L104.72,150.896 C112.011667,149.789667 118.755667,146.372333 123.96,141.146667 L156.456,108.645333 C158.732333,106.382667 160.008667,103.303 160.000044,100.093333 C159.965333,93.379 154.494,87.9643333 147.78,87.9988345 Z M16,154.666667 L5.33333333,154.666667 L5.33333333,101.333333 L16,101.333333 L16,154.666667 Z M152.682667,104.88 L152.685333,104.874667 L120.189333,137.376 C115.785333,141.797333 110.079,144.689333 103.909333,145.626667 L82.016,148.994667 C80.5396667,149.220333 79.0483333,149.333332 77.5546667,149.333332 L21.3333333,149.333332 L21.3333333,105.477333 L33.632,97.792 C38.2923333,94.877 43.679,93.3316667 49.176,93.333332 L92.6853333,93.333332 C95.631,93.333332 98.0186667,95.721 98.0186667,98.6666667 C98.0186667,101.612333 95.631,104 92.6853333,104 L64.648,104 C58.757,104 53.9813333,108.775667 53.9813333,114.666667 C53.9813333,120.557667 58.757,125.333332 64.648,125.333332 L105.162667,125.333332 C108.515667,125.337 111.746333,124.074 114.208,121.797333 L143.101333,95.1306667 C144.412333,93.9396667 146.130667,93.2983333 147.901333,93.3386667 C151.634667,93.3373333 154.662667,96.3626667 154.664,100.096 C154.664,101.890333 153.951667,103.611333 152.682667,104.88 Z" id="Shape" fill="#125773"></path>
                        <path d="M119.466667,27.7333333 C118.963,27.062 118.172667,26.6666667 117.333333,26.6666667 L92.472,26.6666667 L82.4773333,1.67733333 C81.9303333,0.31 80.3786667,-0.355333333 79.011,0.191666667 C78.3333333,0.462666667 77.7963333,0.999666667 77.5253333,1.67733333 L67.528,26.6666667 L42.6666667,26.6666667 C41.194,26.6666667 40,27.8606667 40,29.3333333 C40,30.1726667 40.3953333,30.963 41.0666667,31.4666667 L60.8186667,46.28 L50.8266667,73.7466667 C50.3233333,75.1306667 51.0373333,76.6606667 52.4213333,77.164 C53.295,77.4816667 54.271,77.3213333 54.9973333,76.7413333 L79.9066667,56.8106667 L102.226667,76.648 C103.328,77.626 105.013333,77.526 105.991333,76.4246667 C106.589,75.7516667 106.806667,74.823 106.570667,73.9546667 L99.0506667,46.3813333 L118.933333,31.4666667 C120.111667,30.583 120.350333,28.9113333 119.466667,27.7333333 Z M94.4,43.2 C93.525,43.856 93.1393333,44.9796667 93.4266667,46.0346667 L99.0666667,66.7146667 L81.7733333,51.3413333 C80.8026667,50.4776667 79.351,50.4396667 78.336,51.2506667 L59.088,66.648 L66.5093333,46.2453333 C66.9103333,45.1406667 66.541,43.904 65.6,43.2 L50.6666667,32 L69.3333333,32 C70.4246667,32.0003333 71.406,31.336 71.8106667,30.3226667 L80,9.84533333 L88.1893333,30.3226667 C88.594,31.336 89.5756667,32.0003333 90.6666667,32 L109.333333,32 L94.4,43.2 Z" id="Shape" fill="#ED7D31"></path>
                        <polygon id="Rectangle" fill="#E7923D" transform="translate(56.001088, 13.335064) rotate(-45.000000) translate(-56.001088, -13.335064) " points="53.3344469 5.79246997 58.6677291 5.79246997 58.6677291 20.8776586 53.3344469 20.8776586"></polygon>
                        <polygon id="Rectangle" fill="#E7923D" transform="translate(103.999757, 13.331914) rotate(-45.000000) translate(-103.999757, -13.331914) " points="96.4571629 10.6652733 111.542352 10.6652733 111.542352 15.9985555 96.4571629 15.9985555"></polygon>
                        <rect id="Rectangle" fill="#E7923D" x="34.6666667" y="48" width="16" height="5.33333333"></rect>
                        <rect id="Rectangle" fill="#E7923D" x="109.333333" y="48" width="16" height="5.33333333"></rect>
                        <rect id="Rectangle" fill="#E7923D" x="77.3333333" y="64" width="5.33333333" height="16"></rect>
                    </g>
                </g>
            </g>
        </g>
    </g>
</svg>