<?xml version="1.0" encoding="UTF-8"?>
<svg width="162px" height="162px" viewBox="0 0 162 162" version="1.1" xmlns="http://www.w3.org/2000/svg" xmlns:xlink="http://www.w3.org/1999/xlink">
    <title> track, monitor</title>
    <g id="Page-1" stroke="none" stroke-width="1" fill="none" fill-rule="evenodd">
        <g id="Consultants" transform="translate(-498.000000, -763.000000)" fill-rule="nonzero">
            <g id="why-to-join-nformacy" transform="translate(100.000000, 590.000000)">
                <g id="Reason1" transform="translate(0.000000, 103.000000)">
                    <g id="-track,-monitor" transform="translate(398.000000, 70.000000)">
                        <path d="M124.875008,0 L10.1249921,0 C4.5331488,0 0,4.52195938 0,10.1 L0,90.9 C0,96.4780406 4.5331488,101 10.1249921,101 L54.0000633,101 L54.0000633,94.2667719 L10.1249921,94.2667719 C8.26104433,94.2667719 6.74988926,92.7593469 6.74988926,90.9 L6.74988926,10.1 C6.74988926,8.24065312 8.26104433,6.73322812 10.1249921,6.73322812 L124.875008,6.73322812 C126.738956,6.73322812 128.250111,8.24065312 128.250111,10.1 L128.250111,70.7 L135,70.7 L135,10.1 C135,4.52195938 130.466851,0 124.875008,0 Z" id="Path" fill="#125773"></path>
                        <rect id="Rectangle" fill="#125773" x="40" y="98" width="7" height="20"></rect>
                        <path d="M123.311802,71.6929897 C116.466164,64.8461001 107.180651,61 97.498622,61 C77.3402739,61.0009448 61,77.3430909 61,97.5014172 C61.0009448,117.659744 77.3431084,134 97.5014565,134 C107.180336,134 116.462385,130.15516 123.307077,123.311734 C137.562418,109.058929 137.564622,85.9486296 123.311802,71.6929897 Z M97.4813001,127.284444 C81.03363,127.278773 67.704542,113.940881 67.7102092,97.4932287 C67.71588,81.0455763 81.0537865,67.7165027 97.5014565,67.722063 C105.406883,67.7007554 112.991695,70.8464193 118.561491,76.4565226 C124.141681,82.043005 127.275065,89.617101 127.272547,97.5133851 C127.266877,113.961038 113.92897,127.290111 97.4813001,127.284444 Z" id="Shape" fill="#ED7D31"></path>
                        <path d="M161.021111,146.956547 L140.034394,125.979391 C139.407504,125.352581 138.557127,125 137.670705,125 C136.783969,125 135.933905,125.352581 135.307015,125.979391 L125.978889,135.306332 C124.673704,136.611665 124.673704,138.727778 125.978889,140.033424 L146.965606,161.020609 C147.592496,161.647732 148.442873,162 149.329295,162 L149.329295,162 C150.217285,161.997179 151.067975,161.641151 151.692985,161.01058 L161.021111,151.683639 C162.326296,150.377992 162.326296,148.26188 161.021111,146.956547 Z M149.328982,153.930128 L133.069958,137.669722 L137.670391,133.069872 L153.929416,149.330278 L149.328982,153.930128 Z" id="Shape" fill="#ED7D31"></path>
                        <polygon id="Rectangle" fill="#ED7D31" transform="translate(126.844673, 126.842571) rotate(-45.000000) translate(-126.844673, -126.842571) " points="123.469758 118.5199 130.219588 118.5199 130.219588 135.165241 123.469758 135.165241"></polygon>
                        <rect id="Rectangle" fill="#125773" x="34" y="115" width="27" height="7"></rect>
                        <path d="M51,14 C45.4771875,14 41,18.4771875 41,24 C41,29.5228125 45.4771875,34 51,34 C56.5228125,34 61,29.5228125 61,24 C61,18.4771875 56.5228125,14 51,14 Z M51,27.333125 C49.1590625,27.333125 47.6665625,25.840625 47.6665625,23.9996875 C47.6665625,22.15875 49.1590625,20.66625 51,20.66625 C52.8409375,20.66625 54.3334375,22.15875 54.3334375,23.9996875 C54.3334375,25.8409375 52.8409375,27.333125 51,27.333125 Z" id="Shape" fill="#125773"></path>
                        <path d="M74,37 C68.4771875,37 64,41.4771875 64,47 C64,52.5228125 68.4771875,57 74,57 C79.5228125,57 84,52.5228125 84,47 C84,41.4771875 79.5228125,37 74,37 Z M74,50.3334375 C72.1590625,50.3334375 70.6665625,48.8409375 70.6665625,47 C70.6665625,45.1590625 72.1590625,43.6665625 74,43.6665625 C75.8409375,43.6665625 77.3334375,45.1590625 77.3334375,47 C77.333125,48.8409375 75.8409375,50.3334375 74,50.3334375 Z" id="Shape" fill="#125773"></path>
                        <polygon id="Rectangle" fill="#125773" transform="translate(38.812451, 35.438425) rotate(-45.000000) translate(-38.812451, -35.438425) " points="26.8802525 32.0635106 50.7446487 32.0635106 50.7446487 38.8133404 26.8802525 38.8133404"></polygon>
                        <polygon id="Rectangle" fill="#125773" transform="translate(62.422907, 35.447024) rotate(-45.000000) translate(-62.422907, -35.447024) " points="59.0479918 23.5148259 65.7978216 23.5148259 65.7978216 47.379222 59.0479918 47.379222"></polygon>
                        <path d="M98,14 C92.4771875,14 88,18.4771875 88,24 C88,29.5228125 92.4771875,34 98,34 C103.522813,34 108,29.5228125 108,24 C108.000312,18.4771875 103.523125,14 98,14 Z M98,27.333125 C96.1590625,27.333125 94.6665625,25.840625 94.6665625,23.9996875 C94.6665625,22.15875 96.1590625,20.66625 98,20.66625 C99.8409375,20.66625 101.333437,22.15875 101.333437,23.9996875 C101.333437,25.8409375 99.8409375,27.333125 98,27.333125 Z" id="Shape" fill="#125773"></path>
                        <polygon id="Rectangle" fill="#125773" transform="translate(86.060699, 35.450268) rotate(-45.000000) translate(-86.060699, -35.450268) " points="74.1285013 32.0753526 97.9928974 32.0753526 97.9928974 38.8251824 74.1285013 38.8251824"></polygon>
                    </g>
                </g>
            </g>
        </g>
    </g>
</svg>