<?xml version="1.0" encoding="UTF-8"?>
<svg width="37px" height="37px" viewBox="0 0 37 37" version="1.1" xmlns="http://www.w3.org/2000/svg" xmlns:xlink="http://www.w3.org/1999/xlink">
    <title>Future Looking</title>
    <defs>
        <path d="M30.0821375,6.86985491 C29.4210318,7.5309606 29.3659397,8.55934721 29.9535892,9.29390908 C32.616376,12.6361656 34.0120435,17.2088132 32.7632883,22.0018294 C31.3125286,27.6028636 26.9235215,31.7898663 21.3592153,32.9100731 C11.9935515,34.7648418 3.78482267,27.5294074 3.78482267,18.4759324 C3.78482267,10.9834014 9.38585691,4.81308169 16.6396553,3.9132434 L16.6396553,7.62278083 C10.8917087,8.5960753 6.667978,13.976741 7.58618033,20.1654247 C8.30237816,24.9584409 12.2873763,28.8148907 17.0987565,29.4025402 C23.7832695,30.2289223 29.494488,25.013533 29.494488,18.4759324 C29.494488,16.1804266 28.7966543,14.0685612 27.6029912,12.3056127 C26.9786136,11.3874104 25.6380382,11.3323183 24.8483842,12.1036082 L24.8300202,12.1219723 C24.2056426,12.7463499 24.1505504,13.7196443 24.6280157,14.4542062 C25.7298585,16.1436985 26.1705956,18.310656 25.5278539,20.5510697 C24.8116561,23.0669441 22.6997908,25.0686252 20.1288242,25.6379106 C15.3541721,26.6846613 11.1304413,23.0853081 11.1304413,18.4759324 C11.1304413,15.0602197 13.4810393,12.2137925 16.6396553,11.3874104 L16.6396553,15.3173164 C15.5378125,15.960058 14.8032507,17.116993 14.8032507,18.4759324 C14.8032507,20.4959776 16.4560149,22.1487418 18.47606,22.1487418 C20.4961052,22.1487418 22.1488694,20.4959776 22.1488694,18.4759324 C22.1488694,17.116993 21.4143075,15.941694 20.3124647,15.3173164 L20.3124647,1.41573305 C20.3124647,0.699535229 19.7248152,0.111885735 19.0086174,0.111885735 C9.16548835,-0.255395198 0.681298782,7.56768869 0.148741428,17.3740896 C-0.512364253,29.4025402 10.0836907,39.0803928 22.2039615,36.4726982 C29.3292116,34.9484823 34.8384256,29.4943604 36.4360977,22.3874744 C37.739945,16.5844356 36.0688167,11.0752216 32.8183805,7.01676729 C32.1389107,6.15365709 30.8534275,6.09856495 30.0821375,6.86985491 Z" id="path-1"></path>
    </defs>
    <g id="Page-1" stroke="none" stroke-width="1" fill="none" fill-rule="evenodd">
        <g id="About" transform="translate(-311.000000, -1554.000000)">
            <g id="Values" transform="translate(0.000000, 1271.000000)">
                <g id="1" transform="translate(157.000000, 234.000000)">
                    <g id="Group" transform="translate(134.000000, 29.000000)">
                        <g id="Future-Looking" transform="translate(20.000000, 20.000000)">
                            <mask id="mask-2" fill="white">
                                <use xlink:href="#path-1"></use>
                            </mask>
                            <use id="icon/maps/track_24px" fill="#FFFFFF" fill-rule="nonzero" xlink:href="#path-1"></use>
                        </g>
                    </g>
                </g>
            </g>
        </g>
    </g>
</svg>