<?xml version="1.0" encoding="UTF-8"?>
<svg width="30px" height="37px" viewBox="0 0 30 37" version="1.1" xmlns="http://www.w3.org/2000/svg" xmlns:xlink="http://www.w3.org/1999/xlink">
    <title>Integrity</title>
    <g id="Page-1" stroke="none" stroke-width="1" fill="none" fill-rule="evenodd">
        <g id="About" transform="translate(-1096.000000, -1554.000000)" fill="#FFFFFF" fill-rule="nonzero">
            <g id="Values" transform="translate(0.000000, 1271.000000)">
                <g id="3" transform="translate(939.000000, 234.000000)">
                    <g id="Group" transform="translate(134.000000, 29.000000)">
                        <g id="Integrity" transform="translate(23.000000, 20.000000)">
                            <path d="M19.888144,0.102777778 L28.44375,9.16165471 L28.44375,32.5382353 C28.44375,34.3295961 27.072242,35.781781 25.3804012,35.781781 L3.93695988,35.781781 C2.24511907,35.781781 0.873611111,34.3295961 0.873611111,32.5382353 L0.873611111,3.34632353 C0.873611111,1.55496268 2.24511907,0.102777778 3.93695988,0.102777778 L19.888144,0.102777778 Z M16.1896111,3.34577778 L3.93695988,3.34632353 L3.93695988,32.5382353 L25.3804012,32.5382353 L25.3796111,13.0767778 L19.2537037,13.0769608 C17.5618629,13.0769608 16.1903549,11.6247759 16.1903549,9.83341503 L16.1896111,3.34577778 Z M19.7023207,16.7955128 L21.8684354,19.089046 L13.1270062,28.344677 L7.44892568,22.3325918 L9.61504037,20.0390586 L13.1270062,23.7576106 L19.7023207,16.7955128 Z M19.2536111,4.01777778 L19.2537037,9.83341503 L24.7446111,9.83277778 L19.2536111,4.01777778 Z" id="icon"></path>
                        </g>
                    </g>
                </g>
            </g>
        </g>
    </g>
</svg>