<?xml version="1.0" encoding="UTF-8"?>
<svg width="32px" height="39px" viewBox="0 0 32 39" version="1.1" xmlns="http://www.w3.org/2000/svg" xmlns:xlink="http://www.w3.org/1999/xlink">
    <title>Quality</title>
    <g id="Page-1" stroke="none" stroke-width="1" fill="none" fill-rule="evenodd">
        <g id="About" transform="translate(-900.000000, -1903.000000)" fill="#FFFFFF" fill-rule="nonzero" stroke="#FFFFFF">
            <g id="Values" transform="translate(0.000000, 1271.000000)">
                <g id="5" transform="translate(744.000000, 584.000000)">
                    <g id="Group" transform="translate(134.000000, 29.000000)">
                        <g id="Quality" transform="translate(23.000000, 20.000000)">
                            <g id="Group" transform="translate(0.440977, 0.000000)">
                                <path d="M20.5206363,14.7839012 C20.5206363,14.9453857 20.5165992,15.102833 20.5044878,15.2643175 C20.4964136,15.3490968 20.4883394,15.429839 20.4802652,15.5146184 C20.476228,15.538841 20.4641167,15.6357317 20.4802652,15.5186555 C20.4721909,15.575175 20.4641167,15.6276575 20.4560425,15.684177 C20.40356,15.9869604 20.330892,16.2897437 20.2380385,16.5844528 C20.1895931,16.7297888 20.1371107,16.8710877 20.0805911,17.0123866 C20.0442571,17.1012031 20.1169251,16.9316444 20.0805911,17.0164237 C20.0644427,17.0567949 20.0442571,17.097166 20.0240716,17.1375371 C19.9917747,17.2102051 19.9554407,17.2828731 19.9191067,17.351504 C19.7778078,17.6260275 19.6203605,17.8924769 19.4386905,18.1468149 C19.3983194,18.2033344 19.3579482,18.259854 19.31354,18.3163735 C19.386208,18.2194829 19.2489462,18.3930787 19.2287607,18.4213384 C19.1278329,18.5424518 19.022868,18.659528 18.9098289,18.7725671 C18.804864,18.8815691 18.6998991,18.9824969 18.58686,19.0834247 C18.5343776,19.13187 18.4818951,19.1762782 18.4294127,19.2206865 C18.4011529,19.2449091 18.3769302,19.2650947 18.3486704,19.2893174 C18.3405962,19.2973916 18.2033344,19.4023565 18.3042622,19.3256514 C18.0579984,19.5113585 17.7996233,19.6809171 17.5291369,19.8302903 C17.3959122,19.9029583 17.2626875,19.9715891 17.1254257,20.0361829 C17.0931289,20.0523314 16.915496,20.1249994 17.024498,20.0805911 C16.9397186,20.112888 16.8589764,20.1451849 16.7741971,20.1774818 C16.4754508,20.2864838 16.1726675,20.3712632 15.8618099,20.4318198 C15.7891419,20.4479683 15.7164739,20.4600796 15.6438059,20.4721909 C15.5993977,20.4802652 15.5509524,20.4883394 15.5065441,20.4923765 C15.5307668,20.4883394 15.6236204,20.4802652 15.502507,20.4923765 C15.3369855,20.5085249 15.1674268,20.5246734 15.0019052,20.5287105 C14.6829735,20.5408218 14.3640417,20.5206363 14.0451099,20.4923765 C13.867477,20.476228 14.121815,20.5044878 14.012813,20.4883394 C13.976479,20.4843023 13.940145,20.476228 13.903811,20.4721909 C13.8230688,20.4600796 13.7423266,20.4439312 13.6615843,20.4277827 C13.5000999,20.3954858 13.3426525,20.3551147 13.1852052,20.3107065 C13.0479434,20.2703354 12.9106816,20.2259272 12.7734199,20.1774818 C12.704789,20.1532591 12.6401952,20.1249994 12.5715643,20.1007767 C12.4100799,20.04022 12.6401952,20.1330736 12.5433045,20.0886654 C12.5029334,20.0725169 12.4625623,20.0523314 12.4221912,20.0321458 C12.1315192,19.8989211 11.8529585,19.7414738 11.5865092,19.567878 C11.4694329,19.4911729 11.3523567,19.4104307 11.2433547,19.3216142 C11.3362083,19.3902451 11.1868352,19.277206 11.1585754,19.2529833 C11.0899445,19.1964638 11.0253507,19.1399442 10.9607569,19.0793876 C10.7306416,18.8734949 10.5166747,18.6514538 10.3228934,18.4173013 C10.3027078,18.3890416 10.165446,18.2154458 10.238114,18.3123364 C10.1937058,18.2558169 10.1533347,18.1992973 10.1129636,18.1427778 C10.02011,18.0135902 9.93533068,17.8803655 9.85055135,17.7431038 C9.77384623,17.6139162 9.70117823,17.4806915 9.63254734,17.3474669 C9.60025045,17.2828731 9.56795356,17.2182793 9.53969378,17.1577226 C9.51950823,17.1173515 9.50335978,17.0769804 9.48317423,17.0366093 C9.43472889,16.9316444 9.49528556,17.0729433 9.47106289,17.0083495 C9.35398667,16.7136404 9.257096,16.4148942 9.184428,16.1080737 C9.148094,15.9587006 9.11579711,15.8052904 9.09157444,15.6518802 C9.08753733,15.6155462 9.07946311,15.5792122 9.07542599,15.5428781 C9.05927755,15.4459875 9.08753733,15.6357317 9.07542599,15.538841 C9.06331466,15.4459875 9.05524044,15.3531339 9.04716622,15.2602804 C9.02294355,14.9332744 9.02294355,14.6022312 9.05120333,14.2752252 C9.05524044,14.2025572 9.06331466,14.1258521 9.07138888,14.0531841 C9.08350022,13.9320708 9.07542599,14.0249243 9.07138888,14.049147 C9.07542599,14.012813 9.08350022,13.976479 9.08753733,13.940145 C9.11579711,13.7705863 9.148094,13.5969905 9.18846511,13.431469 C9.26517022,13.1246485 9.36206089,12.8259023 9.47913712,12.5352303 C9.43472889,12.6442323 9.50739689,12.4706365 9.52354534,12.4343025 C9.55180512,12.3697087 9.58410201,12.305115 9.6163989,12.2405212 C9.6890669,12.0992223 9.76577201,11.9579234 9.84651424,11.8206616 C9.92725646,11.6833998 10.0160729,11.5501752 10.1089265,11.4209876 C10.1492976,11.364468 10.1896687,11.3079485 10.2340769,11.2514289 C10.1614089,11.3483196 10.310782,11.1585754 10.3350047,11.1262785 C10.528786,10.8961631 10.7346787,10.6821963 10.9567198,10.4843778 C11.0172765,10.4318954 11.073796,10.3794129 11.1343527,10.3309676 C11.1626125,10.3067449 11.1868352,10.2865594 11.2150949,10.2623367 C11.2272063,10.2502254 11.3160227,10.1815945 11.2595032,10.2300398 C11.1908723,10.2825222 11.328134,10.1775574 11.3240969,10.1815945 C11.3523567,10.1614089 11.3806165,10.1412234 11.4088763,10.1210378 C11.4815443,10.0685554 11.5542123,10.02011 11.6268803,9.97166468 C11.8812183,9.80614312 12.1436305,9.66080712 12.4181541,9.53565667 C12.450451,9.51950823 12.4827479,9.50739689 12.5150447,9.49124845 C12.6724921,9.41858045 12.4464139,9.51950823 12.5433045,9.47913712 C12.6078983,9.45087734 12.6765292,9.42665467 12.7451601,9.402432 C12.8985703,9.34591245 13.0519805,9.29746711 13.2053908,9.25305889 C13.3547639,9.21268778 13.504137,9.17635378 13.6535101,9.14405689 C13.7261781,9.12790844 13.7988461,9.11579711 13.867477,9.10368577 C13.903811,9.09561155 13.940145,9.09157444 13.976479,9.08753733 C14.121815,9.06331466 13.8997739,9.09561155 14.0370357,9.07946311 C14.3640417,9.04716622 14.6910477,9.03101777 15.0220908,9.04312911 C15.1795381,9.05120333 15.3369855,9.06331466 15.4944328,9.07946311 C15.5186555,9.08350022 15.6155462,9.09561155 15.4984699,9.07946311 C15.5348039,9.08350022 15.5711379,9.09157444 15.6074719,9.09561155 C15.6962884,9.11176 15.7891419,9.12790844 15.8779584,9.14405689 C16.1888159,9.20865066 16.4915993,9.29343 16.7903455,9.402432 C16.8670506,9.43069178 16.9397186,9.45895156 17.0164237,9.49124845 C16.8993475,9.44280311 17.0931289,9.52354534 17.1173515,9.53565667 C17.2626875,9.60428756 17.4039864,9.67291845 17.5452853,9.75366068 C17.6704358,9.82229157 17.7915491,9.89495957 17.9086253,9.97166468 C17.9772562,10.0160729 18.04185,10.0604811 18.1064438,10.1048894 C18.1347035,10.1250749 18.1629633,10.1452605 18.1912231,10.165446 C18.2073715,10.1775574 18.332522,10.2704109 18.2760024,10.2300398 C18.2194829,10.1856316 18.3042622,10.2542625 18.3204107,10.2623367 C18.3486704,10.2865594 18.3769302,10.3067449 18.4011529,10.3309676 C18.4617096,10.38345 18.5222662,10.4318954 18.5787858,10.4843778 C18.695862,10.5893427 18.8089011,10.6983447 18.9179031,10.8154209 C19.0147938,10.9163487 19.1076473,11.0213136 19.2005009,11.1303156 C19.2287607,11.1626125 19.2570205,11.1989465 19.2852802,11.2312434 C19.2973916,11.2433547 19.3660225,11.3321712 19.3175771,11.2756516 C19.2731689,11.219132 19.3417998,11.3079485 19.349874,11.3200598 C19.3740967,11.3563938 19.4023565,11.3927278 19.4265791,11.4290618 C19.6122862,11.6874369 19.7737707,11.9619605 19.9191067,12.2485954 C19.9514036,12.3131892 19.9837005,12.377783 20.0119603,12.4423767 C20.0240716,12.4665994 20.1048138,12.6563436 20.0563685,12.5433045 C20.1169251,12.6926776 20.1734447,12.8420508 20.22189,12.9994981 C20.3228178,13.3103557 20.3995229,13.6292874 20.4520054,13.9522563 C20.4560425,13.9885903 20.4641167,14.0249243 20.4681538,14.0612583 C20.4641167,14.0370357 20.4560425,13.9441821 20.4681538,14.0652954 C20.476228,14.1379634 20.4843023,14.2146686 20.4883394,14.2873366 C20.5165992,14.4447839 20.5206363,14.6143426 20.5206363,14.7839012 C20.5206363,15.0987959 20.7991969,15.4056164 21.126203,15.3894679 C21.453209,15.3733195 21.7317696,15.1230186 21.7317696,14.7839012 C21.7236954,13.358801 21.2917245,11.9296636 20.4560425,10.7710127 C19.6243976,9.6163989 18.4859322,8.74034576 17.1456113,8.24378109 C14.4447839,7.24257751 11.255466,8.10651931 9.43069178,10.3350047 C8.50619331,11.4653958 7.95310908,12.8218652 7.83603285,14.2792623 C7.72299374,15.7003255 8.07825953,17.1617597 8.81705088,18.3809673 C9.53161956,19.5598038 10.6054911,20.5367847 11.8610327,21.1019803 C13.2215392,21.7156212 14.7193075,21.889217 16.1807417,21.598545 C18.9461629,21.0494978 21.2029081,18.7120104 21.634879,15.9223666 C21.6913985,15.5469153 21.7277325,15.1674268 21.7317696,14.7839012 C21.7317696,14.4690066 21.453209,14.1621861 21.126203,14.1783346 C20.7991969,14.194483 20.5246734,14.4447839 20.5206363,14.7839012 Z" id="Path"></path>
                                <path d="M27.6421004,16.4512282 C27.262612,16.8307166 26.8831235,17.2102051 26.5036351,17.5896935 C26.3704104,17.7229182 26.2331486,17.8561429 26.099924,17.9934047 C25.6518046,18.4495982 25.3126873,19.0269051 25.159277,19.6486202 C24.9977926,20.3066694 25.050275,21.0131638 25.050275,21.6873614 C25.050275,21.9820705 25.050275,22.2767796 25.050275,22.5714888 C25.050275,22.652231 25.050275,22.7289361 25.0462379,22.8096783 C25.0422008,22.8661979 25.0381637,22.9227174 25.0341266,22.9751999 C25.0341266,22.9832741 25.0220153,23.0761277 25.0341266,23.0034597 C25.0422008,22.9267545 25.0260524,23.0397937 25.0260524,23.0599792 C25.0058668,23.1851297 24.9735699,23.306243 24.9372359,23.4273563 C24.9210875,23.4798388 24.904939,23.5282841 24.8847535,23.5807666 C24.8807164,23.596915 24.8363081,23.7018799 24.8645679,23.633249 C24.8928277,23.5686552 24.8564937,23.6493975 24.8524566,23.6574717 C24.795937,23.7664737 24.7394175,23.8754757 24.6748237,23.9804406 C24.6425268,24.032923 24.6061928,24.0813684 24.5698588,24.1338508 C24.5294877,24.1903704 24.577933,24.1217395 24.5860073,24.1177024 C24.5698588,24.1378879 24.5537104,24.1580735 24.5375619,24.178259 C24.4527826,24.2791868 24.3639661,24.3720404 24.2670755,24.4608568 C24.2267044,24.4971908 24.1863332,24.5294877 24.1499992,24.5658217 C24.141925,24.5698588 24.0732941,24.6223413 24.1298137,24.5819701 C24.1903704,24.5375619 24.0975168,24.6021557 24.0854055,24.614267 C23.9844777,24.6828979 23.8795128,24.7474917 23.7705108,24.8040113 C23.7220655,24.8282339 23.6776572,24.8524566 23.6292119,24.8726422 C23.5444326,24.9130133 23.7139912,24.8403453 23.6292119,24.8726422 C23.6049892,24.8807164 23.5807666,24.8928277 23.5565439,24.9009019 C23.4394677,24.9453102 23.3183543,24.977607 23.197241,25.0058668 C23.1366843,25.0179782 23.0720906,25.0300895 23.0115339,25.0422008 C22.9388659,25.0543122 23.0276823,25.0381637 23.0357566,25.0381637 C23.0074968,25.0422008 22.979237,25.0422008 22.9550143,25.0462379 C22.870235,25.0543122 22.7814185,25.0543122 22.6966392,25.0583493 C22.6239712,25.0583493 22.5472661,25.0583493 22.4745981,25.0583493 C22.1556663,25.0583493 21.8326974,25.0583493 21.5137656,25.0583493 C20.8113083,25.0583493 20.0846283,25.0099039 19.4063936,25.2359822 C18.8694578,25.4176522 18.3850044,25.7163984 17.9812933,26.1160724 C17.8117346,26.2856311 17.642176,26.4551897 17.4726173,26.6247484 C17.2303906,26.8669751 16.988164,27.1092018 16.7459373,27.3514284 C16.5844528,27.5129129 16.4068199,27.7066942 16.2412984,27.8358818 C15.7851048,28.1951847 15.2360577,28.352632 14.6789364,28.3364836 C14.4326726,28.3284093 14.1742975,28.2759269 13.8836254,28.1669249 C13.7019554,28.098294 13.3830237,27.9045127 13.213465,27.7470653 C12.2122614,26.8387153 11.3927278,25.5952851 10.0322214,25.1996482 C9.36206089,25.0058668 8.63941798,25.0583493 7.94907197,25.0583493 C7.64225152,25.0583493 7.33543106,25.0583493 7.02861061,25.0583493 C6.97209106,25.0583493 6.9155715,25.0583493 6.85905194,25.0583493 C6.80253239,25.0583493 6.74601283,25.0583493 6.68949327,25.0543122 C6.66123349,25.0543122 6.49167482,25.0381637 6.54819438,25.0422008 C6.60875105,25.050275 6.46341504,25.0260524 6.43919238,25.0220153 C6.36652437,25.0099039 6.29789348,24.9897184 6.22926259,24.9735699 C6.11622348,24.941273 6.00722148,24.904939 5.89821947,24.8605308 C6.00318437,24.904939 5.85784836,24.8403453 5.82555147,24.8241968 C5.76903192,24.795937 5.71654947,24.7676773 5.66406702,24.7353804 C5.61158458,24.7030835 5.55910213,24.6707866 5.50661969,24.6384897 C5.48643413,24.6263784 5.37339502,24.5456361 5.41780324,24.577933 C5.46221146,24.6102299 5.33706102,24.5093021 5.31687546,24.4931537 C5.26439301,24.4487455 5.21191057,24.4003001 5.16346523,24.3478177 C5.12713123,24.3114837 5.09079723,24.2711126 5.05446323,24.2347786 C5.03427768,24.214593 4.9333499,24.0894426 4.9696839,24.1338508 C5.0060179,24.178259 4.92123856,24.0652199 4.90912723,24.0450344 C4.86875612,23.9885148 4.83242212,23.9279581 4.79608811,23.8674015 C4.76782834,23.8229932 4.74360567,23.7745479 4.719383,23.7261026 C4.70323456,23.6938057 4.63864078,23.5484697 4.683049,23.6534346 C4.63460367,23.5363583 4.59423255,23.4192821 4.56597278,23.2981688 C4.54982433,23.2376121 4.53367589,23.1770554 4.52156455,23.1124617 C4.51752744,23.088239 4.49330477,22.942903 4.501379,23.0034597 C4.50945322,23.0720906 4.501379,22.9832741 4.501379,22.9751999 C4.49734189,22.9388659 4.49330477,22.9025319 4.49330477,22.8661979 C4.48926766,22.8096783 4.48926766,22.7531588 4.48926766,22.6966392 C4.48926766,22.6360825 4.48926766,22.5755259 4.48926766,22.5149692 C4.48926766,22.2041116 4.48926766,21.8932541 4.48926766,21.5864336 C4.48926766,20.9041618 4.54175011,20.185556 4.34796877,19.5234698 C4.1784101,18.9421258 3.85947831,18.4173013 3.43961875,17.9853304 C3.28620852,17.8278831 3.12876119,17.6744729 2.97535096,17.5210626 C2.58375117,17.1294629 2.17196583,16.7499744 1.8005516,16.3381891 C1.78036604,16.3180035 1.67136404,16.1847788 1.7278836,16.2574468 C1.6915496,16.2130386 1.65925271,16.1645933 1.62695582,16.1161479 C1.55428781,16.0071459 1.48565692,15.8900697 1.42913737,15.7689564 C1.41298892,15.7366595 1.39684048,15.7003255 1.38069203,15.6680286 C1.38472914,15.6801399 1.41298892,15.7487708 1.38876626,15.684177 C1.3685807,15.6316946 1.34839514,15.5792122 1.3322467,15.5267297 C1.28783848,15.393505 1.2595787,15.2562433 1.23131892,15.1189815 C1.21113336,15.0019052 1.23131892,15.1795381 1.2232447,15.0584248 C1.21920758,14.993831 1.21517047,14.9292372 1.21113336,14.8646435 C1.20709625,14.7354559 1.21517047,14.6062683 1.22728181,14.4770808 C1.23535603,14.4044128 1.2232447,14.4891921 1.2232447,14.5013035 C1.22728181,14.4730437 1.23131892,14.4447839 1.23535603,14.4205612 C1.24746736,14.3559675 1.2595787,14.2913737 1.27572714,14.230817 C1.30802403,14.1016294 1.34839514,13.9805161 1.39684048,13.8553657 C1.36050648,13.9522563 1.42510026,13.794809 1.4412487,13.7665492 C1.46547137,13.7140668 1.49373115,13.6656214 1.52199093,13.6171761 C1.55428781,13.5606565 1.59062182,13.5000999 1.62695582,13.4476174 C1.64310426,13.4233948 1.65925271,13.3991721 1.67540115,13.3749494 C1.67943826,13.3668752 1.74806915,13.2780588 1.71577226,13.3184299 C1.74806915,13.2780588 1.86918249,13.1488712 1.94992471,13.068129 C2.13966894,12.8783848 2.32941317,12.6886405 2.51915739,12.4988963 C2.96727674,12.050777 3.45980431,11.6188061 3.83525565,11.1060929 C4.22281832,10.5731943 4.43274811,9.93129357 4.48119344,9.27728156 C4.49734189,9.05120333 4.48926766,8.8251251 4.48926766,8.59904687 C4.48926766,8.02577708 4.48523055,7.45250729 4.48926766,6.8792375 C4.48926766,6.81868083 4.48926766,6.75812416 4.49330477,6.69756749 C4.49330477,6.66930772 4.50945322,6.49974904 4.50541611,6.5562686 C4.49734189,6.62489949 4.50945322,6.53608305 4.50945322,6.52800882 C4.51752744,6.49167482 4.52156455,6.45534082 4.52963878,6.41900682 C4.55386144,6.30596771 4.58212122,6.19292859 4.62249233,6.07988948 C4.64267789,6.01933281 4.66286344,5.96281325 4.68708611,5.9062937 C4.64267789,6.01933281 4.72342011,5.83766281 4.73553145,5.80940303 C4.78801389,5.70847525 4.84453345,5.61158458 4.90912723,5.51469391 C4.92123856,5.49450835 5.00198079,5.38146924 4.9696839,5.42587746 C4.92931278,5.47835991 4.98179523,5.40972902 4.98583234,5.40569191 C5.01409212,5.37339502 5.0423519,5.33706102 5.07061168,5.30476413 C5.14731679,5.21998479 5.22805901,5.13924257 5.31283835,5.06657457 C5.35320946,5.03024056 5.39358057,4.99794368 5.43395169,4.96564679 C5.34109813,5.03831479 5.49450835,4.92527567 5.52276813,4.90509012 C5.6196588,4.84049634 5.71654947,4.78397678 5.81747725,4.73149434 C5.84977414,4.71534589 5.99914725,4.65075211 5.89014525,4.69516033 C5.94666481,4.67093767 6.00722148,4.65075211 6.06374103,4.63056656 C6.17274304,4.59423255 6.28578215,4.56193566 6.40285838,4.537713 C6.42708104,4.53367589 6.59663971,4.50541611 6.53608305,4.51349033 C6.46745215,4.52156455 6.5562686,4.51349033 6.56434282,4.51349033 C6.60875105,4.50945322 6.65719638,4.50541611 6.7016046,4.50541611 C6.90346017,4.49734189 7.10935284,4.501379 7.3112084,4.501379 C7.88044108,4.501379 8.44967376,4.50541611 9.01486933,4.501379 C10.0362585,4.49330477 10.9365343,4.06537099 11.6511029,3.3508023 C12.087111,2.91479429 12.523119,2.47878628 12.9631641,2.03874116 C13.0035352,1.99837005 13.0479434,1.95396182 13.0883145,1.91359071 C13.1246485,1.87725671 13.1609825,1.84495982 13.1973165,1.80862582 C13.2175021,1.78844027 13.3184299,1.70366093 13.2942072,1.72384649 C13.3386154,1.68751248 13.5122112,1.57447337 13.6171761,1.5139167 C13.6656214,1.48565692 13.7181039,1.46143426 13.7665492,1.43317448 C13.7907719,1.42106315 13.8190317,1.40895181 13.8432543,1.39684048 C13.9320708,1.35646937 13.7625121,1.42510026 13.8553657,1.39280337 C13.976479,1.34839514 14.1016294,1.30802403 14.230817,1.27572714 C14.2832995,1.26361581 14.339819,1.25150447 14.3963386,1.24343025 C14.412487,1.23939314 14.5295632,1.2232447 14.4528581,1.23131892 C14.3842272,1.23939314 14.4770808,1.23131892 14.4811179,1.22728181 C14.6103055,1.21920758 14.739493,1.21113336 14.8686806,1.21517047 C14.9332744,1.21920758 14.9978681,1.2232447 15.0624619,1.22728181 C15.1351299,1.23535603 15.0503506,1.2232447 15.0382392,1.2232447 C15.066499,1.22728181 15.0947588,1.23131892 15.1189815,1.23535603 C15.248169,1.2595787 15.3733195,1.28783848 15.4984699,1.32820959 C15.5590266,1.34839514 15.6236204,1.3685807 15.684177,1.39280337 C15.5872864,1.35646937 15.7447337,1.42106315 15.7729935,1.43721159 C15.8941068,1.49776826 16.0071459,1.56639915 16.1201851,1.63906715 C16.1444077,1.6552156 16.2493726,1.73192071 16.2211128,1.71173515 C16.2009273,1.69558671 16.3139664,1.79247738 16.3381891,1.81670004 C16.3745231,1.84899693 16.4068199,1.88129382 16.4391168,1.91762782 C16.4996735,1.97818449 16.5602302,2.03874116 16.624824,2.10333494 C17.0567949,2.53530584 17.4887658,2.96727674 17.9207367,3.39924764 C18.623194,4.10170499 19.5436554,4.48926766 20.5367847,4.49330477 C21.1342772,4.49330477 21.7317696,4.49330477 22.3332992,4.49330477 C22.4301899,4.49330477 22.5311177,4.49330477 22.6280083,4.49330477 C22.6441568,4.49330477 22.6562681,4.49330477 22.6724165,4.49330477 C22.7289361,4.49330477 22.7854557,4.49330477 22.8419752,4.49734189 C22.8783092,4.501379 23.0801648,4.52156455 22.9550143,4.50541611 C23.0720906,4.52156455 23.1851297,4.54578722 23.3022059,4.57808411 C23.3546883,4.59423255 23.4071708,4.60634389 23.4556161,4.62652944 C23.4798388,4.63460367 23.5080986,4.64267789 23.5323212,4.65478922 C23.5323212,4.65478922 23.6776572,4.71534589 23.6090263,4.683049 C23.5565439,4.65882633 23.6816943,4.719383 23.705917,4.73149434 C23.7624366,4.75975411 23.814919,4.78801389 23.8674015,4.82031078 C23.9118097,4.84857056 23.9562179,4.87279323 24.0006261,4.90509012 C24.0248488,4.92123856 24.1822961,5.03831479 24.0894426,4.96564679 C24.178259,5.03427768 24.2630384,5.11098279 24.3437806,5.19172501 C24.3881888,5.23613324 24.4285599,5.28054146 24.468931,5.32494968 C24.4931537,5.34917235 24.6102299,5.50258258 24.5375619,5.40569191 C24.6061928,5.49854546 24.6667495,5.59139902 24.723269,5.6923268 C24.7515288,5.73673503 24.7757515,5.78518036 24.7999741,5.8336257 C24.8120855,5.85784836 24.8241968,5.88207103 24.8363081,5.9062937 C24.9130133,6.05566681 24.8161226,5.84169992 24.8484195,5.93051636 C24.8887906,6.03951837 24.9291617,6.14852037 24.9574215,6.26155948 C24.9695328,6.31404193 24.9856813,6.36652437 24.9937555,6.41900682 C25.0018297,6.45130371 25.0260524,6.65315927 25.013941,6.52800882 C25.0260524,6.65719638 25.0341266,6.78638394 25.0341266,6.9155715 C25.0341266,7.52113818 25.0341266,8.12670486 25.0341266,8.73227154 C25.0341266,9.03505488 25.0422008,9.32572689 25.086609,9.62851023 C25.1834997,10.2784851 25.4862831,10.8800147 25.9061426,11.3765794 C26.2735197,11.8125874 26.7135649,12.2001501 27.117276,12.6038612 C27.2827975,12.7693828 27.4483191,12.9349043 27.6138407,13.1004259 C27.6542118,13.140797 27.6905458,13.177131 27.7268798,13.2175021 C27.7470653,13.2376877 27.8318447,13.3386154 27.8116591,13.3143928 C27.7753251,13.2699845 27.8318447,13.3426525 27.8358818,13.3466897 C27.8641416,13.3870608 27.8924013,13.4274319 27.916624,13.467803 C27.9852549,13.5727679 28.0458116,13.6777328 28.098294,13.7907719 C28.1104053,13.8190317 28.1628878,13.9441821 28.1265538,13.8513286 C28.1548136,13.9199594 28.1790362,13.9926274 28.1992218,14.0652954 C28.2355558,14.1823717 28.2638156,14.2994479 28.2840011,14.4165241 C28.2880382,14.4326726 28.3041867,14.5497488 28.2961125,14.4730437 C28.2880382,14.4044128 28.2961125,14.4972663 28.3001496,14.5013035 C28.3041867,14.557823 28.3082238,14.6103055 28.3122609,14.666825 C28.316298,14.7960126 28.3122609,14.9252001 28.3001496,15.0543877 C28.2920753,15.1714639 28.3122609,14.9978681 28.2920753,15.1149444 C28.279964,15.1795381 28.2678527,15.2441319 28.2517042,15.3046886 C28.2234445,15.4217648 28.1830733,15.538841 28.1467393,15.6518802 C28.1104053,15.756845 28.170962,15.6155462 28.1225167,15.7164739 C28.0942569,15.7770306 28.0659971,15.8375873 28.0337002,15.8941068 C27.9731436,16.0031088 27.9045127,16.1080737 27.8358818,16.2090015 C27.7753251,16.2937808 27.8560673,16.1928531 27.7874364,16.2695582 C27.7511024,16.3381891 27.69862,16.3947086 27.6421004,16.4512282 C27.4119851,16.6853806 27.407948,17.0729433 27.6421004,17.3070957 C27.8722158,17.5372111 28.2678527,17.5412482 28.497968,17.3070957 C29.3538356,16.4350797 29.7091014,15.2077979 29.4588005,14.012813 C29.2852047,13.1730939 28.7805658,12.5392674 28.1911476,11.9498492 C27.7793622,11.5380638 27.3675769,11.1343527 26.9598286,10.7185303 C26.6086,10.3632645 26.4027073,9.97570179 26.3017795,9.46702578 C26.2775569,9.33783822 26.2654455,9.20865066 26.2654455,9.01486933 C26.2654455,8.91797866 26.2654455,8.82108799 26.2654455,8.72419732 C26.2654455,8.11863064 26.2654455,7.50902685 26.2654455,6.90346017 C26.2614084,5.90225659 25.8576973,4.91316434 25.1067946,4.23492966 C24.3922259,3.59302897 23.5080986,3.29831986 22.5593774,3.29831986 C21.9336252,3.29831986 21.307873,3.29831986 20.6821207,3.29831986 C20.3026323,3.29831986 20.0886654,3.28620852 19.7212882,3.16105808 C19.3983194,3.05205607 19.0672762,2.82597785 18.7927527,2.55549139 C18.3527076,2.11544627 17.9126624,1.67540115 17.4726173,1.23535603 C17.2465391,1.0092778 17.0164237,0.795310908 16.7499744,0.613640904 C16.2534097,0.274523562 15.6761028,0.0928535578 15.0826475,0.0322968897 C14.0249243,-0.0767051129 12.9712383,0.347191564 12.2243727,1.09002003 C11.7964389,1.51795381 11.3685052,1.9458876 10.9405714,2.37382139 C10.8719405,2.44245228 10.8033096,2.51108317 10.7346787,2.57971406 C10.5974169,2.71293873 10.4964891,2.80175518 10.38345,2.87846029 C10.1089265,3.0601303 9.9434049,3.13683541 9.6527329,3.21354052 C9.59217623,3.22968897 9.52758245,3.24583741 9.46298867,3.25794874 C9.42261756,3.26602297 9.37820934,3.27409719 9.33380111,3.28217141 C9.34994956,3.2781343 9.40646911,3.27409719 9.33380111,3.28217141 C9.23287333,3.29024563 9.13194555,3.29428275 9.03101777,3.29831986 C8.45371087,3.30235697 7.87236686,3.29831986 7.29102284,3.29831986 C6.47552638,3.29831986 5.69636391,3.38309919 4.98583234,3.82718142 C4.01288854,4.43274811 3.40328475,5.45413724 3.29831986,6.5926026 C3.24583741,7.17394662 3.28620852,7.77143907 3.28620852,8.35278309 C3.28620852,8.58289843 3.28620852,8.81301377 3.28620852,9.04312911 C3.28620852,9.12387133 3.28217141,9.20057644 3.2781343,9.28131867 C3.27409719,9.31361556 3.27409719,9.34591245 3.27006008,9.37820934 C3.2781343,9.29343 3.26602297,9.39839489 3.26602297,9.41050623 C3.24987452,9.49528556 3.23372608,9.5800649 3.20950341,9.66080712 C3.19335497,9.72136379 3.17316941,9.78595757 3.15298385,9.84651424 C3.14087252,9.88688535 3.12472407,9.92725646 3.10857563,9.96762757 C3.11261274,9.95551624 3.13683541,9.9070709 3.10857563,9.97166468 C3.04398185,10.1170007 2.96323963,10.2582996 2.87442318,10.3955614 C2.80175518,10.5045634 2.78156962,10.5328231 2.66853051,10.6539365 C2.64027073,10.6862334 2.61201095,10.7144931 2.57971406,10.7427529 C2.51512028,10.8113838 2.44648939,10.8759776 2.3778585,10.9446085 C2.13159472,11.1868352 1.88936805,11.4330989 1.64310426,11.6753256 C1.11424269,12.2041872 0.585381125,12.704789 0.286634896,13.4153205 C-0.161484448,14.485155 -0.0605566681,15.7689564 0.585381125,16.7419002 C0.948721134,17.2909473 1.47354559,17.7390666 1.93781338,18.2033344 C2.13966894,18.40519 2.33748739,18.6030084 2.53934295,18.804864 C2.6281594,18.8936805 2.71293873,18.9824969 2.79368096,19.0793876 C2.86231185,19.1601298 2.75734695,19.022868 2.81790362,19.1116845 C2.83808918,19.1399442 2.85423762,19.1641669 2.87442318,19.1924267 C2.91479429,19.2570205 2.9551654,19.3175771 2.9914994,19.386208 C3.02379629,19.4427276 3.05205607,19.4992471 3.08031585,19.5557667 C3.12876119,19.6566945 3.10453852,19.6001749 3.14087252,19.7091769 C3.27409719,20.0886654 3.28620852,20.3066694 3.28620852,20.6901949 C3.28620852,21.0091267 3.28620852,21.3240214 3.28620852,21.6429532 C3.28620852,22.3050394 3.23776319,22.9913483 3.40732186,23.6372861 C3.69799387,24.7434546 4.52560166,25.6275819 5.57928769,26.0474415 C6.24944815,26.3138909 6.94786839,26.2856311 7.65436285,26.2856311 C8.00155441,26.2856311 8.35278309,26.2856311 8.69997465,26.2856311 C8.80090243,26.2856311 8.90183021,26.2856311 9.00275799,26.2856311 C9.01486933,26.2856311 9.02698066,26.2856311 9.04312911,26.2856311 C9.11983422,26.2856311 9.19653933,26.2896682 9.27324444,26.2937053 C9.30554133,26.2977424 9.33783822,26.2977424 9.37013511,26.3017795 C9.28535578,26.2937053 9.41858045,26.3098537 9.43472889,26.3138909 C9.95551624,26.4107815 10.3592274,26.6247484 10.7185303,26.9800142 C10.8759776,27.1334244 11.0293878,27.2908718 11.182798,27.444282 C11.6066947,27.8681787 12.0104058,28.3324465 12.4706365,28.7119349 C13.6010277,29.6485447 15.1835753,29.8261776 16.4875622,29.1317945 C17.1254257,28.7926771 17.6179533,28.207296 18.1225922,27.7026571 C18.3365591,27.4886902 18.5545631,27.2706862 18.76853,27.0567193 C19.0349793,26.79027 19.2893174,26.5924515 19.6203605,26.4551897 C19.9554407,26.317928 20.2541869,26.281594 20.6296383,26.281594 C20.9324216,26.281594 21.2311678,26.281594 21.5339512,26.281594 C22.1920003,26.281594 22.8783092,26.3340764 23.524247,26.1887404 C24.5738959,25.9505508 25.5064686,25.1915739 25.9465137,24.2105559 C26.1604806,23.7301397 26.2735197,23.2295379 26.2775569,22.7006763 C26.2775569,22.4665239 26.2775569,22.2283343 26.2775569,21.9941819 C26.2775569,21.4047636 26.2291115,20.7911227 26.2937053,20.2057416 C26.2856311,20.2905209 26.2977424,20.185556 26.2977424,20.1734447 C26.3058166,20.1411478 26.3098537,20.1088509 26.317928,20.076554 C26.3340764,20.003886 26.3502249,19.931218 26.3744475,19.85855 C26.390596,19.7979934 26.4148186,19.7374367 26.4350042,19.67688 C26.4713382,19.5638409 26.4592269,19.6163234 26.4471155,19.640546 C26.463264,19.6001749 26.4834495,19.5638409 26.499598,19.5234698 C26.5682289,19.386208 26.644934,19.2610576 26.7297133,19.1359071 C26.7781586,19.059202 26.7337504,19.1197587 26.7943071,19.0511278 C26.8508266,18.986534 26.9113833,18.9219402 26.97194,18.8573465 C27.1092018,18.7160476 27.2505007,18.5787858 27.3877624,18.441524 C27.7632138,18.0660727 28.1386651,17.6906213 28.5141165,17.31517 C28.7442318,17.0850546 28.7442318,16.6894177 28.5141165,16.4593024 C28.2678527,16.2211128 27.8762529,16.2211128 27.6421004,16.4512282 Z" id="Path"></path>
                                <path d="M12.5352303,28.279964 C12.2082243,29.1237203 11.8812183,29.9715136 11.5542123,30.8152698 C11.0334249,32.163665 10.5126376,33.5120601 9.99185024,34.8604553 C9.8707369,35.1713128 9.75366068,35.4821704 9.63254734,35.793028 C9.97166468,35.7042115 10.3067449,35.6153951 10.6458623,35.5265786 C9.95147913,34.6747482 9.257096,33.8188806 8.56271287,32.9670501 C8.47793354,32.8620852 8.39719131,32.7409719 8.30030064,32.6440812 C8.06614819,32.4018546 7.75125352,32.4825968 7.46461862,32.5229679 C6.83482927,32.6198586 6.20503993,32.7127121 5.57928769,32.8096028 C5.06657457,32.8863079 4.55386144,32.9670501 4.03711121,33.0437552 C4.2874121,33.2940561 4.53367589,33.5403199 4.78397678,33.7906208 C5.13116835,32.8943821 5.4743228,31.9981434 5.82151436,31.1019047 C6.3745986,29.6727674 6.92364572,28.24363 7.47672996,26.8144926 C7.60591752,26.4834495 7.73106796,26.1564435 7.86025552,25.8254004 C7.66647418,25.9747735 7.47269285,26.1201095 7.2748744,26.2694826 C7.62206596,26.2694826 7.96925752,26.2694826 8.31644909,26.2694826 C8.52234176,26.2694826 8.72419732,26.2694826 8.93008999,26.2694826 C8.96642399,26.2694826 9.00275799,26.2694826 9.03505488,26.2694826 C9.09964866,26.2694826 9.16827955,26.2735197 9.23287333,26.2775569 C9.27728156,26.281594 9.31765267,26.2856311 9.36206089,26.2896682 C9.26517022,26.2775569 9.438766,26.3058166 9.45491445,26.3058166 C9.86669979,26.3865589 10.1331491,26.499598 10.4803407,26.7579731 C10.4278582,26.717602 10.5933798,26.8548638 10.6095283,26.8710122 C10.6418251,26.9033091 10.674122,26.935606 10.7064189,26.9638658 C10.7346787,26.9921255 10.7629385,27.0203853 10.7911983,27.0486451 C11.0939816,27.3514284 11.3927278,27.6501747 11.6955112,27.952958 C12.050777,28.3082238 12.3898943,28.6715638 12.8057168,28.9581987 C13.0762032,29.1439058 13.4799143,29.006644 13.6333245,28.7401947 C13.8109574,28.4374113 13.685807,28.098294 13.4153205,27.9125869 C13.140797,27.7228427 12.8622363,27.4119851 12.6038612,27.1495729 C12.2889665,26.8346782 11.9740718,26.5197835 11.6591772,26.2048888 C11.2029836,25.7486953 10.674122,25.3934295 10.0524069,25.2036853 C9.55584223,25.0543122 9.04716622,25.0543122 8.53445309,25.0543122 C8.11055642,25.0543122 7.68665974,25.0543122 7.26276306,25.0543122 C6.97612817,25.0543122 6.77830972,25.2480935 6.67738194,25.4983944 C6.33019037,26.3946331 5.98703592,27.2908718 5.63984436,28.1871105 C5.08676012,29.6162478 4.537713,31.0453852 3.98462876,32.4745226 C3.8554412,32.8055657 3.73029076,33.1325717 3.6011032,33.4636148 C3.52439808,33.6614333 3.61725164,33.9117341 3.75855053,34.053033 C3.92407209,34.2185546 4.12592765,34.2427773 4.34796877,34.2104804 C5.41780324,34.0489959 6.48763771,33.8875115 7.55747218,33.726027 C7.71491952,33.7018044 7.86832974,33.6775817 8.02577708,33.653359 C7.82795863,33.6008766 7.63417729,33.5483941 7.43635884,33.4959117 C8.11863064,34.3356308 8.80090243,35.17535 9.48317423,36.011032 C9.58410201,36.1321453 9.68099268,36.2532586 9.78192046,36.3784091 C9.91514513,36.5398935 10.1775574,36.5883389 10.3713387,36.5358564 C10.5893427,36.4752998 10.7144931,36.3138153 10.7952354,36.1119598 C11.1222414,35.2682035 11.4492474,34.4204102 11.7762534,33.5766539 C12.2970407,32.2282588 12.8178281,30.8798636 13.3386154,29.5314685 C13.4597288,29.2206109 13.576805,28.9097534 13.6979183,28.5988958 C13.8109574,28.3041867 13.5727679,27.9206611 13.2740217,27.8520302 C12.9308672,27.7793622 12.6563436,27.9650693 12.5352303,28.279964 Z" id="Path"></path>
                                <path d="M25.5145428,33.0477923 C24.4285599,32.8822708 23.3385399,32.7167492 22.252557,32.5552648 C22.1152952,32.5350792 21.9780334,32.5108566 21.8407716,32.4947081 C21.453209,32.4381886 21.2957616,32.5956359 21.0939061,32.8459368 C20.6942321,33.3384644 20.2905209,33.8309919 19.8908469,34.3275566 C19.5638409,34.7312677 19.2368349,35.1349788 18.9057918,35.5346529 C19.2449091,35.6234693 19.5799894,35.7122857 19.9191067,35.8011022 C19.5921007,34.9573459 19.2650947,34.1095526 18.9380887,33.2657964 C18.4173013,31.9174012 17.896514,30.5690061 17.3757266,29.2206109 C17.2546133,28.9097534 17.1375371,28.5988958 17.0164237,28.2880382 C16.9235702,28.5141165 16.8307166,28.7442318 16.7378631,28.97031 C17.1052402,28.715972 17.4039864,28.4091516 17.7188811,28.0942569 C18.0378129,27.7753251 18.3567447,27.4563933 18.6716393,27.1414986 C18.7604558,27.0526822 18.8452351,26.9638658 18.9380887,26.8790864 C19.0793876,26.7498989 19.1237958,26.717602 19.3095029,26.6086 C19.5073214,26.4915237 19.6001749,26.4511526 19.7818449,26.3946331 C19.8746985,26.3663733 19.967552,26.3421506 20.0604056,26.3219651 C20.112888,26.3098537 20.1653705,26.3017795 20.2178529,26.2937053 C20.1895931,26.2977424 20.1249994,26.3017795 20.2501498,26.2937053 C20.3470405,26.2856311 20.4479683,26.281594 20.5448589,26.281594 C20.7103805,26.281594 20.8759021,26.281594 21.0414236,26.281594 C21.453209,26.281594 21.8649943,26.281594 22.2767796,26.281594 C22.0829983,26.1322208 21.889217,25.9868848 21.6913985,25.8375117 C22.0385901,26.7337504 22.3817445,27.6299891 22.7289361,28.5262278 C23.2820203,29.9553652 23.8310675,31.3845025 24.3841517,32.8136399 C24.5133393,33.144683 24.6384897,33.471689 24.7676773,33.8027321 C24.8847535,34.1095526 25.1754255,34.3194824 25.5145428,34.2266288 C25.8052148,34.1458866 26.0555157,33.7865837 25.9384395,33.4797632 C25.5912479,32.5835246 25.2480935,31.6872859 24.9009019,30.7910472 C24.3478177,29.3619098 23.7987706,27.9327724 23.2456863,26.5036351 C23.1164988,26.172592 22.9913483,25.845586 22.8621608,25.5145428 C22.7652701,25.2602048 22.5634145,25.0704606 22.2767796,25.0704606 C21.9174767,25.0704606 21.5541367,25.0704606 21.1948338,25.0704606 C20.7144176,25.0704606 20.2420756,25.0543122 19.7697336,25.1512028 C19.0713133,25.2925017 18.441524,25.6639159 17.9409222,26.1645177 C17.6502502,26.4511526 17.3636153,26.7418246 17.0769804,27.0284595 C16.7741971,27.3312429 16.4512282,27.7066942 16.1282593,27.9287353 C15.9264037,28.0700342 15.7487708,28.352632 15.8496986,28.6110071 C16.1767046,29.4547634 16.5037106,30.3025567 16.8307166,31.146313 C17.351504,32.4947081 17.8722913,33.8431033 18.3930787,35.1914984 C18.514192,35.502356 18.6312682,35.8132135 18.7523816,36.1240711 C18.8290867,36.3259266 18.9542371,36.4874111 19.1762782,36.5479678 C19.3660225,36.6004502 19.6324718,36.556042 19.7656965,36.3905204 C20.4479683,35.5508013 21.1302401,34.7110822 21.8125119,33.8754001 C21.9134396,33.7542868 22.0103303,33.6331735 22.1112581,33.508023 C21.9134396,33.5605055 21.7196583,33.6129879 21.5218398,33.6654704 C22.5916743,33.8269548 23.6615088,33.9884393 24.7313433,34.1499237 C24.8887906,34.1741464 25.0422008,34.198369 25.1996482,34.2225917 C25.5105057,34.271037 25.8657715,34.1458866 25.9465137,33.798695 C26.0030333,33.5039859 25.8496231,33.0962377 25.5145428,33.0477923 Z" id="Path"></path>
                            </g>
                        </g>
                    </g>
                </g>
            </g>
        </g>
    </g>
</svg>