<?xml version="1.0" encoding="UTF-8"?>
<svg width="37px" height="37px" viewBox="0 0 37 37" version="1.1" xmlns="http://www.w3.org/2000/svg" xmlns:xlink="http://www.w3.org/1999/xlink">
    <title>Reliability</title>
    <defs>
        <path d="M0.894547237,30.8238169 C0.894547237,33.7408644 3.25922362,36.1054528 6.17618307,36.1054528 L30.8238169,36.1054528 C33.7408644,36.1054528 36.1054528,33.7408644 36.1054528,30.8238169 L36.1054528,6.17618307 C36.1054528,3.25922362 33.7408644,0.894547237 30.8238169,0.894547237 L6.17618307,0.894547237 C3.25922362,0.894547237 0.894547237,3.25922362 0.894547237,6.17618307 L0.894547237,30.8238169 Z M32.5843622,30.8238169 C32.5843622,31.7961661 31.7961661,32.5843622 30.8238169,32.5843622 L6.17618307,32.5843622 C5.20386912,32.5843622 4.41563779,31.7961661 4.41563779,30.8238169 L4.41563779,6.17618307 C4.41563779,5.20386912 5.20386912,4.41563779 6.17618307,4.41563779 L14.9789094,4.41563779 L14.9789094,18.5195421 L19.1954154,18.5197181 L22.0212666,14.7398098 L24.8469418,18.5197181 L29.0634477,18.5197181 L29.0632717,4.41563779 L30.8238169,4.41563779 C31.7961661,4.41563779 32.5843622,5.20386912 32.5843622,6.17618307 L32.5843622,30.8238169 Z M25.5421811,4.41563779 L18.5,4.41563779 L18.5,13.8096433 L22.0212666,9.09949808 L25.5421811,13.8093968 L25.5421811,4.41563779 Z" id="path-1"></path>
    </defs>
    <g id="Page-1" stroke="none" stroke-width="1" fill="none" fill-rule="evenodd">
        <g id="About" transform="translate(-507.000000, -1904.000000)">
            <g id="Values" transform="translate(0.000000, 1271.000000)">
                <g id="4" transform="translate(353.000000, 584.000000)">
                    <g id="Group" transform="translate(134.000000, 29.000000)">
                        <g id="Reliability" transform="translate(20.000000, 20.000000)">
                            <mask id="mask-2" fill="white">
                                <use xlink:href="#path-1"></use>
                            </mask>
                            <use id="album" fill="#FFFFFF" fill-rule="nonzero" xlink:href="#path-1"></use>
                        </g>
                    </g>
                </g>
            </g>
        </g>
    </g>
</svg>