<?xml version="1.0" encoding="UTF-8"?>
<svg width="38px" height="38px" viewBox="0 0 38 38" version="1.1" xmlns="http://www.w3.org/2000/svg" xmlns:xlink="http://www.w3.org/1999/xlink">
    <title>Simplicity</title>
    <g id="Page-1" stroke="none" stroke-width="1" fill="none" fill-rule="evenodd">
        <g id="About" transform="translate(-701.000000, -1553.000000)" fill="#FFFFFF" fill-rule="nonzero" stroke="#FFFFFF">
            <g id="Values" transform="translate(0.000000, 1271.000000)">
                <g id="2" transform="translate(548.000000, 234.000000)">
                    <g id="Group" transform="translate(134.000000, 29.000000)">
                        <g id="Simplicity" transform="translate(20.500000, 20.000000)">
                            <path d="M26.8351648,17.7442666 L8.06999522,17.7442666 C7.82692308,17.7442666 7.58385093,17.5984233 7.43800764,17.3553512 C7.29216436,17.112279 7.29216436,16.8692069 7.43800764,16.6261347 L16.8205925,0.388915432 C16.9664357,0.145843287 17.2095079,0.048614429 17.45258,0.048614429 C17.6956522,0.048614429 17.9387243,0.194457716 18.0845676,0.388915432 L27.4671524,16.6261347 C27.6129957,16.8692069 27.6129957,17.112279 27.4671524,17.3553512 C27.3213091,17.5984233 27.078237,17.7442666 26.8351648,17.7442666 Z M9.33397038,16.2858337 L25.5711897,16.2858337 L17.45258,2.23626374 L9.33397038,16.2858337 Z" id="Shape"></path>
                            <path d="M33.9240325,36.2000717 L19.2910893,36.2000717 C18.9021739,36.2000717 18.5618729,35.8597707 18.5618729,35.4708552 L18.5618729,20.8379121 C18.5618729,20.4489967 18.9021739,20.1086957 19.2910893,20.1086957 L33.9240325,20.1086957 C34.3129479,20.1086957 34.6532489,20.4489967 34.6532489,20.8379121 L34.6532489,35.4708552 C34.6532489,35.8597707 34.3129479,36.2000717 33.9240325,36.2000717 Z M20.0203058,34.7416388 L33.1948161,34.7416388 L33.1948161,21.5671285 L20.0203058,21.5671285 L20.0203058,34.7416388 Z" id="Shape"></path>
                            <path d="M8.06999522,36.4519828 C3.64608218,36.4519828 0.048614429,32.8545151 0.048614429,28.430602 C0.048614429,24.006689 3.64608218,20.4092212 8.06999522,20.4092212 C12.4939083,20.4092212 16.091376,24.006689 16.091376,28.430602 C16.091376,32.8545151 12.4939083,36.4519828 8.06999522,36.4519828 Z M8.06999522,21.8676541 C4.47252747,21.8676541 1.5070473,24.8331343 1.5070473,28.430602 C1.5070473,32.0280698 4.47252747,34.9935499 8.06999522,34.9935499 C11.667463,34.9935499 14.6329431,32.0280698 14.6329431,28.430602 C14.6329431,24.8331343 11.667463,21.8676541 8.06999522,21.8676541 Z" id="Shape"></path>
                        </g>
                    </g>
                </g>
            </g>
        </g>
    </g>
</svg>