<?xml version="1.0" encoding="UTF-8"?>
<svg width="61px" height="47px" viewBox="0 0 61 47" version="1.1" xmlns="http://www.w3.org/2000/svg" xmlns:xlink="http://www.w3.org/1999/xlink">
    <title>Access Desk Space</title>
    <g id="Page-1" stroke="none" stroke-width="1" fill="none" fill-rule="evenodd">
        <g id="NFORMACY" transform="translate(-358.000000, -2867.000000)" fill="#ED7D31" fill-rule="nonzero">
            <g id="How-we-work." transform="translate(100.000000, 2642.000000)">
                <g id="2" transform="translate(198.600000, 225.000000)">
                    <g id="login" transform="translate(60.000000, 0.000000)">
                        <path d="M56.8359375,0.11625 L3.1640625,0.11625 C1.4170901,0.118317349 0.00154980395,1.53427707 0,3.28125 L0,43.3725 C0.0018082936,44.9835589 1.30737859,46.2891292 2.9184375,46.2909375 L57.0815625,46.2909375 C58.692987,46.2891283 59.9987084,44.9829875 60,43.3715625 L60,3.28125 C59.9984502,1.53427707 58.5829099,0.118317349 56.8359375,0.11625 Z M1.640625,3.28125 C1.6416581,2.440307 2.3231195,1.7588456 3.1640625,1.7578125 L56.8359375,1.7578125 C57.6768805,1.7588456 58.3583419,2.440307 58.359375,3.28125 L58.359375,8.96390625 L1.640625,8.96390625 L1.640625,3.28125 Z M58.359375,43.3725 C58.3586,44.0778951 57.7869576,44.6495375 57.0815625,44.6503125 L2.9184375,44.6503125 C2.21267671,44.6495367 1.640625,44.0773237 1.640625,43.3715625 L1.640625,10.6059375 L58.359375,10.6059375 L58.359375,43.3725 Z" id="Shape"></path>
                        <path d="M55.4296875,4.5403125 L23.2907812,4.5403125 C22.8377352,4.5403125 22.4704687,4.90757892 22.4704687,5.360625 C22.4704687,5.81367108 22.8377352,6.1809375 23.2907812,6.1809375 L55.4296875,6.1809375 C55.8827336,6.1809375 56.25,5.81367108 56.25,5.360625 C56.25,4.90757892 55.8827336,4.5403125 55.4296875,4.5403125 Z" id="Path"></path>
                        <path d="M6.73921875,4.5403125 L4.5703125,4.5403125 C4.11726642,4.5403125 3.75,4.90757892 3.75,5.360625 C3.75,5.81367108 4.11726642,6.1809375 4.5703125,6.1809375 L6.73921875,6.1809375 C7.19226483,6.1809375 7.55953125,5.81367108 7.55953125,5.360625 C7.55953125,4.90757892 7.19226483,4.5403125 6.73921875,4.5403125 L6.73921875,4.5403125 Z" id="Path"></path>
                        <path d="M12.9796875,4.5403125 L10.8103125,4.5403125 C10.3572664,4.5403125 9.99,4.90757892 9.99,5.360625 C9.99,5.81367108 10.3572664,6.1809375 10.8103125,6.1809375 L12.9796875,6.1809375 C13.4327336,6.1809375 13.8,5.81367108 13.8,5.360625 C13.8,4.90757892 13.4327336,4.5403125 12.9796875,4.5403125 L12.9796875,4.5403125 Z" id="Path"></path>
                        <path d="M19.21875,4.5403125 L17.0507812,4.5403125 C16.5977352,4.5403125 16.2304687,4.90757892 16.2304687,5.360625 C16.2304687,5.81367108 16.5977352,6.1809375 17.0507812,6.1809375 L19.21875,6.1809375 C19.6717961,6.1809375 20.0390625,5.81367108 20.0390625,5.360625 C20.0390625,4.90757892 19.6717961,4.5403125 19.21875,4.5403125 Z" id="Path"></path>
                        <path d="M23.743125,28.9490625 C25.4058456,30.6006529 27.6564267,31.5242882 30,31.5169193 C34.9107205,31.4626416 38.8784776,27.4950927 38.9329787,22.584375 C38.9390042,18.5287998 36.2122394,14.9780672 32.2924828,13.9372814 C28.3727262,12.8964956 24.2437085,14.6268599 22.2370923,18.1512348 C20.2304762,21.6756098 20.8498567,26.1094925 23.7454687,28.9490625 L23.743125,28.9490625 Z M28.8609375,24.1434375 C28.1846153,23.6502346 27.9024389,22.7778576 28.1618054,21.9819997 C28.421172,21.1861418 29.1631795,20.6475418 30.0002344,20.6475418 C30.8372892,20.6475418 31.5792968,21.1861418 31.8386633,21.9819997 C32.0980299,22.7778576 31.8158535,23.6502346 31.1395312,24.1434375 C30.8536385,24.3531807 30.7348685,24.722872 30.8451077,25.0598797 C30.9553468,25.3968875 31.2696389,25.6249191 31.6242187,25.6251563 L31.8042187,25.6251563 C33.0974293,25.6195287 34.2394555,26.4673619 34.6082812,27.706875 L34.7334375,28.1207813 C32.0114992,30.4624015 27.9866258,30.4624015 25.2646875,28.1207813 L25.3898437,27.706875 C25.7588529,26.467289 26.9010425,25.6194762 28.194375,25.6251563 L28.3739062,25.6251563 C28.7285724,25.6251216 29.0430506,25.3971606 29.1534129,25.0601023 C29.2637753,24.7230441 29.1450248,24.3532318 28.8590625,24.1434375 L28.8609375,24.1434375 Z M30,15.2920255 C32.7124605,15.2886994 35.2020928,16.7928547 36.4609298,19.1955162 C37.7197669,21.5981777 37.5392638,24.5013089 35.9925,26.7295313 C35.4715036,25.5163072 34.4471602,24.5907349 33.1875,24.195 C33.9502971,22.6913974 33.5586097,20.8592145 32.2477006,19.7989326 C30.9367915,18.7386507 29.0632085,18.7386507 27.7522994,19.7989326 C26.4413903,20.8592145 26.0497029,22.6913974 26.8125,24.195 C25.5527566,24.590513 24.5282403,25.5159157 24.0070312,26.7290625 C22.4604857,24.5007821 22.2801731,21.5977317 23.5390923,19.1951999 C24.7980115,16.792668 27.2876163,15.288646 30,15.2920255 L30,15.2920255 Z" id="Shape"></path>
                        <path d="M18.9257812,41.6025 L41.0742187,41.6025 C42.5621562,41.6009498 43.767981,40.3951249 43.7695312,38.9071875 L43.7695312,36.9726563 C43.767981,35.4847188 42.5621562,34.278894 41.0742187,34.2773438 L18.9257812,34.2773438 C17.4379508,34.2791517 16.2322767,35.4848258 16.2304687,36.9726563 L16.2304687,38.90625 C16.2317602,40.3944466 17.4375852,41.600691 18.9257812,41.6025 Z M41.0742187,35.9179688 C41.6563854,35.9187434 42.1281316,36.3904896 42.1289062,36.9726563 L42.1289062,38.90625 C42.1281316,39.4884166 41.6563854,39.9601628 41.0742187,39.9609375 L37.1484375,39.9609375 L37.1484375,35.9179688 L41.0742187,35.9179688 Z M17.8710937,36.9726563 C17.8718684,36.3904896 18.3436146,35.9187434 18.9257812,35.9179688 L35.5078125,35.9179688 L35.5078125,39.961875 L18.9257812,39.961875 C18.3436146,39.9611003 17.8718684,39.4893541 17.8710937,38.9071875 L17.8710937,36.9726563 Z" id="Shape"></path>
                    </g>
                </g>
            </g>
        </g>
    </g>
</svg>