<?xml version="1.0" encoding="UTF-8"?>
<svg width="61px" height="60px" viewBox="0 0 61 60" version="1.1" xmlns="http://www.w3.org/2000/svg" xmlns:xlink="http://www.w3.org/1999/xlink">
    <title>Ask Questions</title>
    <g id="Page-1" stroke="none" stroke-width="1" fill="none" fill-rule="evenodd">
        <g id="NFORMACY" transform="translate(-577.000000, -2861.000000)" fill="#ED7D31" fill-rule="nonzero">
            <g id="How-we-work." transform="translate(100.000000, 2642.000000)">
                <g id="3" transform="translate(418.200000, 219.000000)">
                    <g id="Ask-Questions" transform="translate(59.000000, 0.000000)">
                        <path d="M25.3749609,8.65535156 C20.3874609,10.6290234 17.1139453,15.4935937 17.1121875,20.8236328 C17.1121875,22.7586328 18.6775781,24.3372656 20.6282813,24.3372656 C22.5758203,24.3372656 24.144375,22.7615625 24.144375,20.8236328 C24.1490625,17.49 26.8321875,14.7759375 30.1919531,14.7734766 C33.4891406,14.7734766 36.2478516,17.5529297 36.2478516,20.8177734 C36.2466797,23.3472656 34.7218359,25.5663281 32.3661328,26.4730078 C30.6760547,27.1209375 29.24625,28.2375 28.2311719,29.7043359 C26.3748047,32.3841797 26.6805469,34.6451953 26.6805469,38.1574219 C26.6805469,38.4362109 26.7133594,38.7139453 26.7778125,38.9845312 C26.8739062,39.3805078 27.2255859,39.6570703 27.6322266,39.6570703 C28.2057422,39.6570703 28.6201172,39.1203516 28.4878125,38.5721484 C28.4190234,38.2873828 28.4374219,38.4883594 28.4374219,34.6906641 C28.4421094,31.7616797 30.230625,29.180625 32.9966016,28.1132812 C38.2174219,26.1134766 39.7536328,19.36875 35.7028125,15.3194531 C30.7695703,10.3917187 22.3787109,13.9030078 22.3864453,20.8235156 C22.3841016,21.7900781 21.5964844,22.5786328 20.6283984,22.5808594 C19.6603125,22.5785156 18.8715234,21.7900781 18.8703516,20.8235156 C18.8678906,14.4883594 24.1927734,9.09351562 30.9152344,9.52335937 C36.7474219,9.88605469 41.5219922,14.7800391 41.5219922,20.8245703 C41.5208203,25.5485156 38.6692969,29.6982422 34.2589453,31.3947656 C33.5791406,31.6536328 33.0014063,32.1011719 32.5876172,32.6881641 C31.7907422,33.8245312 31.9546875,34.4842969 31.9546875,38.1571875 C31.9523438,39.12375 31.1635547,39.9121875 30.1966406,39.9134766 C29.7114844,39.9134766 29.3176172,40.3081641 29.3176172,40.7921484 C29.3176172,42.6373828 33.7086328,41.5133203 33.7127344,38.1571875 L33.7127344,34.6904297 C33.7149609,33.9525 34.16625,33.3175781 34.8894141,33.0352734 C39.9998437,31.0722656 43.2846094,26.2134375 43.2799269,20.8248047 C43.2799269,11.6457422 33.9520312,5.2509375 25.3749609,8.65535156 Z" id="Path"></path>
                        <path d="M33.1954687,46.9296094 C31.8254297,44.6602734 28.6647656,44.7073828 27.27,46.8063281 C25.7383594,49.1121094 27.3448828,52.2633984 30.2247656,52.2633984 C32.8782422,52.2633984 34.64625,49.3328906 33.1954687,46.9296094 Z M29.7766406,50.4507422 C29.0950781,50.2826953 28.6079297,49.7759766 28.4735156,49.0952344 C28.1135156,47.1521484 30.6815625,46.1666016 31.6903125,47.8376953 C32.5081641,49.1925 31.3123828,50.8294922 29.7766406,50.4507422 Z" id="Shape"></path>
                        <path d="M45.0448828,4.04636719 C29.4326953,-5.01199219 9.37277344,1.73648438 2.35886719,18.3292969 C-0.495351563,25.0702734 -0.733125,32.6200781 1.50328125,39.3982031 C3.05894531,44.1126563 5.61503906,47.5427344 5.8209375,47.7248437 L5.82445313,47.7201562 L5.82210937,47.7260156 C5.82445313,47.7283594 5.82679687,47.7295312 5.8303125,47.7330469 C5.83148437,47.7330469 5.83148437,47.7343359 5.83265625,47.7355078 C5.83382813,47.7355078 5.83382813,47.7366797 5.835,47.7378516 C6.16546875,48.0152344 6.44566406,47.9358984 6.56285156,47.9358984 L6.56519531,47.9347266 C6.57632812,47.9347266 6.65625,47.9167969 6.73160156,47.8866797 C6.73277344,47.8866797 6.73394531,47.8866797 6.73394531,47.8866797 C6.73394531,47.8866797 6.75363281,47.8774219 6.75386719,47.8773047 L6.75621094,47.8773047 C7.32445313,47.6333203 7.42488281,46.9122656 7.11714844,46.5521484 C-6.44707031,27.8332031 7.1109375,1.76882813 30.0044531,1.76882813 C45.8044922,1.76882813 58.2500391,14.6539453 58.2500391,30.0043359 C58.2500391,45.6073828 45.6162891,58.2398437 30.0044531,58.2398437 C24.013125,58.2398437 18.2878125,56.3862891 13.4485547,52.8809766 C13.1790234,52.6852734 12.8075391,52.6607813 12.5144531,52.8200391 L2.64832031,58.1601562 C2.17921875,58.4110547 1.75582031,58.0014844 1.75875,57.6411328 C1.76121094,57.4306641 1.54558594,57.8914453 5.50570312,50.5787109 C5.82410156,49.9923047 5.39390625,49.2817969 4.73449219,49.2817969 C4.41105469,49.2817969 4.11445312,49.4586328 3.96105469,49.7422266 C-0.0254296875,57.1010156 -0.001640625,56.8543359 0.0008203125,57.6411328 C0.003984375,59.3636719 1.87007812,60.5814844 3.48527344,59.7066797 L12.8696484,54.6254297 C23.0148047,61.6991016 36.5255859,61.7985938 46.7796094,54.8749219 C65.1378516,42.4791797 64.2065625,15.1614844 45.0448828,4.04636719 Z" id="Path"></path>
                    </g>
                </g>
            </g>
        </g>
    </g>
</svg>