<?xml version="1.0" encoding="UTF-8"?>
<svg width="56px" height="69px" viewBox="0 0 56 69" version="1.1" xmlns="http://www.w3.org/2000/svg" xmlns:xlink="http://www.w3.org/1999/xlink">
    <title>Choose your Services</title>
    <g id="Page-1" stroke="none" stroke-width="1" fill="none" fill-rule="evenodd">
        <g id="NFORMACY" transform="translate(-800.000000, -2856.000000)" fill="#ED7D31" fill-rule="nonzero">
            <g id="How-we-work." transform="translate(100.000000, 2642.000000)">
                <g id="4" transform="translate(634.800000, 214.000000)">
                    <g id="Choose-your-Services" transform="translate(66.000000, 0.000000)">
                        <path d="M51.7,0 L36.3,0 C34.4806,0 33,1.4806 33,3.3 L33,5.5 C30.5734,5.5 28.6,7.4734 28.6,9.9 C28.6,12.3266 30.5734,14.3 33,14.3 L33,19.8 L41.8,19.8 L41.8,17.6 C41.8,16.3867 42.7867,15.4 44,15.4 C45.2133,15.4 46.2,16.3867 46.2,17.6 L46.2,19.8 L51.7,19.8 C53.5194,19.8 55,18.3194 55,16.5 L55,3.3 C55,1.4806 53.5194,0 51.7,0 Z M52.8,16.5 C52.8,17.1061 52.3072,17.6 51.7,17.6 L48.4,17.6 C48.4,15.1734 46.4266,13.2 44,13.2 C41.5734,13.2 39.6,15.1734 39.6,17.6 L35.2,17.6 L35.2,12.1 L33,12.1 C31.7867,12.1 30.8,11.1133 30.8,9.9 C30.8,8.6867 31.7867,7.7 33,7.7 L35.2,7.7 L35.2,3.3 C35.2,2.6939 35.6928,2.2 36.3,2.2 L51.7,2.2 C52.3072,2.2 52.8,2.6939 52.8,3.3 L52.8,16.5 Z" id="Shape"></path>
                        <path d="M33,22 C30.5734,22 28.6,23.9734 28.6,26.4 L24.2,26.4 L24.2,20.9 L22,20.9 C20.7867,20.9 19.8,19.9133 19.8,18.7 C19.8,17.4867 20.7867,16.5 22,16.5 L24.2,16.5 L24.2,6.6 L21.2509,6.6 C9.5337,6.6 0,16.1337 0,27.8509 C0,34.2507 2.8413,40.2457 7.7946,44.2981 L12.1,47.8214 L12.1,50.8035 C10.8229,51.2589 9.9,52.4689 9.9,53.9011 C9.9,55.4224 10.9395,56.694 12.342,57.0735 C12.1891,57.453 12.1,57.8655 12.1,58.3 C12.1,59.7542 13.0515,60.9774 14.3594,61.4163 C14.8148,65.2311 18.0653,68.2 22,68.2 C25.9347,68.2 29.1852,65.2311 29.6406,61.4163 C30.9485,60.9774 31.9,59.7542 31.9,58.3 C31.9,57.8655 31.8109,57.453 31.658,57.0724 C33.0605,56.6918 34.1,55.4213 34.1,53.9 C34.1,52.4678 33.1771,51.2578 31.9,50.8024 L31.9,47.8203 L36.2054,44.297 C41.1587,40.2457 44,34.2507 44,27.8509 L44,26.4 L37.4,26.4 C37.4,23.9734 35.4266,22 33,22 Z M21.2509,8.8 L22,8.8 L22,14.3 C19.5734,14.3 17.6,16.2734 17.6,18.7 C17.6,21.1266 19.5734,23.1 22,23.1 L22,26.4 L17.6,26.4 C17.6,23.9734 15.6266,22 13.2,22 C10.7734,22 8.8,23.9734 8.8,26.4 L2.255,26.4 C2.9986,16.5704 11.2343,8.8 21.2509,8.8 Z M9.1872,42.5953 C4.9401,39.1204 2.4255,34.0538 2.2154,28.6 L11,28.6 L11,26.4 C11,25.1867 11.9867,24.2 13.2,24.2 C14.4133,24.2 15.4,25.1867 15.4,26.4 L15.4,28.6 L22,28.6 L22,33 C19.5734,33 17.6,34.9734 17.6,37.4 C17.6,39.8266 19.5734,41.8 22,41.8 L22,50.6 L14.3,50.6 L14.3,46.7786 L9.1872,42.5953 Z M22,66 C19.3446,66 17.1226,64.1069 16.6111,61.6 L27.3889,61.6 C26.8774,64.1069 24.6554,66 22,66 Z M28.6,59.4 L15.4,59.4 C14.7928,59.4 14.3,58.9061 14.3,58.3 C14.3,57.6939 14.7928,57.2 15.4,57.2 L28.6,57.2 C29.2072,57.2 29.7,57.6939 29.7,58.3 C29.7,58.9061 29.2072,59.4 28.6,59.4 Z M30.8,55 L28.6,55 L15.4,55 L13.2,55 C12.5928,55 12.1,54.5061 12.1,53.9 C12.1,53.2939 12.5928,52.8 13.2,52.8 L30.8,52.8 C31.4072,52.8 31.9,53.2939 31.9,53.9 C31.9,54.5061 31.4072,55 30.8,55 Z M34.8128,42.5953 L29.7,46.7786 L29.7,50.6 L24.2,50.6 L24.2,39.6 L22,39.6 C20.7867,39.6 19.8,38.6133 19.8,37.4 C19.8,36.1867 20.7867,35.2 22,35.2 L24.2,35.2 L24.2,28.6 L30.8,28.6 L30.8,26.4 C30.8,25.1867 31.7867,24.2 33,24.2 C34.2133,24.2 35.2,25.1867 35.2,26.4 L35.2,28.6 L41.7846,28.6 C41.5745,34.0538 39.0599,39.1204 34.8128,42.5953 L34.8128,42.5953 Z" id="Shape"></path>
                    </g>
                </g>
            </g>
        </g>
    </g>
</svg>