<?xml version="1.0" encoding="UTF-8"?>
<svg width="101px" height="99px" viewBox="0 0 101 99" version="1.1" xmlns="http://www.w3.org/2000/svg" xmlns:xlink="http://www.w3.org/1999/xlink">
    <title>Digital Transformation</title>
    <g id="Page-1" stroke="none" stroke-width="1" fill="none" fill-rule="evenodd">
        <g id="NFORMACY" transform="translate(-1099.000000, -4165.000000)" fill-rule="nonzero">
            <g id="Areas-of-speciality" transform="translate(0.000000, 3360.000000)">
                <g id="Group-5" transform="translate(101.000000, 328.000000)">
                    <g id="SPECIALITIES-Copy" transform="translate(0.000000, 427.000000)">
                        <g id="3" transform="translate(858.000000, 0.000000)">
                            <g id="Digital-Transformation" transform="translate(140.000000, 50.000000)">
                                <g id="Group" transform="translate(66.666667, 71.014493)" fill="#125773">
                                    <rect id="Rectangle" x="16.173913" y="17.3333333" width="1.44927536" height="8.2173913"></rect>
                                    <rect id="Rectangle" x="0.971014493" y="17.3333333" width="1.44927536" height="8.2173913"></rect>
                                    <rect id="Rectangle" x="21.9565217" y="0.855072464" width="1.44927536" height="8.2173913"></rect>
                                    <rect id="Rectangle" x="31.8695652" y="17.3333333" width="1.44927536" height="8.2173913"></rect>
                                    <path d="M24.2463768,16.6086957 C22.5217391,16.6086957 21.1014493,18.0144928 21.1014493,19.7536232 L21.1014493,23.1449275 C21.1014493,24.8695652 22.5072464,26.2898551 24.2463768,26.2898551 C25.9710145,26.2898551 27.3913043,24.884058 27.3913043,23.1449275 L27.3913043,19.7536232 C27.3913043,18.0144928 25.9855072,16.6086957 24.2463768,16.6086957 Z M25.942029,23.1304348 C25.942029,24.057971 25.1884058,24.826087 24.2463768,24.826087 C23.3043478,24.826087 22.5507246,24.0724638 22.5507246,23.1304348 L22.5507246,19.7391304 C22.5507246,18.8115942 23.3043478,18.0434783 24.2463768,18.0434783 C25.1884058,18.0434783 25.942029,18.7971014 25.942029,19.7391304 L25.942029,23.1304348 Z" id="Shape"></path>
                                    <path d="M9.33333333,16.6086957 C7.60869565,16.6086957 6.1884058,18.0144928 6.1884058,19.7536232 L6.1884058,23.1449275 C6.1884058,24.8695652 7.5942029,26.2898551 9.33333333,26.2898551 C11.0724638,26.2898551 12.4782609,24.884058 12.4782609,23.1449275 L12.4782609,19.7536232 C12.4637681,18.0144928 11.057971,16.6086957 9.33333333,16.6086957 Z M11.0144928,23.1304348 C11.0144928,24.057971 10.2608696,24.826087 9.31884058,24.826087 C8.37681159,24.826087 7.62318841,24.0724638 7.62318841,23.1304348 L7.62318841,19.7391304 C7.62318841,18.8115942 8.37681159,18.0434783 9.31884058,18.0434783 C10.2608696,18.0434783 11.0144928,18.7971014 11.0144928,19.7391304 L11.0144928,23.1304348 Z" id="Shape"></path>
                                    <path d="M30.173913,0.130434783 C28.4492754,0.130434783 27.0289855,1.53623188 27.0289855,3.27536232 L27.0289855,6.66666667 C27.0289855,8.39130435 28.4347826,9.8115942 30.173913,9.8115942 C31.9130435,9.8115942 33.3188406,8.4057971 33.3188406,6.66666667 L33.3188406,3.27536232 C33.3188406,1.53623188 31.9130435,0.130434783 30.173913,0.130434783 Z M31.8695652,6.65217391 C31.8695652,7.57971014 31.115942,8.34782609 30.173913,8.34782609 C29.2318841,8.34782609 28.4782609,7.5942029 28.4782609,6.65217391 L28.4782609,3.26086957 C28.4782609,2.33333333 29.2318841,1.56521739 30.173913,1.56521739 C31.115942,1.56521739 31.8695652,2.31884058 31.8695652,3.26086957 L31.8695652,6.65217391 Z" id="Shape"></path>
                                    <path d="M15.9275362,0.130434783 C14.2028986,0.130434783 12.7826087,1.53623188 12.7826087,3.27536232 L12.7826087,6.66666667 C12.7826087,8.39130435 14.1884058,9.8115942 15.9275362,9.8115942 C17.6666667,9.8115942 19.0724638,8.4057971 19.0724638,6.66666667 L19.0724638,3.27536232 C19.0724638,1.53623188 17.6666667,0.130434783 15.9275362,0.130434783 Z M17.6231884,6.65217391 C17.6231884,7.57971014 16.8695652,8.34782609 15.9275362,8.34782609 C14.9855072,8.34782609 14.2318841,7.5942029 14.2318841,6.65217391 L14.2318841,3.26086957 C14.2318841,2.33333333 14.9855072,1.56521739 15.9275362,1.56521739 C16.8695652,1.56521739 17.6231884,2.31884058 17.6231884,3.26086957 L17.6231884,6.65217391 Z" id="Shape"></path>
                                </g>
                                <g id="Group" transform="translate(0.000000, 4.347826)" fill="#E7923D">
                                    <rect id="Rectangle" x="0.739130435" y="0.391304348" width="8.2173913" height="1.44927536"></rect>
                                    <rect id="Rectangle" x="0.739130435" y="8.60869565" width="16.4347826" height="1.44927536"></rect>
                                    <rect id="Rectangle" x="25.3913043" y="8.60869565" width="8.2173913" height="1.44927536"></rect>
                                    <rect id="Rectangle" x="0.739130435" y="16.826087" width="22.0869565" height="1.44927536"></rect>
                                    <rect id="Rectangle" x="13.4202899" y="25.0289855" width="6.13043478" height="1.44927536"></rect>
                                    <rect id="Rectangle" x="0.739130435" y="25.0289855" width="8.2173913" height="1.44927536"></rect>
                                </g>
                                <path d="M16.3768116,37.5942029 L0.739130435,37.5942029 L0.739130435,39.0434783 L15.9710145,39.0434783 C16.1014493,38.5652174 16.2318841,38.0869565 16.3768116,37.5942029 Z" id="Path" fill="#E7923D"></path>
                                <path d="M14.9275362,45.8115942 L0.739130435,45.8115942 L0.739130435,47.2608696 L14.8695652,47.2608696 C14.884058,46.7826087 14.8985507,46.3043478 14.9275362,45.8115942 Z" id="Path" fill="#E7923D"></path>
                                <polygon id="Path" fill="#125773" points="60.5072464 23.4637681 48.7826087 11.7536232 60.5072464 0.0289855072 61.5217391 1.05797101 50.826087 11.7536232 61.5217391 22.4492754"></polygon>
                                <polygon id="Path" fill="#125773" points="42.0434783 95.9275362 41.0144928 94.9130435 51.7101449 84.2173913 41.0144928 73.5217391 42.0434783 72.4927536 53.7681159 84.2173913"></polygon>
                                <path d="M67.5217391,44.5942029 L64.7246377,44.5942029 C64.4202899,42.1304348 62.4782609,40.173913 60.0144928,39.8550725 C59.6666667,33.3478261 54.2463768,28.1594203 47.6521739,28.1594203 L46.3188406,28.1594203 C39.4927536,28.1594203 33.942029,33.7101449 33.942029,40.5362319 L33.942029,44.6231884 C29.3478261,45 25.7246377,48.8550725 25.7246377,53.5362319 C25.7246377,58.4637681 29.7391304,62.4782609 34.6666667,62.4782609 L36.8695652,62.4782609 L36.5652174,62.173913 L37.7101449,61.0289855 L34.6666667,61.0289855 C30.5362319,61.0289855 27.173913,57.6666667 27.173913,53.5362319 C27.173913,49.4057971 30.5362319,46.0434783 34.6666667,46.0434783 L35.3913043,46.0434783 L35.3913043,40.5362319 C35.3913043,34.5072464 40.2898551,29.6086957 46.3188406,29.6086957 L47.6521739,29.6086957 C53.6811594,29.6086957 58.5797101,34.5072464 58.5797101,40.5362319 L58.5797101,41.2608696 L59.3043478,41.2608696 C61.5072464,41.2608696 63.3043478,43.057971 63.3043478,45.3188406 L63.3043478,46.0434783 L67.5217391,46.0434783 C71.6521739,46.0434783 75.0144928,49.4057971 75.0144928,53.5362319 C75.0144928,57.6666667 71.6521739,61.0289855 67.5217391,61.0289855 L61.9275362,61.0289855 L63.0724638,62.173913 L62.7681159,62.4782609 L67.5217391,62.4782609 C72.4492754,62.4782609 76.4637681,58.4637681 76.4637681,53.5362319 C76.4637681,48.5942029 72.4492754,44.5942029 67.5217391,44.5942029 Z" id="Path" fill="#ED7D31"></path>
                                <polygon id="Path" fill="#ED7D31" points="46 61.9275362 44.9710145 60.8985507 51.0869565 54.7826087 57.2028986 60.8985507 56.173913 61.9275362 51.0869565 56.8405797"></polygon>
                                <rect id="Rectangle" fill="#ED7D31" x="50.3623188" y="55.8115942" width="1.44927536" height="13.4782609"></rect>
                                <g id="Group" transform="translate(13.043478, 10.144928)">
                                    <g fill="#125773" id="Path">
                                        <path d="M17.115942,6.52173913 C17.942029,7.05797101 18.6086957,7.82608696 19.0144928,8.73913043 C23.7391304,5.65217391 29,3.84057971 34.3478261,3.27536232 L32.6666667,1.5942029 L33.8695652,0.391304348 C28,1.04347826 22.2608696,3.08695652 17.115942,6.52173913 Z"></path>
                                        <path d="M33.8695652,72.3333333 C25.3623188,71.3043478 17.2173913,67.173913 11.3188406,60.0869565 C0.275362319,46.826087 0.797101449,27.7246377 11.7246377,15.0869565 C10.884058,14.5652174 10.2028986,13.8115942 9.76811594,12.8985507 C-2.31884058,26.5942029 -2.97101449,47.4782609 9.07246377,61.942029 C15.6521739,69.8550725 24.826087,74.3623188 34.3333333,75.3043478 L35.5797101,74.057971 L33.8695652,72.3333333 Z"></path>
                                    </g>
                                    <path d="M14.3623188,16.5797101 C11.1594203,16.5797101 8.56521739,13.9855072 8.56521739,10.7826087 C8.56521739,7.57971014 11.1594203,4.98550725 14.3623188,4.98550725 C17.5652174,4.98550725 20.1594203,7.57971014 20.1594203,10.7826087 C20.1594203,13.9855072 17.5652174,16.5797101 14.3623188,16.5797101 Z M14.3623188,6.43478261 C11.9710145,6.43478261 10.0144928,8.39130435 10.0144928,10.7826087 C10.0144928,13.173913 11.9710145,15.1304348 14.3623188,15.1304348 C16.7536232,15.1304348 18.7101449,13.173913 18.7101449,10.7826087 C18.7101449,8.39130435 16.7681159,6.43478261 14.3623188,6.43478261 Z" id="Shape" fill="#33CCCC"></path>
                                </g>
                                <g id="Group" transform="translate(53.623188, 10.144928)">
                                    <g fill="#125773" id="Path">
                                        <path d="M16.5652174,70.2898551 C15.5942029,69.8695652 14.7971014,69.1594203 14.2463768,68.2753623 C10.2318841,70.4927536 5.89855072,71.8550725 1.50724638,72.3623188 L3.2173913,74.0724638 L2.10144928,75.1884058 C7.11594203,74.5652174 12.0434783,72.942029 16.5652174,70.2898551 Z"></path>
                                        <path d="M26.4057971,13.7101449 C19.8985507,5.89855072 10.8695652,1.4057971 1.47826087,0.391304348 L0.275362319,1.5942029 L2.05797101,3.37681159 C10.4057971,4.49275362 18.3768116,8.5942029 24.173913,15.5652174 C35.6956522,29.4057971 34.6376812,49.6086957 22.2753623,62.1884058 C22.9710145,62.942029 23.4347826,63.8985507 23.5652174,64.9710145 C37.6956522,51.4347826 39.1304348,28.9855072 26.4057971,13.7101449 Z"></path>
                                    </g>
                                    <path d="M18.5652174,71.4202899 C15.3623188,71.4202899 12.7681159,68.826087 12.7681159,65.6231884 C12.7681159,62.4202899 15.3623188,59.826087 18.5652174,59.826087 C21.7681159,59.826087 24.3623188,62.4202899 24.3623188,65.6231884 C24.3623188,68.826087 21.7536232,71.4202899 18.5652174,71.4202899 Z M18.5652174,61.2753623 C16.173913,61.2753623 14.2173913,63.2318841 14.2173913,65.6231884 C14.2173913,68.0144928 16.173913,69.9710145 18.5652174,69.9710145 C20.9565217,69.9710145 22.9130435,68.0144928 22.9130435,65.6231884 C22.9130435,63.2318841 20.9565217,61.2753623 18.5652174,61.2753623 Z" id="Shape" fill="#33CCCC"></path>
                                </g>
                            </g>
                        </g>
                    </g>
                </g>
            </g>
        </g>
    </g>
</svg>