<?xml version="1.0" encoding="UTF-8"?>
<svg width="98px" height="99px" viewBox="0 0 98 99" version="1.1" xmlns="http://www.w3.org/2000/svg" xmlns:xlink="http://www.w3.org/1999/xlink">
    <title>Financial Solutions</title>
    <g id="Page-1" stroke="none" stroke-width="1" fill="none" fill-rule="evenodd">
        <g id="Financial-Solutions" fill-rule="nonzero">
            <g id="Group" transform="translate(1.816901, 20.718310)">
                <path d="M31.6056338,52.971831 L23.3661972,60.2535211 L15.3521127,52.2394366 L9.88732394,57.7042254 C10.2253521,58.0422535 10.5070423,58.4225352 10.7323944,58.8450704 L15.3521127,54.2253521 L23.3098592,62.1830986 L32.5774648,53.9859155 C32.2112676,53.6901408 31.8732394,53.3661972 31.6056338,52.971831 Z" id="Path" fill="#33CCCC"></path>
                <path d="M83.6901408,0.183098592 L83.6478873,1.5915493 L89.5492958,1.73239437 L85.5915493,5.22535211 C85.7464789,5.71830986 85.8873239,6.22535211 86.0140845,6.73239437 L90.4788732,2.78873239 L89.9014085,8.67605634 L91.3098592,8.81690141 L92.1408451,0.394366197 L83.6901408,0.183098592 Z" id="Path" fill="#33CCCC"></path>
                <path d="M6.43661972,66.8591549 C3.32394366,66.8591549 0.802816901,64.3380282 0.802816901,61.2253521 C0.802816901,58.1126761 3.32394366,55.5915493 6.43661972,55.5915493 C9.54929577,55.5915493 12.0704225,58.1126761 12.0704225,61.2253521 C12.0704225,64.3380282 9.54929577,66.8591549 6.43661972,66.8591549 Z M6.43661972,57 C4.11267606,57 2.21126761,58.9014085 2.21126761,61.2253521 C2.21126761,63.5492958 4.11267606,65.4507042 6.43661972,65.4507042 C8.76056338,65.4507042 10.6619718,63.5492958 10.6619718,61.2253521 C10.6619718,58.9014085 8.77464789,57 6.43661972,57 Z" id="Shape" fill="#125773"></path>
            </g>
            <rect id="Rectangle" fill="#33CCCC" x="81.056338" y="1.38028169" width="7.98591549" height="1.4084507"></rect>
            <rect id="Rectangle" fill="#125773" x="1.1971831" y="61.2676056" width="7.98591549" height="1.4084507"></rect>
            <rect id="Rectangle" fill="#125773" x="4.49295775" y="57.9859155" width="1.4084507" height="7.98591549"></rect>
            <path d="M11.6619718,37.3239437 L10.5915493,37.3239437 C10.4366197,37.0140845 10.1971831,36.7746479 9.88732394,36.6197183 L9.88732394,33.3239437 L0.492957746,33.3239437 L0.492957746,42.7183099 L9.88732394,42.7183099 L9.88732394,39.4225352 C10.1971831,39.2676056 10.4366197,39.028169 10.5915493,38.7183099 L11.6901408,38.7183099 C11.6760563,38.2535211 11.6619718,37.7887324 11.6619718,37.3239437 Z M8.47887324,41.3098592 L1.90140845,41.3098592 L1.90140845,34.7323944 L8.47887324,34.7323944 L8.47887324,41.3098592 Z" id="Shape" fill="#125773"></path>
            <g id="Group" transform="translate(0.408451, 1.000000)" fill="#125773">
                <path d="M9.47887324,6.49295775 C9.78873239,6.33802817 10.028169,6.09859155 10.1830986,5.78873239 L16.0704225,5.78873239 L16.0704225,17.5915493 C16.5070423,16.7887324 16.971831,15.9859155 17.4788732,15.2112676 L17.4788732,4.38028169 L10.1830986,4.38028169 C10.028169,4.07042254 9.78873239,3.83098592 9.47887324,3.67605634 L9.47887324,0.38028169 L0.0845070423,0.38028169 L0.0845070423,9.77464789 L9.47887324,9.77464789 L9.47887324,6.49295775 Z M8.07042254,8.36619718 L1.49295775,8.36619718 L1.49295775,1.78873239 L8.07042254,1.78873239 L8.07042254,8.36619718 Z" id="Shape"></path>
                <path d="M14.5211268,20.7183099 L10.1830986,20.7183099 C10.028169,20.4084507 9.78873239,20.1690141 9.47887324,20.0140845 L9.47887324,16.3521127 L0.0845070423,16.3521127 L0.0845070423,25.7464789 L9.47887324,25.7464789 L9.47887324,22.8309859 C9.78873239,22.6760563 10.028169,22.4366197 10.1830986,22.1267606 L13.9295775,22.1267606 C14.1126761,21.6619718 14.3239437,21.1830986 14.5211268,20.7183099 Z M8.07042254,24.3380282 L1.49295775,24.3380282 L1.49295775,17.7605634 L8.07042254,17.7605634 L8.07042254,24.3380282 Z" id="Shape"></path>
            </g>
            <g id="Group" transform="translate(24.352113, 9.859155)">
                <path d="M0.788732394,24.9014085 L25.4647887,24.9014085 L25.4647887,0.225352113 C11.8450704,0.225352113 0.788732394,11.2676056 0.788732394,24.9014085 Z" id="Path" fill="#ED7D31"></path>
                <path d="M24.7605634,52.8450704 C14.7605634,50.3521127 7.22535211,41.5211268 6.78873239,30.8591549 L31.4507042,30.8591549 L31.4507042,6.1971831 C42.1126761,6.63380282 50.943662,14.1549296 53.4366197,24.1690141 L55.4788732,24.1690141 C52.8732394,12.7605634 42.6619718,4.21126761 30.4788732,4.21126761 L29.4929577,4.21126761 L29.4929577,28.8873239 L4.78873239,28.8873239 L4.78873239,29.8732394 C4.78873239,42.0704225 13.3380282,52.2816901 24.7464789,54.8732394 L24.7464789,52.8450704 L24.7605634,52.8450704 Z" id="Path" fill="#E7923D"></path>
            </g>
            <path d="M49.1126761,71.056338 C39.8591549,70.7042254 30.7887324,66.5915493 24.4084507,58.9295775 C12.4788732,44.6056338 14.4225352,23.2535211 28.7464789,11.3239437 C35.056338,6.07042254 42.7183099,3.50704225 50.3521127,3.50704225 C60.0422535,3.50704225 69.6760563,7.64788732 76.3521127,15.6619718 C80.8591549,21.0704225 83.3802817,27.4929577 84.0140845,34.028169 L86.8309859,34.028169 C86.1971831,26.8591549 83.4647887,19.8028169 78.5211268,13.8591549 C65.5915493,-1.64788732 42.4507042,-3.76056338 26.943662,9.16901408 C11.4225352,22.0985915 9.32394366,45.2253521 22.2394366,60.7464789 C29.1690141,69.0704225 39.056338,73.5211268 49.1126761,73.8732394 L49.1126761,71.056338 Z" id="Path" fill="#125773"></path>
            <path d="M64.7887324,33.3239437 L48.4084507,49.7042254 L48.4084507,98.6056338 L97.7323944,98.6056338 L97.7323944,33.3239437 L64.7887324,33.3239437 Z M96.3098592,97.2112676 L49.8169014,97.2112676 L49.8169014,50.7042254 L65.7887324,50.7042254 L65.7887324,42.0140845 L64.3802817,42.0140845 L64.3802817,49.2957746 L50.8169014,49.2957746 L65.3802817,34.7323944 L96.3239437,34.7323944 L96.3239437,97.2112676 L96.3098592,97.2112676 Z" id="Shape" fill="#125773"></path>
            <g id="Group" transform="translate(56.746479, 56.338028)" fill="#E7923D">
                <rect id="Rectangle" x="0.352112676" y="32.8873239" width="31.943662" height="1.4084507"></rect>
                <rect id="Rectangle" x="0.352112676" y="0.943661972" width="15.971831" height="1.4084507"></rect>
                <rect id="Rectangle" x="24.3098592" y="0.943661972" width="7.98591549" height="1.4084507"></rect>
                <rect id="Rectangle" x="0.352112676" y="8.92957746" width="23.9577465" height="1.4084507"></rect>
                <rect id="Rectangle" x="16.3239437" y="16.915493" width="15.971831" height="1.4084507"></rect>
                <rect id="Rectangle" x="0.352112676" y="16.915493" width="7.98591549" height="1.4084507"></rect>
                <rect id="Rectangle" x="0.352112676" y="24.9014085" width="31.943662" height="1.4084507"></rect>
            </g>
            <g id="Group" transform="translate(0.000000, 88.732394)" fill="#125773">
                <rect id="Rectangle" x="24.4366197" y="1.1971831" width="1.4084507" height="7.98591549"></rect>
                <rect id="Rectangle" x="8.47887324" y="1.1971831" width="1.4084507" height="7.98591549"></rect>
                <rect id="Rectangle" x="40.6338028" y="1.1971831" width="1.4084507" height="7.98591549"></rect>
                <path d="M33.2394366,0.492957746 C31.5633803,0.492957746 30.1830986,1.85915493 30.1830986,3.54929577 L30.1830986,6.84507042 C30.1830986,8.52112676 31.5492958,9.90140845 33.2394366,9.90140845 C34.9295775,9.90140845 36.2957746,8.53521127 36.2957746,6.84507042 L36.2957746,3.54929577 C36.2816901,1.85915493 34.915493,0.492957746 33.2394366,0.492957746 Z M34.8732394,6.83098592 C34.8732394,7.73239437 34.1408451,8.47887324 33.2253521,8.47887324 C32.3098592,8.47887324 31.5774648,7.74647887 31.5774648,6.83098592 L31.5774648,3.53521127 C31.5774648,2.63380282 32.3098592,1.88732394 33.2253521,1.88732394 C34.1408451,1.88732394 34.8732394,2.61971831 34.8732394,3.53521127 L34.8732394,6.83098592 Z" id="Shape"></path>
                <path d="M17.1690141,0.492957746 C15.4929577,0.492957746 14.1126761,1.85915493 14.1126761,3.54929577 L14.1126761,6.84507042 C14.1126761,8.52112676 15.4788732,9.90140845 17.1690141,9.90140845 C18.8450704,9.90140845 20.2253521,8.53521127 20.2253521,6.84507042 L20.2253521,3.54929577 C20.2253521,1.85915493 18.8591549,0.492957746 17.1690141,0.492957746 Z M18.8169014,6.83098592 C18.8169014,7.73239437 18.084507,8.47887324 17.1690141,8.47887324 C16.2676056,8.47887324 15.5211268,7.74647887 15.5211268,6.83098592 L15.5211268,3.53521127 C15.5211268,2.63380282 16.2535211,1.88732394 17.1690141,1.88732394 C18.0704225,1.88732394 18.8169014,2.61971831 18.8169014,3.53521127 L18.8169014,6.83098592 Z" id="Shape"></path>
                <path d="M3.32394366,0.492957746 C1.64788732,0.492957746 0.267605634,1.85915493 0.267605634,3.54929577 L0.267605634,6.84507042 C0.267605634,8.52112676 1.63380282,9.90140845 3.32394366,9.90140845 C5,9.90140845 6.38028169,8.53521127 6.38028169,6.84507042 L6.38028169,3.54929577 C6.38028169,1.85915493 5.01408451,0.492957746 3.32394366,0.492957746 Z M4.97183099,6.83098592 C4.97183099,7.73239437 4.23943662,8.47887324 3.32394366,8.47887324 C2.42253521,8.47887324 1.67605634,7.74647887 1.67605634,6.83098592 L1.67605634,3.53521127 C1.67605634,2.63380282 2.4084507,1.88732394 3.32394366,1.88732394 C4.22535211,1.88732394 4.97183099,2.61971831 4.97183099,3.53521127 L4.97183099,6.83098592 Z" id="Shape"></path>
            </g>
            <path d="M39.6338028,74.5211268 C39,74.9014085 38.2816901,75.1267606 37.4929577,75.1267606 C35.6056338,75.1267606 34.028169,73.8732394 33.4788732,72.1690141 C32.943662,71.915493 32.4225352,71.6478873 31.9014085,71.3661972 C32.1408451,74.2535211 34.5352113,76.5492958 37.4929577,76.5492958 C39,76.5492958 40.3521127,75.943662 41.3661972,74.9859155 C40.7746479,74.8309859 40.1971831,74.6901408 39.6338028,74.5211268 Z" id="Path" fill="#125773"></path>
        </g>
    </g>
</svg>