<?xml version="1.0" encoding="UTF-8"?>
<svg width="100px" height="100px" viewBox="0 0 100 100" version="1.1" xmlns="http://www.w3.org/2000/svg" xmlns:xlink="http://www.w3.org/1999/xlink">
    <title>Finance</title>
    <g id="Page-1" stroke="none" stroke-width="1" fill="none" fill-rule="evenodd">
        <g id="NFORMACY" transform="translate(-671.000000, -3738.000000)" fill-rule="nonzero">
            <g id="Areas-of-speciality" transform="translate(0.000000, 3360.000000)">
                <g id="Group-5" transform="translate(101.000000, 328.000000)">
                    <g id="2" transform="translate(429.000000, 0.000000)">
                        <g id="Finance" transform="translate(141.000000, 50.000000)">
                            <path d="M56.6849315,76.7808219 L56.6849315,75.4109589 C75.5753425,75.4109589 90.9452055,60.0410959 90.9452055,41.1506849 L92.3150685,41.1506849 C92.3150685,60.7945205 76.3287671,76.7808219 56.6849315,76.7808219 Z" id="Path" fill="#ED7D31"></path>
                            <polygon id="Path" fill="#125773" points="93.369863 88.1917808 92.4383562 89.1917808 96.6438356 93.109589 6.89041096 93.109589 6.89041096 3.34246575 10.8082192 7.56164384 11.8082192 6.63013699 6.20547945 0.602739726 0.602739726 6.63013699 1.60273973 7.56164384 5.52054795 3.35616438 5.52054795 94.4794521 96.6438356 94.4794521 92.4383562 98.3972603 93.369863 99.3972603 99.3972603 93.7945205"></polygon>
                            <g id="Group" transform="translate(5.479452, 1.369863)" fill="#125773">
                                <path d="M78.1643836,14.3287671 L92.3287671,1.57534247 L92.4246575,0.575342466 L91.4109589,0.561643836 L77.3835616,13.1917808 C77.6575342,13.5616438 77.9178082,13.9452055 78.1643836,14.3287671 Z" id="Path"></path>
                                <path d="M21.8219178,63.2054795 L16.2876712,68.1917808 L8.49315068,60.3972603 L0.246575342,68.6438356 L1.21917808,69.6164384 L8.50684932,62.3287671 L16.2465753,70.0684932 L22.890411,64.0958904 C22.5068493,63.8082192 22.1643836,63.5068493 21.8219178,63.2054795 Z" id="Path"></path>
                            </g>
                            <path d="M52.0958904,71.8630137 C32.4520548,71.8630137 16.4794521,55.890411 16.4794521,36.2465753 C16.4794521,16.6027397 32.4520548,0.630136986 52.0958904,0.630136986 C71.739726,0.630136986 87.7123288,16.6027397 87.7123288,36.2465753 C87.7123288,55.890411 71.739726,71.8630137 52.0958904,71.8630137 Z M52.0958904,3.36986301 C33.9726027,3.36986301 19.2191781,18.1232877 19.2191781,36.2465753 C19.2191781,54.369863 33.9726027,69.1232877 52.0958904,69.1232877 C70.2191781,69.1232877 84.9726027,54.369863 84.9726027,36.2465753 C84.9726027,18.1232877 70.2191781,3.36986301 52.0958904,3.36986301 Z" id="Shape" fill="#125773"></path>
                            <rect id="Rectangle" fill="#33CCCC" x="13.9726027" y="77.5753425" width="7.76712329" height="1.36986301"></rect>
                            <polygon id="Path" fill="#33CCCC" points="99.3972603 15.4520548 96.2054795 15.4520548 96.2054795 12.2465753 94.8356164 12.2465753 94.8356164 15.4520548 91.630137 15.4520548 91.630137 16.8219178 94.8356164 16.8219178 94.8356164 20.0136986 96.2054795 20.0136986 96.2054795 16.8219178 99.3972603 16.8219178"></polygon>
                            <path d="M36.5616438,90.5205479 C31.9041096,90.5205479 28.109589,86.7260274 28.109589,82.0684932 C28.109589,77.4109589 31.9041096,73.6164384 36.5616438,73.6164384 C41.2191781,73.6164384 45.0136986,77.4109589 45.0136986,82.0684932 C45.0136986,86.7260274 41.2191781,90.5205479 36.5616438,90.5205479 Z M36.5616438,74.9863014 C32.6575342,74.9863014 29.4794521,78.1643836 29.4794521,82.0684932 C29.4794521,85.9726027 32.6575342,89.1506849 36.5616438,89.1506849 C40.4657534,89.1506849 43.6438356,85.9726027 43.6438356,82.0684932 C43.6438356,78.1643836 40.4657534,74.9863014 36.5616438,74.9863014 Z" id="Shape" fill="#33CCCC"></path>
                            <path d="M60.5479452,32.369863 L60.5479452,24.6027397 C60.5479452,20.1780822 57.1232877,16.5342466 52.7808219,16.1917808 L52.7808219,9.06849315 L51.4109589,9.06849315 L51.4109589,16.1780822 C47.0684932,16.5342466 43.6438356,20.1643836 43.6438356,24.5890411 L43.6438356,27.5616438 C43.6438356,30.7808219 45.4383562,33.6849315 48.3150685,35.1232877 L55.260274,38.6027397 C57.6712329,39.8082192 59.1780822,42.2328767 59.1780822,44.9315068 L59.1780822,47.9041096 C59.1780822,51.8082192 56,54.9863014 52.0958904,54.9863014 C48.1917808,54.9863014 45.0136986,51.8082192 45.0136986,47.9041096 L45.0136986,40.1369863 L43.6438356,40.1369863 L43.6438356,47.9041096 C43.6438356,52.3287671 47.0684932,55.9726027 51.4109589,56.3150685 L51.4109589,63.4246575 L52.7808219,63.4246575 L52.7808219,56.3150685 C57.1232877,55.9589041 60.5479452,52.3287671 60.5479452,47.9041096 L60.5479452,44.9315068 C60.5479452,41.7123288 58.7534247,38.8082192 55.8767123,37.369863 L48.9315068,33.890411 C46.5205479,32.6849315 45.0136986,30.260274 45.0136986,27.5616438 L45.0136986,24.5890411 C45.0136986,20.6849315 48.1917808,17.5068493 52.0958904,17.5068493 C56,17.5068493 59.1780822,20.6849315 59.1780822,24.5890411 L59.1780822,32.3561644 L60.5479452,32.3561644 L60.5479452,32.369863 Z" id="Path" fill="#ED7D31"></path>
                            <path d="M36.5616438,79.6575342 L38.0958904,79.6575342 L38.0958904,78.630137 L36.5616438,78.630137 C34.5342466,78.630137 32.8767123,80.2876712 32.8767123,82.3150685 C32.8767123,84.3424658 34.5342466,86 36.5616438,86 L38.0958904,86 L38.0958904,84.9726027 L36.5616438,84.9726027 C35.2739726,84.9726027 34.2054795,84.0547945 33.9589041,82.8356164 L36.5616438,82.8356164 L36.5616438,81.8082192 L33.9589041,81.8082192 C34.2054795,80.5753425 35.2739726,79.6575342 36.5616438,79.6575342 Z" id="Path" fill="#33CCCC"></path>
                        </g>
                    </g>
                </g>
            </g>
        </g>
    </g>
</svg>