<?xml version="1.0" encoding="UTF-8"?>
<svg width="100px" height="100px" viewBox="0 0 100 100" version="1.1" xmlns="http://www.w3.org/2000/svg" xmlns:xlink="http://www.w3.org/1999/xlink">
    <title>HR</title>
    <g id="Page-1" stroke="none" stroke-width="1" fill="none" fill-rule="evenodd">
        <g id="NFORMACY" transform="translate(-242.000000, -3739.000000)" fill-rule="nonzero">
            <g id="Areas-of-speciality" transform="translate(0.000000, 3360.000000)">
                <g id="Group-5" transform="translate(101.000000, 328.000000)">
                    <g id="HR" transform="translate(141.000000, 51.000000)">
                        <polygon id="Path" fill="#33CCCC" points="82.3428571 26.1285714 73.7428571 17.5285714 74.7571429 16.5142857 82.3428571 24.1142857 98.0428571 8.41428571 99.0428571 9.42857143"></polygon>
                        <g id="Group" transform="translate(72.857143, 64.714286)" fill="#E7923D">
                            <rect id="Rectangle" x="1.38571429" y="16.3857143" width="24.3" height="1.42857143"></rect>
                            <rect id="Rectangle" x="1.38571429" y="24.4857143" width="24.3" height="1.42857143"></rect>
                            <rect id="Rectangle" x="1.38571429" y="32.5857143" width="24.3" height="1.42857143"></rect>
                            <path d="M11.1285714,0.185714286 C10.9714286,0.671428571 10.8142857,1.14285714 10.6428571,1.61428571 L17.6,1.61428571 L17.6,0.185714286 L11.1285714,0.185714286 Z" id="Path"></path>
                            <path d="M7.41428571,8.28571429 C7.12857143,8.77142857 6.81428571,9.24285714 6.5,9.71428571 L25.6857143,9.71428571 L25.6857143,8.28571429 L7.41428571,8.28571429 Z" id="Path"></path>
                        </g>
                        <path d="M65.4285714,0.114285714 L65.4285714,18.2571429 C65.9142857,18.5142857 66.3857143,18.8 66.8571429,19.0857143 L66.8571429,1.54285714 L97.8285714,1.54285714 L97.8285714,48.7142857 L85.7142857,48.7142857 C85.7571429,49.1857143 85.8,49.6714286 85.8285714,50.1428571 L99.2714286,50.1428571 L99.2714286,0.114285714 L65.4285714,0.114285714 Z" id="Path" fill="#125773"></path>
                        <path d="M8.74285714,34.9428571 L17.8571429,25.8285714 L18.0428571,25.8285714 C18.5,25.3428571 18.9714286,24.8714286 19.4571429,24.4 L17.2571429,24.4 L10.1714286,31.4857143 L10.1714286,24.4 L2.07142857,24.4 L2.07142857,1.54285714 L33.0428571,1.54285714 L33.0428571,15.8857143 C33.5142857,15.7142857 33.9857143,15.5571429 34.4714286,15.4 L34.4714286,0.114285714 L0.642857143,0.114285714 L0.642857143,25.8428571 L8.74285714,25.8428571 L8.74285714,34.9428571 Z" id="Path" fill="#125773"></path>
                        <g id="Group" transform="translate(0.000000, 80.428571)" fill="#33CCCC">
                            <polygon id="Path" points="10.1714286 5.42857143 8.74285714 5.42857143 8.74285714 8.77142857 5.4 8.77142857 5.4 10.2 8.74285714 10.2 8.74285714 13.5285714 10.1714286 13.5285714 10.1714286 10.2 13.5 10.2 13.5 8.77142857 10.1714286 8.77142857"></polygon>
                            <path d="M9.45714286,0.671428571 C4.6,0.671428571 0.642857143,4.62857143 0.642857143,9.48571429 C0.642857143,14.3428571 4.6,18.3 9.45714286,18.3 C14.3142857,18.3 18.2714286,14.3428571 18.2714286,9.48571429 C18.2714286,4.62857143 14.3142857,0.671428571 9.45714286,0.671428571 Z M9.45714286,16.8714286 C5.38571429,16.8714286 2.07142857,13.5571429 2.07142857,9.48571429 C2.07142857,5.41428571 5.38571429,2.1 9.45714286,2.1 C13.5285714,2.1 16.8428571,5.41428571 16.8428571,9.48571429 C16.8428571,13.5571429 13.5285714,16.8714286 9.45714286,16.8714286 Z" id="Shape"></path>
                        </g>
                        <path d="M39.9714286,78.4 L36.0428571,78.4 C25.2,78.4 16.3714286,69.5714286 16.3714286,58.7285714 C16.3714286,51.6857143 22,45.9285714 29,45.7142857 L29,40.2 C29,29.1571429 37.9857143,20.1857143 49.0142857,20.1857143 L51.3285714,20.1857143 L51.2285714,20.9857143 C51.1,22 47.8,45.8571429 33.5714286,47.1285714 L33.4428571,45.7 C45.1428571,44.6428571 48.9857143,25.7571429 49.6857143,21.6 L49.0285714,21.6 C38.7857143,21.6 30.4428571,29.9428571 30.4428571,40.1857143 L30.4428571,47.1285714 L29.4,47.1285714 C23.0142857,47.1285714 17.8142857,52.3285714 17.8142857,58.7142857 C17.8142857,68.7714286 26,76.9571429 36.0571429,76.9571429 L39.9857143,76.9571429 L39.9857143,78.4 L39.9714286,78.4 Z" id="Path" fill="#E7923D"></path>
                        <path d="M47.4142857,67.0428571 C40.3285714,67.0428571 34.3,61.6714286 33.4142857,54.7142857 C30.9857143,54.6571429 29.0142857,52.6571429 29.0142857,50.2142857 C29.0142857,47.7285714 31.0285714,45.7142857 33.5142857,45.7142857 L34,45.7142857 L34,47.1428571 L33.5142857,47.1428571 C31.8142857,47.1428571 30.4428571,48.5142857 30.4428571,50.2142857 C30.4428571,51.9142857 31.8142857,53.2857143 33.5142857,53.2857143 L34.7142857,53.2857143 L34.7714286,53.9428571 C35.3,60.4857143 40.8571429,65.6142857 47.4142857,65.6142857 C53.9857143,65.6142857 59.5428571,60.4857143 60.0571429,53.9428571 L60.1142857,53.2857143 L61.3142857,53.2857143 C63.0142857,53.2857143 64.3857143,51.9142857 64.3857143,50.2142857 C64.3857143,48.5142857 63.0142857,47.1428571 61.3142857,47.1428571 L60.1142857,47.1428571 L60.1142857,39.9428571 C60.1142857,33.9428571 55.8571429,28.7 49.9714286,27.5 L50.2571429,26.1 C56.8,27.4428571 61.5428571,33.2571429 61.5428571,39.9428571 L61.5428571,45.7285714 C63.9142857,45.8428571 65.8142857,47.8142857 65.8142857,50.2285714 C65.8142857,52.6714286 63.8571429,54.6714286 61.4142857,54.7285714 C60.5285714,61.6714286 54.5,67.0428571 47.4142857,67.0428571 Z" id="Path" fill="#E7923D"></path>
                        <path d="M58.0571429,78.3 L55.8857143,78.3 L55.8857143,76.8714286 L57.9142857,76.8714286 C62.6142857,75.8857143 66.4142857,72.6142857 68.0714286,68.1 L68.1571429,67.8714286 C69.4428571,64.3714286 69.2571429,60.4285714 67.6428571,57.0714286 L64.3714286,50.1 L64.3714286,38.2857143 C64.3714286,30.6428571 58.1571429,24.4285714 50.5142857,24.4285714 L50.5142857,23 C58.9428571,23 65.8,29.8571429 65.8,38.2857143 L65.8,49.9428571 L68.9285714,56.4571429 C70.7142857,60.1714286 70.9142857,64.5142857 69.4857143,68.3714286 L69.4,68.6 C67.5571429,73.6 63.3285714,77.2142857 58.1142857,78.2857143 L58.0571429,78.3 Z" id="Path" fill="#E7923D"></path>
                        <path d="M64.8285714,84.5 L60.2571429,82.5571429 C56.4714286,80.9714286 54.0285714,77.3 54.0285714,73.2 L54.0285714,64.1428571 L55.4571429,64.1428571 L55.4571429,73.2 C55.4571429,76.7285714 57.5571429,79.8857143 60.8142857,81.2428571 L65.3857143,83.1857143 L64.8285714,84.5 Z" id="Path" fill="#E7923D"></path>
                        <path d="M29.9857143,84.5142857 L29.4857143,83.1714286 L34.6285714,81.2285714 C37.8571429,79.8714286 39.9571429,76.7142857 39.9571429,73.2 L39.9571429,64.1428571 L41.3857143,64.1428571 L41.3857143,73.2 C41.3857143,77.3 38.9428571,80.9714286 35.1571429,82.5571429 L29.9857143,84.5142857 Z" id="Path" fill="#E7923D"></path>
                        <polygon id="Path" fill="#E7923D" points="54.7428571 65.1857143 40.6714286 73.2 40.6714286 65.1857143"></polygon>
                        <path d="M46.6285714,89.8857143 C26.1428571,89.8857143 9.48571429,73.2285714 9.48571429,52.7428571 C9.48571429,32.2571429 26.1428571,15.6 46.6285714,15.6 C67.1142857,15.6 83.7714286,32.2571429 83.7714286,52.7428571 C83.7714286,73.2285714 67.1142857,89.8857143 46.6285714,89.8857143 Z M46.6285714,18.4571429 C27.7285714,18.4571429 12.3428571,33.8428571 12.3428571,52.7428571 C12.3428571,71.6428571 27.7285714,87.0285714 46.6285714,87.0285714 C65.5285714,87.0285714 80.9142857,71.6428571 80.9142857,52.7428571 C80.9142857,33.8428571 65.5428571,18.4571429 46.6285714,18.4571429 Z" id="Shape" fill="#125773"></path>
                        <rect id="Rectangle" fill="#E7923D" x="9.45714286" y="8.21428571" width="8.1" height="1.42857143"></rect>
                        <rect id="Rectangle" fill="#E7923D" x="9.45714286" y="16.3142857" width="16.2" height="1.42857143"></rect>
                    </g>
                </g>
            </g>
        </g>
    </g>
</svg>