<?xml version="1.0" encoding="UTF-8"?>
<svg width="60px" height="57px" viewBox="0 0 60 57" version="1.1" xmlns="http://www.w3.org/2000/svg" xmlns:xlink="http://www.w3.org/1999/xlink">
    <title>Manage your Space</title>
    <g id="Page-1" stroke="none" stroke-width="1" fill="none" fill-rule="evenodd">
        <g id="NFORMACY" transform="translate(-1220.000000, -2862.000000)" fill="#ED7D31" fill-rule="nonzero">
            <g id="How-we-work." transform="translate(100.000000, 2642.000000)">
                <g id="6" transform="translate(1060.000000, 220.000000)">
                    <g id="Manage-your-Space" transform="translate(60.000000, 0.000000)">
                        <path d="M53.2282051,0.0328205128 L6.64307692,0.0328205128 C3.11179487,0.0328205128 0.238974359,2.90564103 0.238974359,6.43641026 L0.238974359,49.8020513 C0.238974359,53.3333333 3.11230769,56.205641 6.64307692,56.205641 L53.2282051,56.205641 C56.76,56.205641 59.6323077,53.3328205 59.6323077,49.8020513 L59.6323077,6.43692308 C59.6323077,2.90564103 56.76,0.0328205128 53.2282051,0.0328205128 Z M58.094359,49.8020513 C58.094359,52.4846154 55.9117949,54.6671795 53.2287179,54.6671795 L6.64307692,54.6671795 C3.96051282,54.6671795 1.7774359,52.4846154 1.7774359,49.8020513 L1.7774359,16.4035897 L58.094359,16.4035897 L58.094359,49.8020513 L58.094359,49.8020513 Z M58.094359,14.8651282 L1.7774359,14.8651282 L1.7774359,6.43692308 C1.7774359,3.75435897 3.96051282,1.57179487 6.64307692,1.57179487 L53.2282051,1.57179487 C55.9112821,1.57179487 58.094359,3.75435897 58.094359,6.43692308 L58.094359,14.8651282 L58.094359,14.8651282 Z" id="Shape"></path>
                        <path d="M8.64307692,44.7010256 L21.5692308,44.7010256 C21.9938462,44.7010256 22.3384615,44.3564103 22.3384615,43.9317949 L22.3384615,26.6666667 C22.3384615,26.2420513 21.9938462,25.8974359 21.5692308,25.8974359 L8.64307692,25.8974359 C8.21846154,25.8974359 7.87384615,26.2420513 7.87384615,26.6666667 L7.87384615,43.9317949 C7.87384615,44.3564103 8.21846154,44.7010256 8.64307692,44.7010256 Z M9.41230769,27.4358974 L20.8,27.4358974 L20.8,43.1625641 L9.41230769,43.1625641 L9.41230769,27.4358974 Z" id="Shape"></path>
                        <rect id="Rectangle" x="26.5261538" y="27.3502564" width="7.52153846" height="1.53846154"></rect>
                        <rect id="Rectangle" x="26.5261538" y="30.4271795" width="12.6497436" height="1.53846154"></rect>
                        <rect id="Rectangle" x="26.5261538" y="36.5810256" width="26.1246154" height="1.53846154"></rect>
                        <rect id="Rectangle" x="26.5261538" y="39.6579487" width="26.1246154" height="1.53846154"></rect>
                        <rect id="Rectangle" x="26.5261538" y="42.7348718" width="26.1246154" height="1.53846154"></rect>
                        <path d="M6.47692308,11.6671795 L12.494359,11.6671795 L12.494359,5.64974359 L6.47692308,5.64974359 L6.47692308,11.6671795 Z M8.01538462,7.18820513 L10.9558974,7.18820513 L10.9558974,10.1287179 L8.01538462,10.1287179 L8.01538462,7.18820513 Z" id="Shape"></path>
                        <path d="M13.7220513,11.6671795 L19.7394872,11.6671795 L19.7394872,5.64974359 L13.7220513,5.64974359 L13.7220513,11.6671795 Z M15.2605128,7.18820513 L18.2010256,7.18820513 L18.2010256,10.1287179 L15.2605128,10.1287179 L15.2605128,7.18820513 Z" id="Shape"></path>
                        <path d="M20.9671795,11.6671795 L26.9846154,11.6671795 L26.9846154,5.64974359 L20.9671795,5.64974359 L20.9671795,11.6671795 Z M22.505641,7.18820513 L25.4461538,7.18820513 L25.4461538,10.1287179 L22.505641,10.1287179 L22.505641,7.18820513 Z" id="Shape"></path>
                    </g>
                </g>
            </g>
        </g>
    </g>
</svg>