<?xml version="1.0" encoding="UTF-8"?>
<svg width="100px" height="101px" viewBox="0 0 100 101" version="1.1" xmlns="http://www.w3.org/2000/svg" xmlns:xlink="http://www.w3.org/1999/xlink">
    <title>OperationalSolutions</title>
    <g id="Page-1" stroke="none" stroke-width="1" fill="none" fill-rule="evenodd">
        <g id="NFORMACY" transform="translate(-671.000000, -4165.000000)" fill-rule="nonzero">
            <g id="Areas-of-speciality" transform="translate(0.000000, 3360.000000)">
                <g id="Group-5" transform="translate(101.000000, 328.000000)">
                    <g id="SPECIALITIES-Copy" transform="translate(0.000000, 427.000000)">
                        <g id="2" transform="translate(429.000000, 0.000000)">
                            <g id="OperationalSolutions" transform="translate(141.000000, 50.000000)">
                                <g id="Group" fill="#E7923D">
                                    <rect id="Rectangle" x="0.782608696" y="0.420289855" width="8.2173913" height="1.44927536"></rect>
                                    <path d="M10.8550725,41.5072464 L0.782608696,41.5072464 L0.782608696,42.9565217 L10.6086957,42.9565217 C10.6811594,42.4782609 10.7681159,41.9855072 10.8550725,41.5072464 Z" id="Path"></path>
                                    <rect id="Rectangle" x="0.782608696" y="8.63768116" width="16.4347826" height="1.44927536"></rect>
                                    <rect id="Rectangle" x="25.4347826" y="8.63768116" width="8.2173913" height="1.44927536"></rect>
                                    <rect id="Rectangle" x="0.782608696" y="16.8550725" width="24.6521739" height="1.44927536"></rect>
                                    <rect id="Rectangle" x="0.782608696" y="25.0724638" width="8.2173913" height="1.44927536"></rect>
                                    <path d="M13.3478261,33.2898551 L0.782608696,33.2898551 L0.782608696,34.7391304 L12.7681159,34.7391304 C12.9565217,34.2608696 13.1449275,33.7681159 13.3478261,33.2898551 Z" id="Path"></path>
                                </g>
                                <g id="Group" transform="translate(78.260870, 3.347826)" fill="#33CCCC">
                                    <polygon id="Path" points="10.5507246 5.2173913 9.10144928 5.2173913 9.10144928 8.60869565 5.71014493 8.60869565 5.71014493 10.057971 9.10144928 10.057971 9.10144928 13.4347826 10.5507246 13.4347826 10.5507246 10.057971 13.9275362 10.057971 13.9275362 8.60869565 10.5507246 8.60869565"></polygon>
                                    <path d="M9.82608696,0.391304348 C4.89855072,0.391304348 0.884057971,4.4057971 0.884057971,9.33333333 C0.884057971,14.2608696 4.89855072,18.2753623 9.82608696,18.2753623 C14.7536232,18.2753623 18.7681159,14.2608696 18.7681159,9.33333333 C18.7681159,4.4057971 14.7536232,0.391304348 9.82608696,0.391304348 Z M9.82608696,16.826087 C5.69565217,16.826087 2.33333333,13.4637681 2.33333333,9.33333333 C2.33333333,5.20289855 5.69565217,1.84057971 9.82608696,1.84057971 C13.9565217,1.84057971 17.3188406,5.20289855 17.3188406,9.33333333 C17.3188406,13.4637681 13.9565217,16.826087 9.82608696,16.826087 Z" id="Shape"></path>
                                </g>
                                <rect id="Rectangle" fill="#125773" x="41.5507246" y="91.5362319" width="1.44927536" height="8.2173913"></rect>
                                <rect id="Rectangle" fill="#125773" x="25.1304348" y="91.5362319" width="1.44927536" height="8.2173913"></rect>
                                <rect id="Rectangle" fill="#125773" x="58.2173913" y="91.5362319" width="1.44927536" height="8.2173913"></rect>
                                <rect id="Rectangle" fill="#125773" x="81.4492754" y="91.5362319" width="1.44927536" height="8.2173913"></rect>
                                <path d="M50.5942029,100.478261 C48.8695652,100.478261 47.4492754,99.0724638 47.4492754,97.3333333 L47.4492754,93.942029 C47.4492754,92.2173913 48.8550725,90.7971014 50.5942029,90.7971014 C52.3188406,90.7971014 53.7391304,92.2028986 53.7391304,93.942029 L53.7391304,97.3333333 C53.7391304,99.057971 52.3333333,100.478261 50.5942029,100.478261 Z M50.5942029,92.2608696 C49.6666667,92.2608696 48.8985507,93.0144928 48.8985507,93.9565217 L48.8985507,97.3478261 C48.8985507,98.2753623 49.6521739,99.0434783 50.5942029,99.0434783 C51.5362319,99.0434783 52.2898551,98.2898551 52.2898551,97.3478261 L52.2898551,93.9565217 C52.2898551,93.0144928 51.5362319,92.2608696 50.5942029,92.2608696 Z" id="Shape" fill="#125773"></path>
                                <path d="M66.6956522,100.478261 C64.9710145,100.478261 63.5507246,99.0724638 63.5507246,97.3333333 L63.5507246,93.942029 C63.5507246,92.2173913 64.9565217,90.7971014 66.6956522,90.7971014 C68.4347826,90.7971014 69.8405797,92.2028986 69.8405797,93.942029 L69.8405797,97.3333333 C69.826087,99.057971 68.4202899,100.478261 66.6956522,100.478261 Z M66.6956522,92.2608696 C65.7681159,92.2608696 65,93.0144928 65,93.9565217 L65,97.3478261 C65,98.2753623 65.7536232,99.0434783 66.6956522,99.0434783 C67.6376812,99.0434783 68.3913043,98.2898551 68.3913043,97.3478261 L68.3913043,93.9565217 C68.3768116,93.0144928 67.6231884,92.2608696 66.6956522,92.2608696 Z" id="Shape" fill="#125773"></path>
                                <path d="M75.5797101,100.478261 C73.8550725,100.478261 72.4347826,99.0724638 72.4347826,97.3333333 L72.4347826,93.942029 C72.4347826,92.2173913 73.8405797,90.7971014 75.5797101,90.7971014 C77.3188406,90.7971014 78.7246377,92.2028986 78.7246377,93.942029 L78.7246377,97.3333333 C78.7101449,99.057971 77.3043478,100.478261 75.5797101,100.478261 Z M75.5797101,92.2608696 C74.6521739,92.2608696 73.884058,93.0144928 73.884058,93.9565217 L73.884058,97.3478261 C73.884058,98.2753623 74.6376812,99.0434783 75.5797101,99.0434783 C76.5217391,99.0434783 77.2753623,98.2898551 77.2753623,97.3478261 L77.2753623,93.9565217 C77.2608696,93.0144928 76.5072464,92.2608696 75.5797101,92.2608696 Z" id="Shape" fill="#125773"></path>
                                <path d="M34.0724638,100.478261 C32.3478261,100.478261 30.9275362,99.0724638 30.9275362,97.3333333 L30.9275362,93.942029 C30.9275362,92.2173913 32.3333333,90.7971014 34.0724638,90.7971014 C35.7971014,90.7971014 37.2173913,92.2028986 37.2173913,93.942029 L37.2173913,97.3333333 C37.2173913,99.057971 35.8115942,100.478261 34.0724638,100.478261 Z M34.0724638,92.2608696 C33.1449275,92.2608696 32.3768116,93.0144928 32.3768116,93.9565217 L32.3768116,97.3478261 C32.3768116,98.2753623 33.1304348,99.0434783 34.0724638,99.0434783 C35,99.0434783 35.7681159,98.2898551 35.7681159,97.3478261 L35.7681159,93.9565217 C35.7681159,93.0144928 35,92.2608696 34.0724638,92.2608696 Z" id="Shape" fill="#125773"></path>
                                <path d="M19.826087,100.478261 C18.1014493,100.478261 16.6811594,99.0724638 16.6811594,97.3333333 L16.6811594,93.942029 C16.6811594,92.2173913 18.0869565,90.7971014 19.826087,90.7971014 C21.5652174,90.7971014 22.9710145,92.2028986 22.9710145,93.942029 L22.9710145,97.3333333 C22.9710145,99.057971 21.5507246,100.478261 19.826087,100.478261 Z M19.826087,92.2608696 C18.8985507,92.2608696 18.1304348,93.0144928 18.1304348,93.9565217 L18.1304348,97.3478261 C18.1304348,98.2753623 18.884058,99.0434783 19.826087,99.0434783 C20.7681159,99.0434783 21.5217391,98.2898551 21.5217391,97.3478261 L21.5217391,93.9565217 C21.5217391,93.0144928 20.7536232,92.2608696 19.826087,92.2608696 Z" id="Shape" fill="#125773"></path>
                                <path d="M50.0144928,86.5942029 C29.2318841,86.5942029 12.3333333,69.6956522 12.3333333,48.9130435 C12.3333333,28.1304348 29.2318841,11.2318841 50.0144928,11.2318841 C70.7971014,11.2318841 87.6956522,28.1304348 87.6956522,48.9130435 C87.6956522,69.6956522 70.7826087,86.5942029 50.0144928,86.5942029 Z M50.0144928,14.1304348 C30.8405797,14.1304348 15.2318841,29.7391304 15.2318841,48.9130435 C15.2318841,68.0869565 30.8405797,83.6956522 50.0144928,83.6956522 C69.1884058,83.6956522 84.7971014,68.0869565 84.7971014,48.9130435 C84.7971014,29.7391304 69.1884058,14.1304348 50.0144928,14.1304348 Z" id="Shape" fill="#125773"></path>
                                <g id="Group" transform="translate(20.289855, 19.289855)">
                                    <path d="M58.7391304,34.3043478 L58.7391304,25.3188406 L51.5797101,24.4347826 C51.0434783,22.1884058 50.1594203,20.0434783 48.942029,18.0289855 L53.5507246,12.4202899 L47.2028986,6.07246377 L41.5217391,10.5217391 C39.5362319,9.28985507 37.3913043,8.39130435 35.1304348,7.84057971 L34.4202899,0.623188406 L25.4347826,0.623188406 L24.5507246,7.7826087 C22.3043478,8.31884058 20.1449275,9.20289855 18.1449275,10.4202899 L12.5217391,5.79710145 L6.17391304,12.1449275 L10.6231884,17.8405797 C9.39130435,19.826087 8.49275362,21.9710145 7.94202899,24.2318841 L0.724637681,24.942029 L0.724637681,33.9275362 L7.88405797,34.8115942 C8.42028986,37.057971 9.30434783,39.2173913 10.5217391,41.2173913 L5.91304348,46.826087 L12.2608696,53.173913 L17.942029,48.7246377 C19.9275362,49.9565217 22.0724638,50.8550725 24.3333333,51.4057971 L25.0434783,58.6231884 L34.0289855,58.6231884 L34.9130435,51.4637681 C37.1594203,50.9275362 39.3188406,50.0434783 41.3333333,48.826087 L46.942029,53.4347826 L53.2898551,47.0869565 L48.8405797,41.4057971 C50.0724638,39.4202899 50.9710145,37.2753623 51.5217391,35.0144928 L58.7391304,34.3043478 Z M50.2173913,34.1884058 C49.6666667,36.6376812 48.7101449,38.942029 47.3333333,41.057971 L47.0434783,41.4927536 L51.3333333,46.9855072 L46.8115942,51.5072464 L41.4057971,47.0724638 L40.9565217,47.3478261 C38.8115942,48.7101449 36.4927536,49.6666667 34.0724638,50.173913 L33.5652174,50.2753623 L32.7246377,57.173913 L26.3333333,57.173913 L25.6521739,50.2318841 L25.1449275,50.115942 C22.6956522,49.5652174 20.3913043,48.6086957 18.2753623,47.2318841 L17.8405797,46.942029 L12.3478261,51.2318841 L7.82608696,46.7101449 L12.2608696,41.3043478 L11.9855072,40.8550725 C10.6231884,38.7101449 9.66666667,36.3913043 9.15942029,33.9710145 L9.05797101,33.4637681 L2.15942029,32.6231884 L2.15942029,26.2318841 L9.10144928,25.5507246 L9.2173913,25.0434783 C9.75362319,22.5942029 10.7246377,20.2898551 12.1014493,18.173913 L12.3768116,17.7391304 L8.08695652,12.2463768 L12.6086957,7.72463768 L18.0144928,12.1594203 L18.4637681,11.884058 C20.6086957,10.5217391 22.9275362,9.56521739 25.3478261,9.05797101 L25.8550725,8.95652174 L26.6956522,2.05797101 L33.0869565,2.05797101 L33.7681159,9 L34.2753623,9.11594203 C36.7246377,9.66666667 39.0289855,10.6231884 41.1449275,12 L41.5797101,12.2898551 L47.0724638,8 L51.5942029,12.5217391 L47.1594203,17.9275362 L47.4347826,18.3768116 C48.7971014,20.5217391 49.7536232,22.8405797 50.2608696,25.2608696 L50.3623188,25.7681159 L57.2608696,26.6086957 L57.2608696,33 L50.3188406,33.6811594 L50.2173913,34.1884058 Z" id="Shape" fill="#E7923D"></path>
                                    <path d="M41.8695652,23.1449275 C42.8985507,25.0724638 43.4927536,27.2753623 43.4927536,29.6231884 C43.4927536,37.2173913 37.3188406,43.3913043 29.7246377,43.3913043 C22.1304348,43.3913043 15.9565217,37.2173913 15.9565217,29.6231884 C15.9565217,22.0289855 22.1304348,15.8550725 29.7246377,15.8550725 C32.8695652,15.8550725 35.7681159,16.9275362 38.1014493,18.7101449 L39.115942,17.6666667 C36.5217391,15.6231884 33.2753623,14.4057971 29.7246377,14.4057971 C21.3333333,14.4057971 14.5072464,21.2318841 14.5072464,29.6231884 C14.5072464,38.0144928 21.3333333,44.8405797 29.7246377,44.8405797 C38.115942,44.8405797 44.942029,38.0144928 44.942029,29.6231884 C44.942029,26.8695652 44.2028986,24.3043478 42.9130435,22.0724638 L41.8695652,23.1449275 Z" id="Path" fill="#ED7D31"></path>
                                </g>
                                <polygon id="Path" fill="#ED7D31" points="48.4782609 53.4347826 40.826087 46.4492754 41.7971014 45.3768116 48.4202899 51.4202899 65.3768116 33.9130435 66.4057971 34.9275362"></polygon>
                                <path d="M13.6086957,100.478261 L9.5942029,100.478261 C6.88405797,100.478261 4.68115942,98.2753623 4.68115942,95.5652174 L4.68115942,92.0289855 C4.68115942,89.8985507 2.94202899,88.1594203 0.811594203,88.1594203 L0.811594203,86.7101449 C2.94202899,86.7101449 4.68115942,84.9710145 4.68115942,82.8405797 L4.68115942,79.2898551 C4.68115942,76.5797101 6.88405797,74.3768116 9.5942029,74.3768116 L13.6231884,74.3768116 L13.6231884,75.826087 L9.5942029,75.826087 C7.68115942,75.826087 6.13043478,77.3768116 6.13043478,79.2898551 L6.13043478,82.826087 C6.13043478,84.7826087 5.07246377,86.4927536 3.49275362,87.4202899 C5.07246377,88.3478261 6.13043478,90.057971 6.13043478,92.0144928 L6.13043478,95.5507246 C6.13043478,97.4637681 7.68115942,99.0144928 9.5942029,99.0144928 L13.6231884,99.0144928 L13.6231884,100.478261 L13.6086957,100.478261 Z" id="Path" fill="#33CCCC"></path>
                                <path d="M90.4347826,100.478261 L86.4057971,100.478261 L86.4057971,99.0289855 L90.4347826,99.0289855 C92.3478261,99.0289855 93.8985507,97.4782609 93.8985507,95.5652174 L93.8985507,92.0289855 C93.8985507,90.0724638 94.9565217,88.3623188 96.5362319,87.4347826 C94.9565217,86.5072464 93.8985507,84.7971014 93.8985507,82.8405797 L93.8985507,79.2898551 C93.8985507,77.3768116 92.3478261,75.826087 90.4347826,75.826087 L86.4057971,75.826087 L86.4057971,74.3768116 L90.4347826,74.3768116 C93.1449275,74.3768116 95.3478261,76.5797101 95.3478261,79.2898551 L95.3478261,82.826087 C95.3478261,84.9565217 97.0869565,86.6956522 99.2173913,86.6956522 L99.2173913,88.1449275 C97.0869565,88.1449275 95.3478261,89.884058 95.3478261,92.0144928 L95.3478261,95.5507246 C95.3478261,98.2608696 93.1449275,100.478261 90.4347826,100.478261 Z" id="Path" fill="#33CCCC"></path>
                            </g>
                        </g>
                    </g>
                </g>
            </g>
        </g>
    </g>
</svg>