<?xml version="1.0" encoding="UTF-8"?>
<svg width="61px" height="54px" viewBox="0 0 61 54" version="1.1" xmlns="http://www.w3.org/2000/svg" xmlns:xlink="http://www.w3.org/1999/xlink">
    <title>Pay</title>
    <g id="Page-1" stroke="none" stroke-width="1" fill="none" fill-rule="evenodd">
        <g id="NFORMACY" transform="translate(-1011.000000, -2864.000000)" fill="#ED7D31" fill-rule="nonzero">
            <g id="How-we-work." transform="translate(100.000000, 2642.000000)">
                <g id="5" transform="translate(861.400000, 222.000000)">
                    <g id="purse" transform="translate(50.000000, 0.000000)">
                        <path d="M57.3635156,22.3232812 L56.4850781,22.3232812 L56.4850781,19.6860938 L56.4850781,10.3110937 C56.4850781,7.24171875 53.9879297,4.74457031 50.9186719,4.74457031 L26.7805078,4.74457031 L10.4957813,0.0917578125 C10.4910938,0.09046875 10.4862891,0.089765625 10.4816016,0.0884765625 C10.4767969,0.0871875 10.4722266,0.0853125 10.4674219,0.084140625 C10.4575781,0.0816796875 10.4478516,0.0805078125 10.438125,0.0783984375 C10.4230078,0.075234375 10.4078906,0.071953125 10.3927734,0.0694921875 C10.3790625,0.067265625 10.3655859,0.065859375 10.351875,0.06421875 C10.3359375,0.06234375 10.3201172,0.060703125 10.3042969,0.059765625 C10.2914063,0.0585294781 10.2786328,0.0585294781 10.2657422,0.0585294781 C10.2493359,0.0585294781 10.2330469,0.0585294781 10.2167578,0.0585294781 C10.2046875,0.05953125 10.1926172,0.060703125 10.1806641,0.061640625 C10.1639063,0.063046875 10.1471484,0.0645703125 10.130625,0.06703125 C10.119375,0.068671875 10.1082422,0.07078125 10.0971094,0.0727734375 C10.08,0.0758203125 10.063125,0.0791015625 10.0463672,0.083203125 C10.0359375,0.08578125 10.0257422,0.0887109375 10.0154297,0.091640625 C9.99832031,0.0965625 9.98144531,0.101601563 9.96457031,0.107460938 C9.95507812,0.110859375 9.94570313,0.114492188 9.93621094,0.118242188 C9.91921875,0.124804688 9.90234375,0.13171875 9.88582031,0.139335938 C9.87703125,0.1434375 9.86847656,0.147890625 9.85980469,0.152226563 C9.84328125,0.160546875 9.82699219,0.168984375 9.81105469,0.178476563 C9.80273438,0.18328125 9.79476563,0.1884375 9.7865625,0.19359375 C9.77085938,0.2034375 9.75539062,0.213515625 9.74039062,0.224414063 C9.73253906,0.230039063 9.72492187,0.236132813 9.7171875,0.242109375 C9.70277344,0.253242188 9.68847656,0.264609375 9.67476563,0.276679688 C9.66703125,0.283476563 9.65964844,0.290625 9.65214844,0.29765625 C9.63925781,0.30984375 9.62648438,0.32203125 9.61429688,0.334921875 C9.60667969,0.343007813 9.59953125,0.351445313 9.59214844,0.359882813 C9.58101563,0.37265625 9.57,0.385546875 9.55957031,0.399023438 C9.55207031,0.40875 9.54503906,0.418710938 9.53789063,0.428671875 C9.52863281,0.441679688 9.51949219,0.454804688 9.51105469,0.46828125 C9.50378906,0.479765625 9.49710938,0.49171875 9.49042969,0.503554688 C9.48304688,0.5165625 9.47566406,0.5296875 9.46898438,0.543164063 C9.46242188,0.556289063 9.4565625,0.569765625 9.45058594,0.583242188 C9.44472656,0.596484375 9.43898438,0.609726563 9.43382813,0.623320313 C9.4284375,0.637617188 9.42375,0.652265625 9.41894531,0.66703125 C9.41589844,0.676523438 9.41214844,0.685429688 9.40933594,0.695039063 C9.40792969,0.69984375 9.40734375,0.70453125 9.40605469,0.70921875 C9.40476563,0.714023438 9.40289063,0.71859375 9.40171875,0.723398438 L8.39671875,4.74433594 L5.56699219,4.74433594 C2.50382813,4.74433594 0.011015625,7.23140625 0.0009375,10.2923437 C0.0008203125,10.2986719 0,10.3046484 0,10.3108594 L0,40.7796094 C0,41.2647656 0.394921875,41.6585156 0.87890625,41.6585156 C1.3640625,41.6585156 1.7578125,41.2647656 1.7578125,40.7796094 L1.7578125,14.3647266 C2.754375,15.3017578 4.09429688,15.8776172 5.56699219,15.8776172 L50.9186719,15.8776172 C50.9197266,15.8776172 50.9206641,15.8775 50.9217188,15.8775 C53.0203125,15.8791406 54.7272656,17.5870312 54.7272656,19.6862109 L54.7272656,25.8390234 L45.0578906,25.8390234 C45.0573047,25.8390234 45.0568359,25.8391406 45.05625,25.8391406 C45.0308203,25.8391406 45.0055078,25.8406641 44.9803125,25.8428906 C44.9523047,25.8453516 44.9246484,25.8493359 44.8974609,25.854375 C44.8933594,25.8550781 44.889375,25.8554297 44.8852734,25.85625 C44.8623047,25.8608203 44.8398047,25.8669141 44.8174219,25.8732422 C44.8125,25.8746484 44.8074609,25.8755859 44.8026563,25.8771094 C44.7827344,25.8832031 44.7633984,25.8904688 44.7440625,25.8978516 C44.7366797,25.9006641 44.7291797,25.9030078 44.7217969,25.9060547 C44.705625,25.9127344 44.6900391,25.9205859 44.6744531,25.9282031 C44.6641406,25.933125 44.6537109,25.9376953 44.6436328,25.9429687 C44.6314453,25.9494141 44.6199609,25.9567969 44.6082422,25.9638281 C44.5952344,25.9715625 44.5819922,25.9790625 44.5693359,25.9875 C44.5607813,25.993125 44.5529297,25.9995703 44.5447266,26.0055469 C44.5297266,26.0163281 44.5146094,26.0269922 44.5003125,26.0388281 C44.4941016,26.0439844 44.4883594,26.0497266 44.4823828,26.055 C44.4670313,26.0683594 44.4516797,26.0816016 44.4371484,26.0961328 C44.4285938,26.1046875 44.4208594,26.1140625 44.4127734,26.1229688 C44.4014063,26.1352734 44.3896875,26.1473438 44.3789063,26.1604687 C44.3607422,26.1826172 44.34375,26.2055859 44.3278125,26.229375 C44.3274609,26.2297266 44.3271094,26.2301953 44.326875,26.2306641 L39.6396094,33.2620312 C39.6069141,33.3110156 39.5792578,33.3629297 39.5573438,33.4169531 C39.5490234,33.4371094 39.5423438,33.4576172 39.5356641,33.4780078 C39.5336719,33.4842188 39.5310938,33.4901953 39.5292188,33.4964062 C39.5226563,33.5180859 39.5176172,33.54 39.5128125,33.5617969 C39.5115234,33.5675391 39.5098828,33.5731641 39.5087109,33.5789062 C39.5048438,33.5985937 39.5022656,33.6183984 39.4998047,33.6382031 C39.49875,33.6466406 39.4971094,33.6550781 39.4962891,33.6636328 C39.4946484,33.6799219 39.4942969,33.6960937 39.4937109,33.7123828 C39.493125,33.7248047 39.4920703,33.7372266 39.4920703,33.7497656 C39.4920703,33.7618359 39.493125,33.7739063 39.4935938,33.7859766 C39.4941797,33.8026172 39.4946484,33.819375 39.4962891,33.8360156 C39.4971094,33.8441016 39.4986328,33.8521875 39.4996875,33.8602734 C39.5022656,33.8804297 39.5048438,33.9005859 39.5088281,33.920625 C39.5098828,33.9261328 39.5115234,33.9315234 39.5128125,33.9370312 C39.5176172,33.9590625 39.5227734,33.9810937 39.5293359,34.0030078 C39.5312109,34.0092187 39.5337891,34.0151953 39.5357813,34.0215234 C39.5424609,34.0419141 39.5491406,34.0624219 39.5574609,34.0825781 C39.5794922,34.1364844 39.6071484,34.1885156 39.6399609,34.2376172 L44.3271094,41.2679297 C44.3273438,41.2682812 44.3275781,41.2685156 44.3278125,41.2688672 C44.3466797,41.296875 44.3673047,41.3235937 44.3891016,41.3492578 C44.39625,41.3576953 44.4038672,41.3655469 44.41125,41.3735156 C44.4261328,41.3898047 44.4416016,41.4055078 44.4576563,41.420625 C44.4671484,41.4295312 44.4765234,41.4382031 44.4861328,41.4465234 C44.5032422,41.4611719 44.5209375,41.4748828 44.5391016,41.4882422 C44.5473047,41.4942187 44.5551563,41.5007812 44.5634766,41.5064062 C44.5898438,41.5243359 44.6171484,41.5408594 44.6453906,41.5558594 C44.6525391,41.5596094 44.6599219,41.5627734 44.6670703,41.5662891 C44.6895703,41.5775391 44.7125391,41.5879687 44.7360938,41.5972266 C44.7452344,41.6008594 44.754375,41.6041406 44.7636328,41.6074219 C44.7860156,41.6153906 44.80875,41.6224219 44.8319531,41.6286328 C44.8414453,41.6310937 44.8508203,41.6336719 44.8604297,41.6360156 C44.8842188,41.6415234 44.9083594,41.6457422 44.9328516,41.6492578 C44.9417578,41.6505469 44.9505469,41.6523047 44.9594531,41.6533594 C44.9896875,41.6567578 45.0203906,41.6586328 45.0515625,41.6588672 C45.0540234,41.6588672 45.0564844,41.6593359 45.0590625,41.6593359 C45.0595313,41.6593359 45.0601172,41.6592188 45.0607031,41.6592188 L54.7276172,41.6592188 L54.7276172,47.8125 C54.7276172,49.9127344 53.0190234,51.6213281 50.9190234,51.6213281 L5.56746094,51.6213281 C3.46746094,51.6213281 1.75886719,49.9127344 1.75886719,47.8125 C1.75886719,47.8079297 1.75828125,47.8034766 1.75816406,47.7989063 L1.75816406,44.2957031 C1.75816406,43.8117188 1.36441406,43.4167969 0.879257813,43.4167969 C0.395273438,43.4167969 0,43.8117188 0,44.2957031 L0,47.8125 C0,47.8216406 0.00140625,47.8305469 0.0017578125,47.8395703 C0.01640625,50.8965234 2.50722656,53.3791406 5.56746094,53.3791406 L50.9190234,53.3791406 C53.9880469,53.3791406 56.4849609,50.8824609 56.4854297,47.8134375 C56.4854297,47.8133203 56.4854297,47.8132031 56.4854297,47.8129688 L56.4854297,41.6592188 L57.3638672,41.6592188 C58.8174609,41.6592188 60.0001172,40.4765625 60.0001172,39.0229688 L60.0001172,24.9595313 C60.0001172,23.5059375 58.8171094,22.3232812 57.3635156,22.3232812 Z M10.8867187,2.0315625 L26.3951953,6.46277344 C26.3958984,6.46300781 26.3967187,6.463125 26.3974219,6.46335937 L36.7914844,9.433125 L9.03679687,9.433125 L10.8867187,2.0315625 Z M54.7271484,15.6321094 C53.7307031,14.6953125 52.3910156,14.1195703 50.9186719,14.1195703 C50.9171484,14.1195703 50.9157422,14.1198047 50.9141016,14.1198047 L5.56699219,14.1198047 C3.466875,14.1198047 1.75828125,12.4112109 1.75828125,10.3110937 C1.75828125,8.21097656 3.466875,6.50238281 5.56699219,6.50238281 L7.95738281,6.50238281 L7.22496094,9.433125 L5.56722656,9.433125 C5.08183594,9.433125 4.68832031,9.82664062 4.68832031,10.3120312 C4.68832031,10.7974219 5.08183594,11.1909375 5.56722656,11.1909375 L7.90816406,11.1909375 C7.90933594,11.1909375 7.910625,11.1911719 7.91191406,11.1911719 C7.91285156,11.1911719 7.91378906,11.1909375 7.91460937,11.1909375 L43.0639453,11.1909375 C43.0651172,11.1909375 43.0661719,11.1911719 43.0672266,11.1911719 C43.0681641,11.1911719 43.0691016,11.1909375 43.0700391,11.1909375 L49.7457422,11.1909375 C50.2311328,11.1909375 50.6246484,10.7974219 50.6246484,10.3120312 C50.6246484,9.82664062 50.2311328,9.433125 49.7457422,9.433125 L43.1899219,9.433125 L32.9326172,6.50238281 L50.9185547,6.50238281 C53.0185547,6.50238281 54.7271484,8.21097656 54.7271484,10.3110937 L54.7271484,15.6321094 Z M58.2419531,39.0225 L58.2419531,39.0225 C58.2419531,39.5068359 57.8478516,39.9009375 57.3635156,39.9009375 L45.5282813,39.9009375 L41.4268359,33.7492969 L45.5282813,27.5967187 L57.3635156,27.5967187 C57.3758203,27.5967187 57.3877734,27.5953125 57.3999609,27.5948437 C57.6948047,27.5907422 57.9779297,27.5382422 58.2419531,27.4447266 L58.2419531,39.0225 L58.2419531,39.0225 Z M57.3635156,25.8379687 C57.3574219,25.8379687 57.3514453,25.8387891 57.3453516,25.8389062 L56.4850781,25.8389062 L56.4850781,24.0810937 L57.3635156,24.0810937 C57.8478516,24.0810937 58.2419531,24.4751953 58.2419531,24.9595312 C58.2419531,25.4438672 57.8478516,25.8379687 57.3635156,25.8379687 Z" id="Shape"></path>
                        <path d="M48.5741016,30.5265234 C46.7970703,30.5265234 45.3514453,31.9722656 45.3514453,33.7492969 C45.3514453,35.5263281 46.7970703,36.9719531 48.5741016,36.9719531 C50.3511328,36.9719531 51.7967578,35.5263281 51.7967578,33.7492969 C51.7967578,31.9722656 50.3511328,30.5265234 48.5741016,30.5265234 Z M48.5741016,35.2141406 C47.7663281,35.2141406 47.1092578,34.5570703 47.1092578,33.7492969 C47.1092578,32.9415234 47.7663281,32.2843359 48.5741016,32.2843359 C49.381875,32.2843359 50.0389453,32.9415234 50.0389453,33.7492969 C50.0389453,34.5570703 49.381875,35.2141406 48.5741016,35.2141406 Z" id="Shape"></path>
                    </g>
                </g>
            </g>
        </g>
    </g>
</svg>