<?xml version="1.0" encoding="UTF-8"?>
<svg width="99px" height="100px" viewBox="0 0 99 100" version="1.1" xmlns="http://www.w3.org/2000/svg" xmlns:xlink="http://www.w3.org/1999/xlink">
    <title>Project management</title>
    <g id="Page-1" stroke="none" stroke-width="1" fill="none" fill-rule="evenodd">
        <g id="NFORMACY" transform="translate(-1100.000000, -3738.000000)" fill-rule="nonzero">
            <g id="Areas-of-speciality" transform="translate(0.000000, 3360.000000)">
                <g id="Group-5" transform="translate(101.000000, 328.000000)">
                    <g id="3" transform="translate(858.000000, 0.000000)">
                        <g id="Project-management" transform="translate(141.000000, 50.000000)">
                            <polygon id="Path" fill="#E7923D" points="45.4788732 48.8450704 31.6901408 21.1830986 28.915493 22.5633803 43.3802817 51.6056338 12.5915493 38.4084507 11.3661972 41.2676056 41.915493 54.3521127 13.084507 68.084507 14.4225352 70.8873239 44.0422535 56.7746479 36.7887324 87.4788732 39.8169014 88.1830986 45.4788732 64.2253521"></polygon>
                            <g id="Group" transform="translate(76.056338, 80.281690)" fill="#33CCCC">
                                <polygon id="Path" points="9.5915493 5.66197183 8.18309859 5.66197183 8.18309859 8.94366197 4.90140845 8.94366197 4.90140845 10.3521127 8.18309859 10.3521127 8.18309859 13.6478873 9.5915493 13.6478873 9.5915493 10.3521127 12.8873239 10.3521127 12.8873239 8.94366197 9.5915493 8.94366197"></polygon>
                                <path d="M8.88732394,0.957746479 C4.09859155,0.957746479 0.197183099,4.85915493 0.197183099,9.64788732 C0.197183099,14.4366197 4.09859155,18.3380282 8.88732394,18.3380282 C13.6760563,18.3380282 17.5774648,14.4366197 17.5774648,9.64788732 C17.5774648,4.85915493 13.6901408,0.957746479 8.88732394,0.957746479 Z M8.88732394,16.9295775 C4.87323944,16.9295775 1.6056338,13.6619718 1.6056338,9.64788732 C1.6056338,5.63380282 4.87323944,2.36619718 8.88732394,2.36619718 C12.9014085,2.36619718 16.1690141,5.63380282 16.1690141,9.64788732 C16.1690141,13.6619718 12.915493,16.9295775 8.88732394,16.9295775 Z" id="Shape"></path>
                            </g>
                            <path d="M68.5633803,77.4647887 C62.4647887,83.3943662 54.1549296,87.056338 45,87.056338 C26.3661972,87.056338 11.1971831,71.8873239 11.1971831,53.2535211 C11.1971831,34.6197183 26.3661972,19.4507042 45,19.4507042 C45.1549296,19.4507042 45.3098592,19.4647887 45.4647887,19.4647887 L45.4647887,16.6478873 C45.3098592,16.6478873 45.1549296,16.6338028 45,16.6338028 C24.8028169,16.6338028 8.38028169,33.056338 8.38028169,53.2535211 C8.38028169,73.4507042 24.8028169,89.8732394 45,89.8732394 C55.915493,89.8732394 65.7323944,85.056338 72.4507042,77.4647887 L68.5633803,77.4647887 Z" id="Path" fill="#125773"></path>
                            <path d="M9.77464789,10.7746479 L0.38028169,10.7746479 L0.38028169,1.38028169 L9.77464789,1.38028169 L9.77464789,10.7746479 Z M1.78873239,9.36619718 L8.36619718,9.36619718 L8.36619718,2.78873239 L1.78873239,2.78873239 L1.78873239,9.36619718 Z" id="Shape" fill="#33CCCC"></path>
                            <path d="M9.77464789,26.7464789 L0.38028169,26.7464789 L0.38028169,17.3521127 L9.77464789,17.3521127 L9.77464789,26.7464789 Z M1.78873239,25.3380282 L8.36619718,25.3380282 L8.36619718,18.7605634 L1.78873239,18.7605634 L1.78873239,25.3380282 Z" id="Shape" fill="#33CCCC"></path>
                            <polygon id="Path" fill="#33CCCC" points="14.6619718 11.0985915 11.6901408 6.45070423 12.8732394 5.69014085 15.0140845 9.04225352 24.6478873 1.53521127 25.5070423 2.63380282"></polygon>
                            <polygon id="Path" fill="#33CCCC" points="14.6619718 27.0704225 11.6901408 22.4225352 12.8732394 21.6619718 15.0140845 25.0140845 24.6478873 17.4929577 25.5070423 18.6056338"></polygon>
                            <path d="M76.9577465,41.2112676 C74.6056338,41.2112676 72.6760563,42.943662 72.3380282,45.1971831 L69.6760563,45.1971831 L69.6760563,30.6478873 L76.1690141,30.6478873 L76.1690141,35.0704225 L86.5211268,29.943662 L76.1690141,24.8169014 L76.1690141,29.2394366 L61.7042254,29.2394366 L61.7042254,14.6760563 L68.1971831,14.6760563 L68.1971831,18.6619718 L77.5915493,18.6619718 L77.5915493,9.28169014 L68.1971831,9.28169014 L68.1971831,13.2676056 L60.2957746,13.2676056 L60.2957746,29.2394366 L53.6197183,29.2394366 C53.2394366,27.028169 51.3239437,25.3380282 49,25.3380282 L49,26.7464789 C50.8169014,26.7464789 52.2816901,28.2253521 52.2816901,30.028169 C52.2816901,31.8450704 50.8028169,33.3098592 49,33.3098592 L49,34.7183099 C51.3802817,34.7183099 53.3239437,32.9295775 53.6338028,30.6338028 L68.2676056,30.6338028 L68.2676056,46.6197183 L72.3380282,46.6197183 C72.6760563,48.8732394 74.6197183,50.6056338 76.9577465,50.6056338 C79.5492958,50.6056338 81.6478873,48.4929577 81.6478873,45.915493 C81.6478873,43.3380282 79.5492958,41.2112676 76.9577465,41.2112676 Z M77.5915493,27.084507 L83.3661972,29.943662 L77.5915493,32.8028169 L77.5915493,27.084507 Z M69.6056338,10.6901408 L76.1830986,10.6901408 L76.1830986,17.2676056 L69.6056338,17.2676056 L69.6056338,10.6901408 Z M76.9577465,49.1971831 C75.1408451,49.1971831 73.6760563,47.7183099 73.6760563,45.915493 C73.6760563,44.1126761 75.1549296,42.6338028 76.9577465,42.6338028 C78.7605634,42.6338028 80.2394366,44.1126761 80.2394366,45.915493 C80.2394366,47.7183099 78.7746479,49.1971831 76.9577465,49.1971831 Z" id="Shape" fill="#125773"></path>
                            <path d="M98.3239437,75.3521127 L47.5915493,75.3521127 L47.5915493,0.676056338 L98.3239437,0.676056338 L98.3239437,75.3521127 L98.3239437,75.3521127 Z M50.4084507,72.5352113 L95.5070423,72.5352113 L95.5070423,3.49295775 L50.4084507,3.49295775 L50.4084507,72.5352113 Z" id="Shape" fill="#125773"></path>
                            <rect id="Rectangle" fill="#E7923D" x="55.8309859" y="57.2676056" width="13.6478873" height="1.4084507"></rect>
                            <rect id="Rectangle" fill="#E7923D" x="55.8309859" y="64.8450704" width="30.2816901" height="1.4084507"></rect>
                        </g>
                    </g>
                </g>
            </g>
        </g>
    </g>
</svg>