<?xml version="1.0" encoding="UTF-8"?>
<svg width="60px" height="60px" viewBox="0 0 60 60" version="1.1" xmlns="http://www.w3.org/2000/svg" xmlns:xlink="http://www.w3.org/1999/xlink">
    <title>Sign up</title>
    <g id="Page-1" stroke="none" stroke-width="1" fill="none" fill-rule="evenodd">
        <g id="NFORMACY" transform="translate(-150.000000, -2861.000000)" fill="#ED7D31" fill-rule="nonzero">
            <g id="How-we-work." transform="translate(100.000000, 2642.000000)">
                <g id="1" transform="translate(0.000000, 219.000000)">
                    <g id="Sign-up" transform="translate(50.000000, 0.000000)">
                        <path d="M40.6451613,21.2903226 C39.9503226,21.2903226 39.266129,21.3309677 38.5896774,21.4025806 C38.6612903,20.7232258 38.7096774,20.04 38.7096774,19.3548387 C38.7096774,8.68258065 30.0270968,0 19.3548387,0 C8.68258065,0 0,8.68258065 0,19.3548387 C0,30.0270968 8.68258065,38.7096774 19.3548387,38.7096774 C20.04,38.7096774 20.7232258,38.6622581 21.4025806,38.5906452 C21.3309677,39.266129 21.2903226,39.9512903 21.2903226,40.6451613 C21.2903226,51.3174194 29.9729032,60 40.6451613,60 C51.3174194,60 60,51.3174194 60,40.6451613 C60,29.9729032 51.3174194,21.2903226 40.6451613,21.2903226 Z M19.3548387,36.7741935 C9.75,36.7741935 1.93548387,28.9596774 1.93548387,19.3548387 C1.93548387,9.75 9.75,1.93548387 19.3548387,1.93548387 C28.9596774,1.93548387 36.7741935,9.75 36.7741935,19.3548387 C36.7741935,20.1493548 36.7045161,20.9409677 36.5980645,21.7229032 C35.8993548,21.8719355 35.2180645,22.0664516 34.5493548,22.2890323 C34.7341935,21.326129 34.8387097,20.3458065 34.8387097,19.3548387 C34.8387097,10.8174194 27.8922581,3.87096774 19.3548387,3.87096774 C10.8174194,3.87096774 3.87096774,10.8174194 3.87096774,19.3548387 C3.87096774,27.8922581 10.8174194,34.8387097 19.3548387,34.8387097 C20.3458065,34.8387097 21.3251613,34.7341935 22.2890323,34.5493548 C22.0664516,35.2180645 21.8729032,35.8993548 21.7229032,36.5970968 C20.94,36.7035484 20.1493548,36.7741935 19.3548387,36.7741935 Z M23.186129,32.3467742 C21.9464516,32.7116129 20.6603226,32.9032258 19.3548387,32.9032258 C15.5893548,32.9032258 12.1809677,31.3567742 9.72387097,28.8696774 C9.9,27.6667742 10.7912903,26.696129 12.0058065,26.4503226 L15.5796774,25.7254839 C15.8022581,25.6616129 16.0132258,25.5725806 16.2174194,25.4729032 L19.3548387,29.6845161 L22.4990323,25.4641935 C22.7225806,25.5745161 22.9548387,25.6732258 23.2045161,25.743871 L26.703871,26.4503226 C26.9158065,26.4929032 27.116129,26.5654839 27.3106452,26.6525806 C25.6093548,28.2745161 24.21,30.2022581 23.186129,32.3467742 L23.186129,32.3467742 Z M14.516129,19.3548387 C13.9829032,19.3548387 13.5483871,18.9203226 13.5483871,18.3870968 C13.5483871,17.853871 13.9829032,17.4193548 14.516129,17.4193548 L14.516129,19.3548387 Z M15.2709677,15.483871 L14.516129,15.483871 C14.2616129,15.483871 14.0187097,15.5274194 13.7835484,15.5893548 C13.6345161,15.1364516 13.5483871,14.6632258 13.5483871,14.1841935 C13.5483871,11.6990323 15.57,9.67741935 18.0551613,9.67741935 L20.6554839,9.67741935 C23.1396774,9.67741935 25.1612903,11.6990323 25.1612903,14.1841935 C25.1612903,14.6632258 25.0751613,15.1364516 24.926129,15.5893548 C24.6909677,15.5274194 24.4480645,15.483871 24.1935484,15.483871 L23.2258065,15.483871 L21.5187097,15.483871 C20.2529032,15.483871 18.9851613,15.1848387 17.8519355,14.6177419 L17.6477419,14.516129 L17.4193548,14.516129 C16.5648387,14.516129 15.8032258,14.8945161 15.2709677,15.483871 Z M24.1935484,17.4193548 C24.7267742,17.4193548 25.1612903,17.853871 25.1612903,18.3870968 C25.1612903,18.9203226 24.7267742,19.3548387 24.1935484,19.3548387 L24.1935484,17.4193548 Z M22.2580645,19.3548387 C22.2580645,20.9554839 20.9554839,22.2580645 19.3548387,22.2580645 C17.7541935,22.2580645 16.4516129,20.9554839 16.4516129,19.3548387 L16.4516129,17.4193548 C16.4516129,16.9490323 16.7893548,16.5551613 17.2345161,16.4690323 C18.57,17.0912903 20.0458065,17.4193548 21.5187097,17.4193548 L22.2580645,17.4193548 L22.2580645,19.3548387 Z M17.8654839,23.9341935 C18.3377419,24.0890323 18.8322581,24.1935484 19.3548387,24.1935484 C19.8783871,24.1935484 20.3729032,24.0890323 20.8451613,23.9341935 C20.8993548,24.0280645 20.9574194,24.12 21.0203226,24.2090323 L19.3548387,26.4445161 L17.6903226,24.2109677 C17.7522581,24.1209677 17.8103226,24.0290323 17.8654839,23.9341935 L17.8654839,23.9341935 Z M28.8687097,25.32 C28.3345161,24.9503226 27.7335484,24.6832258 27.086129,24.5535484 L23.6603226,23.8645161 C23.1745161,23.726129 22.7758065,23.4009677 22.5280645,22.9770968 C23.0583871,22.5116129 23.4948387,21.9445161 23.7822581,21.2903226 L24.1935484,21.2903226 C25.7941935,21.2903226 27.0967742,19.9877419 27.0967742,18.3870968 C27.0967742,17.7677419 26.8983871,17.1967742 26.5674194,16.7245161 C26.9109677,15.9241935 27.0967742,15.0590323 27.0967742,14.1841935 C27.0967742,10.6316129 24.2070968,7.74193548 20.6545161,7.74193548 L18.0541935,7.74193548 C14.5025806,7.74193548 11.6129032,10.6316129 11.6129032,14.1841935 C11.6129032,15.06 11.7987097,15.9241935 12.1422581,16.7254839 C11.8112903,17.1967742 11.6129032,17.7677419 11.6129032,18.3870968 C11.6129032,19.9877419 12.9154839,21.2903226 14.516129,21.2903226 L14.9264516,21.2903226 C15.213871,21.9454839 15.6512903,22.5125806 16.1816129,22.9780645 C15.9377419,23.4 15.5545161,23.7212903 15.1219355,23.846129 L11.6225806,24.5525806 C10.1196774,24.8554839 8.92064516,25.8290323 8.27322581,27.1248387 C6.72483871,24.9222581 5.80645161,22.2464516 5.80645161,19.3548387 C5.80645161,11.883871 11.883871,5.80645161 19.3548387,5.80645161 C26.8258065,5.80645161 32.9032258,11.883871 32.9032258,19.3548387 C32.9032258,20.6622581 32.7087097,21.9483871 32.343871,23.1880645 C31.1070968,23.7783871 29.9448387,24.4925806 28.8687097,25.32 L28.8687097,25.32 Z M40.6451613,58.0645161 C31.0403226,58.0645161 23.2258065,50.25 23.2258065,40.6451613 C23.2258065,31.0403226 31.0403226,23.2258065 40.6451613,23.2258065 C50.25,23.2258065 58.0645161,31.0403226 58.0645161,40.6451613 C58.0645161,50.25 50.25,58.0645161 40.6451613,58.0645161 Z" id="Shape"></path>
                        <path d="M54.7374194,25.3770968 L56.6409677,25.0248387 C56.5132258,24.3387097 56.3574194,23.6487097 56.1774194,22.9751613 L54.3077419,23.4764516 C54.4751613,24.1006452 54.6193548,24.7403226 54.7374194,25.3770968 Z" id="Path"></path>
                        <path d="M39.6774194,8.70967742 C40.5154839,8.70967742 41.2654839,8.34774194 41.7967742,7.77677419 C47.3206452,10.7196774 51.6464516,15.716129 53.73,21.6125806 L55.5551613,20.9680645 C53.2935484,14.5674194 48.5777419,9.15193548 42.5622581,5.99419355 C42.566129,5.93129032 42.5806452,5.87032258 42.5806452,5.80645161 C42.5806452,4.20580645 41.2780645,2.90322581 39.6774194,2.90322581 C38.0767742,2.90322581 36.7741935,4.20580645 36.7741935,5.80645161 C36.7741935,7.40709677 38.0767742,8.70967742 39.6774194,8.70967742 Z M39.6774194,4.83870968 C40.2106452,4.83870968 40.6451613,5.27322581 40.6451613,5.80645161 C40.6451613,6.33967742 40.2106452,6.77419355 39.6774194,6.77419355 C39.1441935,6.77419355 38.7096774,6.33967742 38.7096774,5.80645161 C38.7096774,5.27322581 39.1441935,4.83870968 39.6774194,4.83870968 Z" id="Shape"></path>
                        <path d="M5.26258065,34.6229032 L3.35903226,34.9751613 C3.48677419,35.6612903 3.64258065,36.3512903 3.82258065,37.0248387 L5.69225806,36.5235484 C5.52483871,35.8993548 5.38064516,35.2596774 5.26258065,34.6229032 Z" id="Path"></path>
                        <path d="M20.3225806,51.2903226 C19.4845161,51.2903226 18.7345161,51.6522581 18.2032258,52.2232258 C12.6803226,49.2803226 8.35451613,44.283871 6.27,38.3874194 L4.44483871,39.0319355 C6.70645161,45.4325806 11.4222581,50.8480645 17.4377419,54.0058065 C17.433871,54.0687097 17.4193548,54.1296774 17.4193548,54.1935484 C17.4193548,55.7941935 18.7219355,57.0967742 20.3225806,57.0967742 C21.9232258,57.0967742 23.2258065,55.7941935 23.2258065,54.1935484 C23.2258065,52.5929032 21.9232258,51.2903226 20.3225806,51.2903226 Z M20.3225806,55.1612903 C19.7893548,55.1612903 19.3548387,54.7267742 19.3548387,54.1935484 C19.3548387,53.6603226 19.7893548,53.2258065 20.3225806,53.2258065 C20.8558065,53.2258065 21.2903226,53.6603226 21.2903226,54.1935484 C21.2903226,54.7267742 20.8558065,55.1612903 20.3225806,55.1612903 Z" id="Shape"></path>
                        <path d="M52.0925806,32.1019355 C52.0916129,32.1019355 52.0916129,32.1019355 52.0925806,32.1019355 C51.1819355,31.1912903 49.923871,30.8022581 48.6406452,31.0325806 C47.88,31.17 47.1551613,31.5658065 46.5435484,32.1774194 L35.8064516,42.9125806 L32.8112903,39.9164516 C32.1987097,39.3058065 31.473871,38.91 30.7151613,38.7735484 C29.4309677,38.5412903 28.173871,38.9312903 27.2632258,39.8419355 C26.3525806,40.7525806 25.9625806,42.0106452 26.193871,43.293871 C26.3312903,44.0545161 26.7270968,44.7793548 27.3387097,45.3909677 L33.0696774,51.1229032 C33.8003226,51.8554839 34.7719355,52.2580645 35.8064516,52.2580645 C36.8409677,52.2580645 37.8125806,51.8554839 38.5432258,51.123871 L52.0170968,37.65 C52.6287097,37.0383871 53.0245161,36.3135484 53.1619355,35.5529032 C53.3922581,34.2706452 53.0032258,33.0125806 52.0925806,32.1019355 L52.0925806,32.1019355 Z M51.2564516,35.2103226 C51.1722581,35.6777419 50.8790323,36.0512903 50.6487097,36.2816129 L37.1748387,49.7554839 C36.4441935,50.4870968 35.1696774,50.4870968 34.4380645,49.7554839 L28.706129,44.0235484 C28.4758065,43.7922581 28.1825806,43.4187097 28.0983871,42.9512903 C27.9812903,42.3019355 28.1758065,41.6680645 28.6325806,41.2122581 C29.0003226,40.8435484 29.486129,40.6451613 30.0019355,40.6451613 C30.1229032,40.6451613 30.2467742,40.6558065 30.3716129,40.6780645 C30.8380645,40.7622581 31.2125806,41.0554839 31.4429032,41.2858065 L35.8064516,45.6493548 L47.9119355,33.5448387 C48.1432258,33.3145161 48.5167742,33.0212903 48.9841935,32.9370968 C49.6335484,32.82 50.2674194,33.0145161 50.7232258,33.4703226 C51.1790323,33.926129 51.3735484,34.56 51.2564516,35.2103226 L51.2564516,35.2103226 Z" id="Shape"></path>
                    </g>
                </g>
            </g>
        </g>
    </g>
</svg>