<?xml version="1.0" encoding="UTF-8"?>
<svg width="78px" height="142px" viewBox="0 0 78 142" version="1.1" xmlns="http://www.w3.org/2000/svg" xmlns:xlink="http://www.w3.org/1999/xlink">
    <title>Ask the experts</title>
    <g id="Page-1" stroke="none" stroke-width="1" fill="none" fill-rule="evenodd">
        <g id="NFORMACY" transform="translate(-572.000000, -1771.000000)" fill="#125773" fill-rule="nonzero" stroke="#125773">
            <g id="Our-Solutions" transform="translate(0.000000, 1456.000000)">
                <g id="Group-9" transform="translate(90.000000, 276.000000)">
                    <g id="Group" transform="translate(483.000000, 40.000000)">
                        <path d="M48.0976056,1.74631999 C36.376488,-1.24737156 24.3049918,1.13440208 14.98681,8.31267129 C5.67336319,15.4862333 0.332454095,26.3124757 0.332454095,38.0095242 C0.332454095,39.3416228 1.41673434,40.4195399 2.75669652,40.4195399 C4.0966587,40.4195399 5.18093894,39.3416228 5.18093894,38.0095242 C5.18093894,27.8140282 9.83766234,18.3763693 17.95556,12.1253912 C26.0852948,5.86499914 36.63217,3.7797707 46.8854844,6.41572531 C57.9887043,9.25879089 67.0133254,18.2304506 69.8755411,29.2732175 C73.5947644,43.6109279 68.0242155,57.8968606 55.6899353,65.6682192 C43.1544235,73.5619623 35.6709957,86.2898574 35.6709957,99.7143975 L35.6709957,108.577795 C35.6709957,109.909894 36.7552759,110.987811 38.0952381,110.987811 C39.4352003,110.987811 40.5194805,109.909894 40.5194805,108.577795 L40.5194805,99.7143975 C40.5194805,87.95145 47.1601055,76.7486431 58.284632,69.7398279 C72.2145564,60.9658646 78.7581166,44.2181386 74.5725108,28.0682097 C71.2746888,15.3544358 60.8840638,5.02243502 48.0976056,1.74631999 Z" id="Path"></path>
                        <path d="M34.6530034,131.617395 C33.7794238,132.535272 33.2467532,133.787351 33.2467532,135.039429 C33.2467532,136.343286 33.7794238,137.548293 34.6530034,138.461463 C35.5739314,139.37934 36.833401,139.859461 38.0952381,139.859461 C39.3547077,139.859461 40.6165448,139.37934 41.5374728,138.461463 C42.4086849,137.548293 42.9437229,136.296215 42.9437229,135.039429 C42.9437229,133.787351 42.4086849,132.535273 41.5374728,131.669173 C39.7429656,129.833419 36.4451435,129.885196 34.6530034,131.617395 Z" id="Path"></path>
                    </g>
                </g>
            </g>
        </g>
    </g>
</svg>