<?xml version="1.0" encoding="UTF-8"?>
<svg width="35px" height="32px" viewBox="0 0 35 32" version="1.1" xmlns="http://www.w3.org/2000/svg" xmlns:xlink="http://www.w3.org/1999/xlink">
    <title>noun_calender_2395472@2x</title>
    <g id="Page-1" stroke="none" stroke-width="1" fill="none" fill-rule="evenodd">
        <g id="CLIENT-View-Mobile-Copy" transform="translate(-79.000000, -1055.000000)" fill="#FFFFFF" fill-rule="nonzero" stroke="#FFFFFF" stroke-width="1.5">
            <g id="Group-11" transform="translate(20.000000, 1032.000000)">
                <g id="Group" transform="translate(60.000000, 24.000000)">
                    <path d="M24.4202226,9.53520164 L0.156539889,9.53520164 C0.0701298701,9.53520164 0,9.46630212 0,9.38140807 C0,9.29651401 0.0701298701,9.22761449 0.156539889,9.22761449 L24.4202226,9.22761449 C24.5066327,9.22761449 24.5767625,9.29651401 24.5767625,9.38140807 C24.5767625,9.46630212 24.5066327,9.53520164 24.4202226,9.53520164 Z" id="Path"></path>
                    <path d="M28.7250696,29.5283664 L3.67868738,29.5283664 C1.65024351,29.5283664 0,27.9070745 0,25.9142174 L0,6.69002051 C0,4.69716336 1.65024351,3.0758715 3.67868738,3.0758715 L5.63543599,3.0758715 C5.72184601,3.0758715 5.79197588,3.14477102 5.79197588,3.22966507 L5.79197588,6.15174299 L9.39239332,6.15174299 L9.39239332,3.22966507 C9.39239332,3.14477102 9.46252319,3.0758715 9.54893321,3.0758715 L22.8548237,3.0758715 C22.9412338,3.0758715 23.0113636,3.14477102 23.0113636,3.22966507 L23.0113636,6.15174299 L26.6117811,6.15174299 L26.6117811,3.22966507 C26.6117811,3.14477102 26.6819109,3.0758715 26.768321,3.0758715 L28.7250696,3.0758715 C30.7535135,3.0758715 32.403757,4.69716336 32.403757,6.69002051 L32.403757,25.9142174 C32.403757,27.9070745 30.7535135,29.5283664 28.7250696,29.5283664 Z M3.67868738,3.38345865 C1.822907,3.38345865 0.313079777,4.86679768 0.313079777,6.69002051 L0.313079777,25.9142174 C0.313079777,27.7374402 1.822907,29.2207792 3.67868738,29.2207792 L28.7250696,29.2207792 C30.58085,29.2207792 32.0906772,27.7374402 32.0906772,25.9142174 L32.0906772,6.69002051 C32.0906772,4.86679768 30.58085,3.38345865 28.7250696,3.38345865 L26.9248609,3.38345865 L26.9248609,6.30553657 C26.9248609,6.39043062 26.854731,6.45933014 26.768321,6.45933014 L22.8548237,6.45933014 C22.7684137,6.45933014 22.6982839,6.39043062 22.6982839,6.30553657 L22.6982839,3.38345865 L9.7054731,3.38345865 L9.7054731,6.30553657 C9.7054731,6.39043062 9.63534323,6.45933014 9.54893321,6.45933014 L5.63543599,6.45933014 C5.54902597,6.45933014 5.4788961,6.39043062 5.4788961,6.30553657 L5.4788961,3.38345865 L3.67868738,3.38345865 Z" id="Shape"></path>
                    <path d="M9.54893321,6.45933014 L5.63543599,6.45933014 C5.54902597,6.45933014 5.4788961,6.39043062 5.4788961,6.30553657 L5.4788961,2.07621326 C5.4788961,0.931373889 6.42690167,0 7.5921846,0 C8.75746753,0 9.7054731,0.931373889 9.7054731,2.07621326 L9.7054731,6.30553657 C9.7054731,6.39043062 9.63534323,6.45933014 9.54893321,6.45933014 Z M5.79197588,6.15174299 L9.39239332,6.15174299 L9.39239332,2.07621326 C9.39239332,1.1010082 8.58480404,0.30758715 7.5921846,0.30758715 C6.59956517,0.30758715 5.79197588,1.1010082 5.79197588,2.07621326 L5.79197588,6.15174299 Z" id="Shape"></path>
                    <path d="M26.768321,6.45933014 L22.8548237,6.45933014 C22.7684137,6.45933014 22.6982839,6.39043062 22.6982839,6.30553657 L22.6982839,2.07621326 C22.6982839,0.931373889 23.6462894,0 24.8115724,0 C25.9768553,0 26.9248609,0.931373889 26.9248609,2.07621326 L26.9248609,6.30553657 C26.9248609,6.39043062 26.854731,6.45933014 26.768321,6.45933014 Z M23.0113636,6.15174299 L26.6117811,6.15174299 L26.6117811,2.07621326 C26.6117811,1.1010082 25.8042701,0.30758715 24.8115724,0.30758715 C23.8188747,0.30758715 23.0113636,1.1010082 23.0113636,2.07621326 L23.0113636,6.15174299 Z" id="Shape"></path>
                </g>
            </g>
        </g>
    </g>
</svg>