<?xml version="1.0" encoding="UTF-8"?>
<svg width="18px" height="18px" viewBox="0 0 18 18" version="1.1" xmlns="http://www.w3.org/2000/svg" xmlns:xlink="http://www.w3.org/1999/xlink">
    <title>E8FF48B5-AC5A-4BB6-B39B-AF2AE602A7FF</title>
    <g id="Page-1" stroke="none" stroke-width="1" fill="none" fill-rule="evenodd">
        <g id="QR2" transform="translate(-480.000000, -900.000000)" fill="#125773" fill-rule="nonzero" stroke="#125773" stroke-width="0.6">
            <g id="Card.1" transform="translate(100.000000, 598.000000)">
                <g id="Call" transform="translate(370.000000, 292.000000)">
                    <g id="call" transform="translate(11.000000, 11.000000)">
                        <path d="M15.0122667,11.4860444 L12.0999111,10.1128889 C11.5169778,9.83715556 11.0168889,9.96355556 10.6357333,10.4499556 L10.0332444,11.1335111 C9.82417778,11.3713778 9.65742222,11.3987556 9.5504,11.3987556 C9.37955556,11.3987556 9.17297778,11.3130667 8.93617778,11.1438222 C8.58613333,10.8935111 7.67022222,10.2097778 6.72942222,9.27057778 C5.7904,8.33013333 5.10613333,7.41386667 4.85564444,7.06364444 C4.45955556,6.50933333 4.57351111,6.224 4.86631111,5.96604444 L5.53866667,5.37297778 C6.04444444,4.976 6.16142222,4.48035556 5.88711111,3.89973333 L4.51413333,0.9872 C4.12906667,0.171377778 3.56213333,0 3.15431111,0 C2.57564444,0 1.91768889,0.351822222 1.25155556,1.01831111 C0.255466667,2.01422222 -0.176711111,3.56533333 0.0664888889,5.27324444 C0.371022222,7.41386667 1.72835556,9.74275556 3.992,12.0081778 C7.29386667,15.3073778 9.97546667,15.9998222 11.6435556,16 C11.6435556,16 11.6437333,16 11.6437333,16 C12.9891556,16 14.1745778,15.5553778 14.9816889,14.7482667 C15.7454222,13.9848889 16.0904889,13.2449778 15.9797333,12.6088889 C15.9221333,12.2776889 15.7073778,11.8136889 15.0122667,11.4860444 Z M14.6168889,14.3832889 C14.2058667,14.7944889 13.2730667,15.4837333 11.6435556,15.4837333 C10.0728889,15.4835556 7.53368889,14.8172444 4.3568,11.6430222 C-0.782755556,6.4992 0.316977778,2.68248889 1.61653333,1.38293333 C2.18364444,0.815822222 2.71537778,0.516088889 3.15431111,0.516088889 C3.53031111,0.516088889 3.83075556,0.7488 4.04711111,1.20764444 L5.42044444,4.12053333 C5.59146667,4.48213333 5.53528889,4.71982222 5.20871111,4.97671111 L4.52515556,5.5792 C3.96942222,6.06862222 3.93937778,6.66915556 4.43591111,7.36408889 C4.69386667,7.72462222 5.39822222,8.66808889 6.36462222,9.63573333 C7.3328,10.6023111 8.27573333,11.3061333 8.63608889,11.5640889 C9.33937778,12.0663111 9.93528889,12.0264889 10.4208,11.4748444 L11.0325333,10.7800889 C11.2401778,10.5157333 11.4120889,10.4851556 11.5232,10.4851556 C11.6270222,10.4851556 11.7468444,10.5169778 11.8796444,10.5797333 L14.7923556,11.9528889 C15.1895111,12.1402667 15.4181333,12.3907556 15.4714667,12.6974222 C15.5509333,13.1541333 15.2474667,13.7527111 14.6168889,14.3832889 Z" id="Shape"></path>
                    </g>
                </g>
            </g>
        </g>
    </g>
</svg>