<?xml version="1.0" encoding="UTF-8"?>
<svg width="45px" height="131px" viewBox="0 0 45 131" version="1.1" xmlns="http://www.w3.org/2000/svg" xmlns:xlink="http://www.w3.org/1999/xlink">
    <title>Project</title>
    <g id="Page-1" stroke="none" stroke-width="1" fill="none" fill-rule="evenodd">
        <g id="Client-View-.1" transform="translate(-1296.000000, -755.000000)">
            <g id="Group-9" transform="translate(435.000000, 715.000000)">
                <g id="Item.5" transform="translate(640.000000, 1.000000)">
                    <g id="Group-98" transform="translate(243.000000, 105.000000) rotate(90.000000) translate(-243.000000, -105.000000) translate(178.000000, 83.000000)">
                        <path d="M27.9642697,39.3666528 C25.8634264,39.5026757 24.1320781,41.3566476 21.3417814,40.8381364 C24.8024477,43.00557 31.5800427,42.2097345 33.8510162,39.5501822 C31.7526091,40.528329 29.7313493,39.2521499 27.9642697,39.3666528 M11.7763259,38.0786986 C12.6484966,38.3751067 13.8178876,39.3435086 14.7196991,38.9987819 C13.9949204,38.2419261 13.1820313,37.1935346 11.7763259,38.0786986 M15.2715055,37.3433628 C16.5785435,40.6692244 23.3581687,40.3894638 26.4927861,38.8148464 C25.6421354,37.9467361 24.7326091,35.5474545 24.2851546,33.6638417 C21.6487465,35.258355 18.7106518,36.5507756 15.2715055,37.3433628 M28.1482051,38.0786986 C29.5137127,37.113545 30.7988246,36.06962 30.9076429,33.8477772 C28.9809901,33.9350755 27.5785331,33.497772 25.7570443,33.4799063 C25.9726507,35.5945549 26.3993972,37.4976575 28.1482051,38.0786986 M9.93697139,36.606809 C11.1165133,36.74405 11.8067788,36.3924206 12.8803446,36.4232795 C12.8088819,35.3095159 12.8925258,34.3504529 13.2482155,33.6638417 C10.3129631,32.8980531 8.48091725,34.4543988 9.93697139,36.606809 M14.3518282,36.0554086 C17.4872577,35.5117231 20.0647902,34.4097345 22.4458001,33.1120354 C21.2820937,32.9008954 20.7960656,32.9569287 20.0546393,33.4799063 C20.0984914,33.2171994 20.357544,33.1692868 20.4225102,32.9280999 C17.6350557,33.1266528 13.8182936,33.1331494 14.3518282,36.0554086 M35.8743061,37.7108277 C36.9722343,36.501645 36.9231036,33.1359917 35.1385643,32.7437585 C34.4982416,33.5749193 33.0531505,33.6017179 31.8277262,33.8477772 C31.9081218,36.2584279 30.592557,37.2727121 29.4361593,38.4465695 C31.7684446,38.9805102 34.1153472,38.3231338 35.8743061,37.7108277 M31.8277262,32.3758876 C32.5581895,32.1257678 33.6033327,32.1895159 34.0349516,31.6405518 C33.2334316,31.2730869 32.1667684,30.2019573 31.2755138,30.5365331 C31.6206466,30.9884539 31.6100896,31.7968766 31.8277262,32.3758876 M27.2285279,32.1919521 C28.5302874,32.117241 29.3541395,32.5196252 30.7237075,32.3758876 C30.5945872,31.4018011 30.518658,30.3741176 29.8040302,29.9847267 C29.1263519,30.9015617 27.7791161,31.1484331 27.2285279,32.1919521 M25.5727028,31.4566163 C26.4960344,30.662405 27.6654253,30.114659 28.516076,29.2493909 C27.4961073,29.1044352 26.7063623,28.7284435 25.7570443,28.5132431 C24.9047694,28.9383654 24.8929943,30.6843311 25.5727028,31.4566163 M23.7333483,27.9614368 C23.2184914,27.6175221 22.4689443,27.5091098 21.8939938,27.2252889 C21.2796575,29.186861 19.9429787,30.4252785 18.5831557,31.6405518 C21.9544935,31.9446746 24.4979188,31.2962311 23.7333483,27.9614368 M22.4458001,31.6405518 C23.0211567,31.6775013 23.7958782,31.516304 24.1012192,31.8240812 C24.0857897,31.2267985 24.0066122,30.6928579 23.7333483,30.3525976 C23.4917554,30.9693701 22.7807819,31.1167621 22.4458001,31.6405518 M11.9602613,31.0883394 C11.5176794,31.642988 10.5638949,32.2881832 10.8566486,32.9280999 C15.8155971,33.1656325 19.9450089,30.9795211 21.3417814,27.0413535 C19.7996471,26.5601978 18.5283405,25.8082145 16.9269245,25.3859344 C15.4387934,27.2013326 13.4155034,29.2652264 11.9602613,31.0883394 M8.64942324,36.4232795 C8.19019367,35.3221031 8.69043313,33.9971994 9.20082355,33.2959708 C5.06694536,32.0335971 3.48136494,28.2233316 2.02652891,24.2823217 C0.161593984,30.5945966 3.60561272,35.2989589 8.64942324,36.4232795 M31.4594493,28.881114 C33.0831973,29.2197501 33.9801364,30.2847892 35.5064352,30.7204685 C36.5763467,29.2087871 37.0225831,25.7655804 36.2425831,23.5465799 C34.9761489,25.6527017 33.0194493,27.068558 31.4594493,28.881114 M18.2144727,24.4662572 C19.4216252,24.5499011 20.5041239,25.729849 21.5261229,25.3859344 C21.2016981,23.2266216 19.0423852,21.9078084 18.2144727,24.4662572 M13.9835513,22.2590318 C15.0879761,22.8104321 16.1911827,23.3626445 17.2952015,23.9144508 C17.7365654,23.1908902 18.5092567,22.7982509 18.9506205,22.0750963 C17.8413233,21.2203852 14.4586164,20.0830713 13.9835513,22.2590318 M6.80925666,21.8907548 C7.48896515,23.0175117 9.57153672,21.8769495 10.3048423,21.3389485 C9.73395213,21.0514732 9.33968873,20.5873712 8.83335869,20.2353358 C8.29535765,20.9239771 7.31274443,21.1671942 6.80925666,21.8907548 M20.2385747,22.0750963 C20.9532025,23.2607288 21.9565237,24.1580739 22.0779292,25.9377408 C22.6626247,25.9661635 22.887164,26.3551484 23.5494128,26.3056117 C23.214025,24.1885268 23.5879865,21.3620927 23.1815419,19.3156585 C22.3341395,20.3685164 21.337721,21.2731702 20.2385747,22.0750963 M41.0253108,29.6172618 C41.4682988,25.5434774 40.5149204,21.4737533 38.8176794,18.9473816 C36.8841239,22.261874 39.7751182,26.6523686 41.0253108,29.6172618 M34.4028225,17.8441749 C28.1498293,16.2435711 25.1390536,21.893191 28.7000115,25.3859344 C30.8487673,23.2302759 34.3179605,21.4538574 34.4028225,17.8441749 M29.0682884,25.9377408 C29.5344206,26.5756273 29.7443426,27.4697241 30.3558366,27.9614368 C32.478606,26.0372202 34.4771276,23.9883498 36.0586476,21.5228839 C35.9388662,20.4164289 35.4763884,19.6526705 34.7710995,19.1317231 C33.3369714,21.8672046 30.7976065,23.4974492 29.0682884,25.9377408 M2.76267675,22.8108381 C2.36638316,27.1367725 6.07838732,31.5768037 9.56869445,32.7437585 C11.3260292,29.6574597 14.0663832,27.5537741 16.1915888,24.8341281 C14.8942957,24.4760021 14.0517658,23.6623009 12.8803446,23.178303 C11.3422707,24.706632 9.74938159,26.1793337 8.46548779,27.9614368 C8.53573245,26.5528891 7.43861637,28.4316294 7.1775336,27.7775013 C7.47434776,27.1591046 7.97255702,26.8602603 7.1775336,26.4899531 C8.84107342,25.2718376 10.5147642,24.0634669 11.408455,22.0750963 C9.8127236,21.6024675 8.82929831,23.115773 6.80925666,22.8108381 C5.94804896,21.6361687 6.6821666,19.7135763 7.1775336,18.7634461 C6.86163563,18.098355 6.3796679,17.5993337 5.88998545,17.1080271 C5.0673514,19.0793441 2.97665905,20.4688079 2.76267675,22.8108381 M36.7943894,18.2116398 C37.2235721,18.150328 37.5865706,18.0232379 37.7140667,17.6598334 C37.2373774,17.4620927 37.0302978,16.9947423 36.4265185,16.9240916 C36.4573774,17.445039 36.7635305,17.6906923 36.7943894,18.2116398 M30.9076429,17.475898 C31.9401989,17.6699844 33.142885,17.6939407 34.4028225,17.6598334 C34.5364092,17.0974701 34.0853004,17.1189901 34.2188871,16.5562207 C32.8452587,16.5931702 31.6665289,16.8246122 30.9076429,17.475898 M26.860657,27.4092244 C27.008861,26.7607808 27.9833535,26.9378136 27.9642697,26.1216762 C25.0533795,23.4255804 25.9763051,18.7013222 29.0682884,16.9240916 C27.9171692,17.0146382 27.5533587,15.5634565 26.860657,15.6365435 C26.4667996,15.6779594 24.7326091,17.9221343 24.6534316,18.2116398 C23.9867163,20.6409682 25.0923592,24.7334305 24.837367,26.857824 C25.606404,26.9467465 26.2004383,27.2110776 26.860657,27.4092244 M27.2285279,27.5935659 C27.9070182,27.4770328 28.6338272,28.2586569 29.0682884,27.7775013 C28.5335357,27.5147944 28.652911,26.5979594 27.9642697,26.4899531 C27.8501728,26.9885685 27.1956388,26.9475586 27.2285279,27.5935659 M25.0213025,16.3722853 C25.2547746,15.747798 26.0416773,15.6755232 26.1249152,14.9008017 C25.5357533,14.8155336 25.4760656,14.1999792 24.837367,14.1646538 C24.9547122,14.8447683 24.5990224,15.9975117 25.0213025,16.3722853 M21.8939938,11.7730869 C19.493494,14.4622801 17.4076742,17.466153 15.4554409,20.6032067 C17.3577314,20.4180531 18.3094857,21.1830297 19.5024269,21.7068194 C20.800532,20.490734 22.0344831,19.2104945 23.3658834,18.0281104 C23.5278928,16.412077 23.5713389,14.6770744 23.7333483,13.0610411 C23.3135044,12.4385841 22.7170339,11.9927538 21.8939938,11.7730869 M19.8702978,12.5092348 C20.167924,12.0707132 20.5309225,11.6983758 20.789975,11.2212806 C20.5727444,11.0097345 20.1399074,11.0129828 19.6863623,11.0373451 C19.798835,11.4774909 19.4557325,12.3719938 19.8702978,12.5092348 M9.93697139,19.3156585 C10.6235825,19.9779073 11.2448215,20.7055284 12.3281322,20.9710776 C14.5479448,18.2847267 18.8219063,15.3636856 18.2144727,11.0373451 C13.8658001,12.2075482 12.8332442,16.6934617 9.93697139,19.3156585 M22.4458001,11.5891515 C23.1320052,11.700406 23.1945352,12.4345237 23.9172837,12.5092348 C23.6647278,11.3317231 24.5726299,10.350734 24.1012192,9.56586153 C23.6854357,10.3763144 22.7101312,10.6268402 22.4458001,11.5891515 M36.0586476,15.452608 C36.5190953,16.0340552 37.486279,16.1095783 38.0819376,16.5562207 C38.7251026,13.3464862 37.6706205,10.3836231 36.0586476,8.83011973 C36.3132338,11.1847371 35.53567,13.4378449 36.0586476,15.452608 M16.5590536,11.2212806 C17.0572629,10.8607184 17.7796054,10.7251015 18.5831557,10.6698803 C18.3809485,10.1355336 18.4162738,9.36406039 18.2144727,8.83011973 C17.4998449,9.3441645 16.5371276,10.582176 16.5590536,11.2212806 M2.39439981,20.0514003 C3.1784602,18.382582 4.26339513,17.0146382 5.15383761,15.452608 C3.91988654,14.0095471 4.26461325,10.3596668 4.60203126,8.83011973 C2.42891309,11.0592712 1.48690372,15.8939719 2.39439981,20.0514003 M39.7373566,16.0040083 C43.1208756,12.9148673 42.7111827,7.72244664 37.1622603,7.72650465 C38.6918074,9.81476314 39.6963467,12.4280271 39.7373566,16.0040083 M27.2285279,15.6365435 C27.9484342,16.0202499 28.6037803,16.4685164 29.2522239,16.9240916 C30.7858314,16.3117855 32.1582416,15.5378761 34.2188871,15.452608 C34.0686528,12.8827902 35.3825935,9.34822488 34.0349516,7.35823009 C31.9686216,10.3198751 29.4499646,12.8295992 27.2285279,15.6365435 M25.9409797,8.46224883 C25.532911,10.0778761 25.1244363,11.6926913 25.0213025,13.6128475 C26.3348371,15.4225612 26.8724321,14.4436023 28.1482051,13.0610411 C29.7723592,11.3008641 32.4631765,8.7054659 32.563062,7.17429464 C30.1698709,7.41751171 27.6434992,7.52754815 25.9409797,8.46224883 M19.134556,7.54257158 C19.34529,8.4967621 19.798835,9.20854763 19.6863623,10.4859448 C22.2354722,11.5347423 23.1336294,8.31891723 24.837367,7.35823009 C23.0962738,7.25428423 20.2803967,6.56564289 19.134556,7.54257158 M15.6393764,6.43855284 C12.3122967,9.24346694 9.27959503,12.3423529 6.80925666,16.0040083 C7.36958982,16.4254763 7.40044875,17.3756065 8.2811463,17.475898 C10.7620417,13.3960229 14.3140667,10.3864654 17.2952015,6.80642374 C16.8384081,6.58878709 16.2122967,6.54006247 15.6393764,6.43855284 M7.36146905,7.17429464 C5.82583136,8.50691307 5.04217701,11.542051 5.88998545,14.1646538 C8.50203126,11.9326601 10.2451546,8.83174388 13.0642801,6.80642374 C13.0906726,6.58919313 13.3915471,6.38942218 13.0642801,6.25461739 C11.1668621,6.56483082 8.83620096,6.44139511 7.36146905,7.17429464 M28.884353,6.43855284 C29.9412712,6.08529932 31.5256335,6.25908381 32.563062,5.88674649 C31.4903082,5.47299323 29.1263519,6.05038001 28.884353,6.43855284 M9.01729414,5.88674649 C10.6853004,5.47015096 12.9664248,5.66667361 14.7196991,5.33494014 C13.4548891,3.84112441 10.0551286,4.90413326 9.01729414,5.88674649 M32.9309329,4.96706923 C31.3335773,2.93119209 27.3844467,2.845924 26.860657,5.88674649 C28.5615523,5.34346694 31.0867059,4.76770432 32.9309329,4.96706923 M17.2952015,5.15100469 C17.722354,5.27565851 17.7877262,5.76209266 18.2144727,5.88674649 C18.6002093,4.85987507 19.9121198,3.78590318 19.8702978,2.94337324 C19.124405,3.79158771 17.890454,4.15214992 17.2952015,5.15100469 M20.9743165,6.25461739 C22.4417397,6.25827173 23.6070703,6.56523686 25.2052379,6.43855284 C25.627924,2.82887038 30.3330984,0.563987507 33.1152744,3.49517959 C29.6712556,-0.442581989 23.371974,3.98283186 20.9743165,6.25461739 M99.8911515,16.3722853 C100.894067,7.06100989 114.952338,3.27794898 120.493952,11.405216 C121.749017,13.2453826 122.905009,15.9244248 122.885519,19.499594 C122.838419,27.9764602 116.06123,34.3037585 106.881511,33.6638417 C98.3039469,33.065747 92.5353576,25.4809474 93.4525987,15.6365435 C94.3316721,6.19899011 102.477211,-0.652503904 113.503999,0.184341489 C123.120615,0.913586674 128.596451,8.69856325 129.508007,16.5562207 C130.301813,23.3987819 127.680834,29.0715461 124.357003,32.9280999 C120.507351,37.3949297 114.707903,41.2937116 105.777898,40.6542009 C95.6070391,39.9257678 89.9687882,32.6361583 86.6461749,24.4662572 C85.5571796,21.7880271 84.591214,19.0647267 81.8634472,17.6598334 C78.4636866,15.9094014 70.6129318,15.7092244 65.8590328,16.0040083 C63.689975,16.1388131 60.3941604,16.5347007 59.2369506,17.6598334 C58.4902457,18.3862363 58.6416981,20.6929412 57.2132546,21.155013 C54.0266643,22.1863509 51.5689131,18.0419157 49.3032181,17.6598334 C48.848861,18.8036439 50.8039365,20.4164289 49.671089,21.7068194 C46.9664664,22.0702238 45.527872,19.6043519 43.2329422,18.9473816 C46.1763155,25.4107028 44.19972,32.3287871 40.6574399,35.8714732 C39.6614274,36.8678917 38.4997512,37.3397085 37.3457897,38.262634 C33.4734003,41.3619261 31.6827705,44.0511192 24.837367,43.4136387 C21.6264144,43.1139823 19.7683821,41.5231234 17.111266,40.6542009 C14.2888923,39.7316814 11.8380438,39.9395731 9.93697139,37.8947631 C4.35109945,37.2783967 0.17661741,33.9119313 0.00323896095,28.3293077 C-0.0775627048,25.7379698 1.37767936,23.8823738 1.65906405,21.3389485 C1.83325458,19.7610828 1.29525354,18.4698803 1.29119315,17.1080271 C1.2737335,11.8076002 3.25560752,9.3336075 6.0739209,6.62248829 C8.26571684,4.51393024 11.5672161,2.1028735 15.8233118,4.04739198 C18.2108183,2.75537741 19.6892046,0.555054659 22.813671,0 C23.276961,1.35901093 21.9305372,2.40090578 21.5261229,3.49517959 C21.4912036,3.64419573 21.3413753,3.67870901 21.3417814,3.86345653 C23.8198345,1.95588756 29.8007819,-1.44630921 33.4831453,1.28795419 C34.9176794,2.35299323 35.2749933,4.08515357 35.8743061,6.25461739 C39.1896106,6.91930245 42.8492358,7.4374076 43.2329422,10.6698803 C43.5829474,13.6234045 41.2153368,15.9179282 39.3698917,17.6598334 C39.6963467,18.5912858 40.7053524,19.7131702 41.2092462,21.155013 C42.0400011,23.5311504 43.1216877,30.2847892 41.2092462,30.7204685 C39.1794597,31.1829464 38.9630411,27.2139198 38.265873,25.7538053 C37.8464352,27.1128162 38.1769506,27.8989068 37.8980021,29.0650495 C37.6811775,29.9713274 36.431391,31.147621 36.4265185,31.6405518 C36.4171796,32.5793129 39.1352015,34.1311921 37.8980021,36.2393441 C41.0939313,34.320406 43.6255815,30.5060802 43.6008131,25.7538053 C43.5857897,22.9139719 41.786633,20.5711296 42.4967944,18.0281104 C45.275722,17.4901093 46.4743478,20.0351588 48.7514118,20.6032067 C48.6970026,19.2279542 47.5223332,18.2656429 48.1996054,16.7401562 C50.0150037,15.9467569 50.9330568,17.3682978 52.2465914,18.2116398 C53.2072785,18.8284123 55.3584706,20.3518688 56.4775128,20.0514003 C57.7354201,19.7135763 57.723645,17.5278709 58.3172733,16.9240916 C59.6616669,15.5557418 63.4337647,15.0396668 65.6750974,14.9008017 C71.7721718,14.5219677 80.7687673,14.978355 84.0706726,17.8441749 C85.5908808,19.162988 87.0116096,22.3410515 88.1176585,25.0184695 C91.4837179,33.160354 97.9636866,40.3695679 109.088736,39.7341176 C115.042479,39.3942634 119.13819,36.8930661 122.333307,33.8477772 C126.020542,30.3339198 129.171401,24.7939302 128.587924,17.1080271 C127.942323,8.59339927 121.523666,1.04433108 111.664644,0.92008329 C101.927029,0.797053618 94.2135149,7.70945341 94.1887465,17.6598334 C94.1676325,25.8289224 98.9617293,32.2073816 106.697575,32.9280999 C119.198689,34.0926184 126.70756,20.1715877 119.574275,11.0373451 C113.533234,3.3023113 99.5200323,8.54792296 100.259022,18.7634461" id="Fill-86" stroke="#125773" stroke-width="0.5" fill="#125773"></path>
                        <path d="M21.1825018,10.7015919 C19.5546934,11.2858813 17.0693316,11.0134295 15.4106642,11.567266 C15.7911223,10.9582082 19.4990661,10.0523363 21.1825018,10.7015919" id="Fill-92" fill="#FFFFFF"></path>
                    </g>
                </g>
            </g>
        </g>
    </g>
</svg>