<?xml version="1.0" encoding="UTF-8"?>
<svg width="186px" height="257px" viewBox="0 0 186 257" version="1.1" xmlns="http://www.w3.org/2000/svg" xmlns:xlink="http://www.w3.org/1999/xlink">
    <title>consultant</title>
    <defs>
        <filter x="-29.3%" y="-27.5%" width="158.6%" height="155.0%" filterUnits="objectBoundingBox" id="filter-1">
            <feOffset dx="0" dy="0" in="SourceAlpha" result="shadowOffsetOuter1"></feOffset>
            <feGaussianBlur stdDeviation="22" in="shadowOffsetOuter1" result="shadowBlurOuter1"></feGaussianBlur>
            <feColorMatrix values="0 0 0 0 0.270588235   0 0 0 0 0.28627451   0 0 0 0 0.356862745  0 0 0 0.08 0" type="matrix" in="shadowBlurOuter1" result="shadowMatrixOuter1"></feColorMatrix>
            <feMerge>
                <feMergeNode in="shadowMatrixOuter1"></feMergeNode>
                <feMergeNode in="SourceGraphic"></feMergeNode>
            </feMerge>
        </filter>
    </defs>
    <g id="Page-1" stroke="none" stroke-width="1" fill="none" fill-rule="evenodd">
        <g id="Client-View-.1" transform="translate(-898.000000, -692.000000)">
            <g id="Group-9" transform="translate(435.000000, 715.000000)">
                <g id="Item.4" filter="url(#filter-1)" transform="translate(320.000000, 0.000000)">
                    <g id="Group-14" transform="translate(0.000000, 0.546675)">
                        <g id="Group-13" transform="translate(207.000000, 40.453325)">
                            <path d="M22.8494314,42.5431687 L34.2036401,42.5431687 C33.5796596,45.4680471 32.4134044,47.8496783 31.3653311,50.3494912 L25.6877404,50.3494912 C24.6391807,47.8496783 23.4729256,45.4680471 22.8494314,42.5431687" id="Fill-1" fill="#125773"></path>
                            <path d="M22.8494314,42.5431687 L34.2036401,42.5431687 C33.5796596,45.4680471 32.4134044,47.8496783 31.3653311,50.3494912 L25.6877404,50.3494912 C24.6391807,47.8496783 23.4729256,45.4680471 22.8494314,42.5431687 Z" id="Stroke-3" stroke="#125773"></path>
                            <path d="M31.3652338,54.8025627 C32.8923569,75.6730827 34.4219117,96.5397119 36.3322746,116.827591 C34.6062364,121.934212 30.9742125,124.143678 28.8814703,128.693434 C25.8938533,125.143603 22.8113992,121.739675 20.720116,116.827591 C22.6314516,96.5397119 24.16052,75.6730827 25.6881294,54.8025627 L31.3652338,54.8025627 Z" id="Fill-5" fill="#125773"></path>
                            <path d="M31.3652338,54.8025627 C32.8923569,75.6730827 34.4219117,96.5397119 36.3322746,116.827591 C34.6062364,121.934212 30.9742125,124.143678 28.8814703,128.693434 C25.8938533,125.143603 22.8113992,121.739675 20.720116,116.827591 C22.6314516,96.5397119 24.16052,75.6730827 25.6881294,54.8025627 L31.3652338,54.8025627 Z" id="Stroke-7" stroke="#125773"></path>
                            <g id="Group-19" transform="translate(0.233273, 0.331303)">
                                <path d="M47.5674523,13.1881622 C48.7113356,12.1872643 49.3766554,10.2749561 49.8664048,8.76728678 C51.2758324,4.42325386 51.2806958,1.06941922 45.9756453,1.16328379 C40.9191171,1.2532576 34.7945754,3.14805745 32.8900486,6.46882064 C30.4126076,15.319812 42.9213992,17.2515741 47.5674523,13.1881622 L47.5674523,13.1881622 Z M6.71934156,8.94382999 C7.30830527,10.7262842 7.95076693,12.5019295 9.37186682,13.541735 C14.899177,17.5847204 26.1590348,14.2994604 23.5181818,6.29130474 C22.3096147,2.62620934 13.5461654,1.01348955 9.54889637,1.34031334 C4.74234942,1.73376639 5.57108118,5.46889546 6.71934156,8.94382999 L6.71934156,8.94382999 Z M-3.95373969e-13,0.633167815 C6.21159746,-0.351194325 15.405462,-0.0982949609 20.158511,1.5173429 C22.7395436,2.39470915 26.2499813,4.56818465 28.4696596,4.52344092 C30.0828657,4.49036946 32.1512907,3.26769831 33.9512533,2.40103164 C39.4722409,-0.255870718 48.88107,-0.484452836 56.5857464,0.633167815 L56.5857464,1.34031334 C55.6626637,2.59021982 54.3996259,3.40484758 53.4026188,4.87701368 C51.299177,7.98329875 50.8872428,12.4513496 48.0975683,14.7789965 C45.2660681,17.1421465 36.4345305,17.2525468 33.5976805,14.6024533 C32.3443696,13.4323074 30.6042275,7.47798637 28.4696596,7.35250938 C25.8219978,7.196879 24.4879536,13.419176 22.4574635,14.9565124 C19.9167976,16.8795202 11.5536102,17.1465236 8.48769173,15.1330556 C5.67467265,13.2854312 5.02345679,7.85247197 2.82906846,4.69998413 C1.88069585,3.33724563 0.891470258,2.69624301 -3.95373969e-13,1.34031334 L-3.95373969e-13,0.633167815 Z" id="Fill-11" fill="#125773"></path>
                                <path d="M47.5674523,13.1881622 C48.7113356,12.1872643 49.3766554,10.2749561 49.8664048,8.76728678 C51.2758324,4.42325386 51.2806958,1.06941922 45.9756453,1.16328379 C40.9191171,1.2532576 34.7945754,3.14805745 32.8900486,6.46882064 C30.4126076,15.319812 42.9213992,17.2515741 47.5674523,13.1881622 Z M6.71934156,8.94382999 C7.30830527,10.7262842 7.95076693,12.5019295 9.37186682,13.541735 C14.899177,17.5847204 26.1590348,14.2994604 23.5181818,6.29130474 C22.3096147,2.62620934 13.5461654,1.01348955 9.54889637,1.34031334 C4.74234942,1.73376639 5.57108118,5.46889546 6.71934156,8.94382999 Z M-3.95373969e-13,0.633167815 C6.21159746,-0.351194325 15.405462,-0.0982949609 20.158511,1.5173429 C22.7395436,2.39470915 26.2499813,4.56818465 28.4696596,4.52344092 C30.0828657,4.49036946 32.1512907,3.26769831 33.9512533,2.40103164 C39.4722409,-0.255870718 48.88107,-0.484452836 56.5857464,0.633167815 L56.5857464,1.34031334 C55.6626637,2.59021982 54.3996259,3.40484758 53.4026188,4.87701368 C51.299177,7.98329875 50.8872428,12.4513496 48.0975683,14.7789965 C45.2660681,17.1421465 36.4345305,17.2525468 33.5976805,14.6024533 C32.3443696,13.4323074 30.6042275,7.47798637 28.4696596,7.35250938 C25.8219978,7.196879 24.4879536,13.419176 22.4574635,14.9565124 C19.9167976,16.8795202 11.5536102,17.1465236 8.48769173,15.1330556 C5.67467265,13.2854312 5.02345679,7.85247197 2.82906846,4.69998413 C1.88069585,3.33724563 0.891470258,2.69624301 -3.95373969e-13,1.34031334 L-3.95373969e-13,0.633167815 Z" id="Stroke-12" stroke="#125773"></path>
                            </g>
                        </g>
                    </g>
                </g>
            </g>
        </g>
    </g>
</svg>