<?xml version="1.0" encoding="UTF-8"?>
<svg width="72px" height="130px" viewBox="0 0 72 130" version="1.1" xmlns="http://www.w3.org/2000/svg" xmlns:xlink="http://www.w3.org/1999/xlink">
    <title>59ADD5D0-E2DE-4C76-AEE7-2496188A396A</title>
    <g id="Page-1" stroke="none" stroke-width="1" fill="none" fill-rule="evenodd">
        <g id="Solutions-Mobile" transform="translate(-264.000000, -756.000000)" fill="#ED7D31" fill-rule="nonzero" stroke="#ED7D31">
            <g id="1" transform="translate(0.000000, 590.000000)">
                <g id="Ask" transform="translate(20.000000, 150.000000)">
                    <g id="Group" transform="translate(245.000000, 17.000000)">
                        <path d="M44.1896752,1.59663542 C33.4208984,-1.140454 22.3302112,1.03716761 13.7691317,7.6001566 C5.21240243,14.1588418 0.3054422,24.0571206 0.3054422,34.751565 C0.3054422,35.9694837 1.30162467,36.9550079 2.53271493,36.9550079 C3.76380518,36.9550079 4.75998765,35.9694837 4.75998765,34.751565 C4.75998765,25.4299686 9.03835227,16.801252 16.4966708,11.086072 C23.9658646,5.36228493 33.6558062,3.45579035 43.0760388,5.865806 C53.2771221,8.46518024 61.5684927,16.6678405 64.1981534,26.7640846 C67.6151898,39.8728484 62.497248,52.9342725 51.1651281,60.0395147 C39.6481266,67.2566512 32.7727273,78.8935839 32.7727273,91.1674491 L32.7727273,99.2711268 C32.7727273,100.489045 33.7689097,101.47457 35,101.47457 C36.2310903,101.47457 37.2272727,100.489045 37.2272727,99.2711268 L37.2272727,91.1674491 C37.2272727,80.4127542 43.3283469,70.170188 53.5490057,63.7621283 C66.3471237,55.7402191 72.3590197,40.4280124 68.5134943,25.6623631 C65.4836203,14.0383413 55.9372336,4.59194059 44.1896752,1.59663542 Z" id="Path"></path>
                        <path d="M31.8374469,120.335904 C31.0348456,121.175106 30.5454545,122.319863 30.5454545,123.464621 C30.5454545,124.656718 31.0348456,125.75844 31.8374469,126.593338 C32.6835495,127.43254 33.8406872,127.871507 35,127.871507 C36.1571377,127.871507 37.3164505,127.43254 38.1625531,126.593338 C38.9629792,125.75844 39.4545455,124.613682 39.4545455,123.464621 C39.4545455,122.319864 38.9629792,121.175107 38.1625531,120.383244 C36.5138497,118.70484 33.4839756,118.75218 31.8374469,120.335904 Z" id="Path"></path>
                    </g>
                </g>
            </g>
        </g>
    </g>
</svg>