<?xml version="1.0" encoding="UTF-8"?>
<svg width="200px" height="55px" viewBox="0 0 200 55" version="1.1" xmlns="http://www.w3.org/2000/svg" xmlns:xlink="http://www.w3.org/1999/xlink">
    <title>79080C8D-D09A-4E4A-A7C6-82FA22B86406</title>
    <defs>
        <polygon id="path-1" points="0.206743295 0.684214559 23.5019157 0.684214559 23.5019157 41.3792337 0.206743295 41.3792337"></polygon>
        <polygon id="path-3" points="0.103218391 0.314176245 8.14 0.314176245 8.14 8.35088123 0.103218391 8.35088123"></polygon>
    </defs>
    <g id="Page-1" stroke="none" stroke-width="1" fill="none" fill-rule="evenodd">
        <g id="NFORMACY" transform="translate(-100.000000, -28.000000)">
            <g id="nformacy.logo-copy" transform="translate(100.000000, 28.000000)">
                <path d="M53.7150192,32.803908 C52.0567816,32.803908 50.6169349,32.1832184 49.4353257,30.9594636 C48.2698084,29.7540996 47.6782375,28.282069 47.6782375,26.5870498 C47.6782375,24.8736398 48.2644444,23.3977778 49.42,22.2008429 C50.5916475,20.9870498 52.0368582,20.3709579 53.7150192,20.3709579 C55.4131034,20.3709579 56.8682759,20.9870498 58.0399234,22.2008429 C59.1954789,23.3977778 59.7816858,24.8736398 59.7816858,26.5870498 C59.7816858,28.2813027 59.1908812,29.752567 58.0245977,30.9594636 C56.8422222,32.1832184 55.3924138,32.803908 53.7150192,32.803908 M54.014636,12.768659 C49.9878161,12.768659 46.563295,14.1104215 43.8345594,16.7594636 C41.0836015,19.4299617 39.7464368,22.6345594 39.7464368,26.5571648 C39.7464368,30.4062069 41.087433,33.6054406 43.8475862,36.3372414 C46.6108046,39.0751724 49.8483525,40.4054406 53.7449042,40.4054406 C57.6414559,40.4054406 60.8736398,39.0797701 63.6276628,36.352567 C66.3770881,33.6299617 67.7134866,30.425364 67.7134866,26.5571648 C67.7134866,22.7433716 66.3931801,19.5602299 63.6774713,16.8261303 C60.9648276,14.0958621 57.803908,12.768659 54.014636,12.768659" id="Fill-1" fill="#595959"></path>
                <path d="M26.4992337,39.8067433 L34.2517241,39.8067433 L34.2517241,28.3063602 L39.2532567,28.3063602 L39.2532567,20.0159387 L34.2517241,20.0159387 L34.2517241,17.27341 C34.2517241,15.1370115 34.7704981,13.4190038 35.7942529,12.1676628 C36.6731801,11.0956322 37.8340996,10.4404598 39.2532567,10.2159387 L39.2532567,1.84659004 C37.0678161,1.94007663 34.9,2.66421456 32.8210728,4.00291188 C30.5789272,5.44888889 28.8885057,7.33394636 27.7965517,9.60444444 C26.935249,11.3799234 26.4992337,13.5868199 26.4992337,16.165364 L26.4992337,39.8067433 Z" id="Fill-3" fill="#595959"></path>
                <path d="M68.2616858,39.8067433 L76.0141762,39.8067433 L76.0141762,27.3661303 C76.0141762,21.800613 79.008046,20.9699617 80.7927203,20.9699617 C80.9252874,20.9699617 81.059387,20.976092 81.1950192,20.9875862 L81.1950192,12.8787739 C80.535249,12.8052107 79.9689655,12.7684291 79.505364,12.7684291 C76.0448276,12.7684291 73.3743295,13.8442912 71.3421456,16.0580843 C69.2984674,18.2849042 68.2616858,21.3638314 68.2616858,25.2098084 L68.2616858,39.8067433 Z" id="Fill-5" fill="#595959"></path>
                <path d="M111.604598,39.8067433 L119.357088,39.8067433 L119.357088,24.4013793 C119.357088,20.7837548 118.596169,18.0435249 117.095785,16.2557854 C115.16092,13.9285824 112.654406,12.7983142 109.431418,12.7983142 C106.967816,12.7983142 104.405364,14.0488889 101.816092,16.5155556 L100.561686,17.7101916 L99.3724138,16.4496552 C97.0551724,13.9921839 94.5463602,12.7983142 91.702682,12.7983142 C88.9517241,12.7983142 86.6743295,13.776092 84.7394636,15.7883525 C82.7862069,17.8197701 81.8367816,20.2251341 81.8367816,23.1431418 L81.8367816,39.8067433 L89.589272,39.8067433 L89.589272,25.4496552 C89.589272,20.8933333 92.0934866,20.4013793 93.1701149,20.4013793 C94.9333333,20.4013793 95.759387,21.4013793 96.0950192,21.9983142 C96.5279693,22.7691954 96.7210728,23.8243678 96.7210728,25.4197701 L96.7210728,39.8067433 L104.472797,39.8067433 L104.472797,25.4496552 C104.472797,20.8933333 106.998467,20.4013793 108.084291,20.4013793 C109.929502,20.4013793 110.743295,21.5347126 111.007663,22.022069 C111.42069,22.7875862 111.604598,23.8343295 111.604598,25.4197701 L111.604598,39.8067433 Z" id="Fill-7" fill="#595959"></path>
                <path d="M133.932337,12.7982375 C130.038851,12.7982375 126.827356,14.1131801 124.113946,16.8181609 C121.401303,19.5200766 120.083295,22.7262069 120.083295,26.6166284 C120.083295,30.6250575 121.384444,33.8572414 124.061839,36.5001533 C126.745364,39.1484291 130.022759,40.4350192 134.081762,40.4350192 C134.332337,40.4350192 134.597471,40.4250575 134.8741,40.4036015 L134.8741,32.7622222 C134.544598,32.8097318 134.209732,32.8334866 133.872567,32.8334866 C132.197471,32.8334866 130.785211,32.2557088 129.672567,31.1147126 C128.57295,29.9867433 128.015096,28.5537931 128.015096,26.8564751 C128.015096,25.2097318 128.618161,23.7721839 129.808199,22.5829119 C130.998238,21.3936398 132.435785,20.7905747 134.081762,20.7905747 C135.916245,20.7905747 137.407433,21.4763985 138.514713,22.8296552 C139.539234,24.0809962 140.058774,25.7177778 140.058774,27.6955556 L140.058774,39.8066667 L147.810498,39.8066667 L147.810498,26.8863602 C147.810498,22.4878927 146.572184,19.0005364 144.130805,16.5223755 C141.694023,14.0511111 138.261839,12.7982375 133.932337,12.7982375" id="Fill-9" fill="#595959"></path>
                <path d="M162.38659,12.7682759 C158.54751,12.7682759 155.346743,14.0763218 152.601916,16.7675096 C149.86705,19.4495019 148.537548,22.5836015 148.537548,26.3475862 C148.537548,30.3437548 149.857854,33.6203831 152.575096,36.3652107 C155.287739,39.103908 158.52682,40.4349425 162.476245,40.4349425 C166.201916,40.4349425 169.269349,39.2303448 171.854023,36.7529502 C173.977395,34.7184674 175.335249,32.1682759 175.900766,29.1652107 L167.908429,29.4671264 C166.795019,31.6433716 164.966667,32.8341762 162.716092,32.8341762 C160.945977,32.8341762 159.439464,32.2180843 158.24023,31.0035249 C157.045594,29.7966284 156.439464,28.2901149 156.439464,26.5268966 C156.439464,24.7889655 157.018008,23.3154023 158.159004,22.1483525 C159.308429,20.9690421 160.781226,20.371341 162.536015,20.371341 C164.283908,20.371341 165.78659,21.0058238 167.009579,22.257931 L175.388123,21.9483525 C174.577395,19.5790038 173.162835,17.5506513 171.171264,15.9085057 C168.647126,13.8242146 165.690805,12.7682759 162.38659,12.7682759" id="Fill-11" fill="#595959"></path>
                <g id="Group-15" transform="translate(176.245211, 12.712874)">
                    <mask id="mask-2" fill="white">
                        <use xlink:href="#path-1"></use>
                    </mask>
                    <g id="Clip-14"></g>
                    <path d="M4.45961686,40.682682 C5.94697318,41.1455172 7.45042146,41.3792337 8.93471264,41.3792337 C13.1998467,41.3792337 16.7416092,39.7792337 19.7638314,36.4872797 C22.2442912,33.7754023 23.5025287,30.1171648 23.5025287,25.6137165 L23.5025287,0.684214559 L15.749272,0.684214559 L15.749272,14.7424521 C15.749272,19.06659 12.8029119,19.4022222 11.8994636,19.4022222 C9.99448276,19.4022222 7.95846743,18.2497318 7.95846743,15.0129502 L7.95846743,0.684214559 L0.206743295,0.684214559 L0.206743295,17.7386207 C0.206743295,20.528659 0.950038314,22.739387 2.47954023,24.4972414 C3.94544061,26.1838314 5.76306513,27.0037548 8.03586207,27.0037548 C9.59065134,27.0037548 11.2304981,26.5003065 12.908659,25.5079693 L16.5239847,23.3685057 L15.4534866,27.431341 C13.7508046,33.8911111 9.24965517,34.8558621 6.71785441,34.8558621 C6.01823755,34.8558621 5.26191571,34.7585441 4.45961686,34.5646743 L4.45961686,40.682682 Z" id="Fill-13" fill="#595959" mask="url(#mask-2)"></path>
                </g>
                <path d="M15.423295,39.6233716 L24.3252107,39.6233716 L24.3252107,25.0195402 C24.3252107,21.0042146 23.3972414,17.8570881 21.5673563,15.664751 C19.1980077,12.8180077 16.1267433,11.4348659 12.177318,11.4348659 C8.73747126,11.4348659 5.91218391,12.6279693 3.5405364,15.0831418 C1.15816092,17.5482759 0.00030651341,20.5045977 0.00030651341,24.1222222 L0.00030651341,39.6233716 L8.90145594,39.6233716 L8.90145594,23.9122605 C8.90145594,21.5796935 10.115249,20.1873563 12.147433,20.1873563 C14.1987739,20.1873563 15.423295,21.5796935 15.423295,23.9122605 L15.423295,39.6233716 Z" id="Fill-16" fill="#33CCCC"></path>
                <g id="Group-20" transform="translate(8.429119, 0.452337)">
                    <mask id="mask-4" fill="white">
                        <use xlink:href="#path-3"></use>
                    </mask>
                    <g id="Clip-19"></g>
                    <path d="M0.103218391,4.33249042 C0.103218391,2.11333333 1.90245211,0.314099617 4.1216092,0.314099617 C6.34076628,0.314099617 8.14,2.11333333 8.14,4.33249042 C8.14,6.55164751 6.34076628,8.35088123 4.1216092,8.35088123 C1.90245211,8.35088123 0.103218391,6.55164751 0.103218391,4.33249042" id="Fill-18" fill="#ED7D31" mask="url(#mask-4)"></path>
                </g>
            </g>
        </g>
    </g>
</svg>