<?xml version="1.0" encoding="UTF-8"?>
<svg width="56px" height="126px" viewBox="0 0 56 126" version="1.1" xmlns="http://www.w3.org/2000/svg" xmlns:xlink="http://www.w3.org/1999/xlink">
    <title>Assign the Expert</title>
    <g id="Page-1" stroke="none" stroke-width="1" fill="none" fill-rule="evenodd">
        <g id="Solutions-Mobile" transform="translate(-289.000000, -1287.000000)">
            <g id="1" transform="translate(0.000000, 590.000000)">
                <g id="assign" transform="translate(20.000000, 678.000000)">
                    <g id="Assign-the-Expert" transform="translate(270.000000, 20.000000)">
                        <path d="M21.6888648,40.6487937 L32.5775356,40.6487937 C31.9791391,43.4653661 30.860702,45.7588073 29.8556011,48.1660542 L24.4107993,48.1660542 C23.405232,45.7588073 22.2867949,43.4653661 21.6888648,40.6487937" id="Fill-1" fill="#E7923D"></path>
                        <path d="M21.6888648,40.6487937 L32.5775356,40.6487937 C31.9791391,43.4653661 30.860702,45.7588073 29.8556011,48.1660542 L24.4107993,48.1660542 C23.405232,45.7588073 22.2867949,43.4653661 21.6888648,40.6487937 Z" id="Stroke-3" stroke="#E7923D"></path>
                        <path d="M29.8555078,52.4542319 C31.3200168,72.551933 32.7868577,92.6458873 34.6188932,112.182522 C32.9636249,117.100049 29.4805189,119.2277 27.4735819,123.608983 C24.6084613,120.190598 21.652392,116.912715 19.6468542,112.182522 C21.4798224,92.6458873 22.946197,72.551933 24.4111724,52.4542319 L29.8555078,52.4542319 Z" id="Fill-5" fill="#E7923D"></path>
                        <path d="M29.8555078,52.4542319 C31.3200168,72.551933 32.7868577,92.6458873 34.6188932,112.182522 C32.9636249,117.100049 29.4805189,119.2277 27.4735819,123.608983 C24.6084613,120.190598 21.652392,116.912715 19.6468542,112.182522 C21.4798224,92.6458873 22.946197,72.551933 24.4111724,52.4542319 L29.8555078,52.4542319 Z" id="Stroke-7" stroke="#E7923D"></path>
                        <g id="Group-19">
                            <path d="M45.6171223,12.6998149 C46.7141048,11.7359795 47.3521457,9.89448252 47.8218146,8.44264104 C49.1734538,4.25946425 49.1781178,1.02981946 44.0905816,1.1202083 C39.2413779,1.20685046 33.3679506,3.03148736 31.5415121,6.22928529 C29.1656494,14.7525314 41.1615637,16.6127619 45.6171223,12.6998149 L45.6171223,12.6998149 Z M6.44383946,8.612647 C7.00865486,10.3290983 7.62477471,12.0389929 8.98760758,13.0402952 C14.2882905,16.933572 25.0864789,13.7699626 22.5539045,6.05834267 C21.3948902,2.52896287 12.9907542,0.975960829 9.15737868,1.29068259 C4.54790667,1.66956639 5.34265931,5.26638656 6.44383946,8.612647 L6.44383946,8.612647 Z M-4.01964176e-13,0.609722108 C5.95691354,-0.338189875 14.7738172,-0.0946551757 19.3319848,1.46115688 C21.8071915,2.30603496 25.1736965,4.39902836 27.3023649,4.35594145 C28.8494274,4.32409461 30.8330442,3.146698 32.5592059,2.31212332 C37.8538256,-0.246396027 46.8768799,-0.466513928 54.2656541,0.609722108 L54.2656541,1.29068259 C53.380419,2.49430601 52.1691675,3.27876875 51.2130391,4.6964217 C49.1958412,7.68768347 48.8007969,11.9902859 46.1255028,14.2317418 C43.410098,16.5073863 34.9406654,16.6136985 32.2201301,14.0617359 C31.0182066,12.9349196 29.3494127,7.20108241 27.3023649,7.08025173 C24.7632609,6.93038423 23.4839143,12.9222745 21.5366771,14.4026845 C19.1001819,16.2544849 11.0798965,16.5116013 8.13968487,14.5726904 C5.44200339,12.7934821 4.81748826,7.5617011 2.71307282,4.52594741 C1.80358477,3.21367005 0.85491877,2.59640325 -4.01964176e-13,1.29068259 L-4.01964176e-13,0.609722108 Z" id="Fill-11" fill="#E7923D"></path>
                            <path d="M45.6171223,12.6998149 C46.7141048,11.7359795 47.3521457,9.89448252 47.8218146,8.44264104 C49.1734538,4.25946425 49.1781178,1.02981946 44.0905816,1.1202083 C39.2413779,1.20685046 33.3679506,3.03148736 31.5415121,6.22928529 C29.1656494,14.7525314 41.1615637,16.6127619 45.6171223,12.6998149 Z M6.44383946,8.612647 C7.00865486,10.3290983 7.62477471,12.0389929 8.98760758,13.0402952 C14.2882905,16.933572 25.0864789,13.7699626 22.5539045,6.05834267 C21.3948902,2.52896287 12.9907542,0.975960829 9.15737868,1.29068259 C4.54790667,1.66956639 5.34265931,5.26638656 6.44383946,8.612647 Z M-4.01964176e-13,0.609722108 C5.95691354,-0.338189875 14.7738172,-0.0946551757 19.3319848,1.46115688 C21.8071915,2.30603496 25.1736965,4.39902836 27.3023649,4.35594145 C28.8494274,4.32409461 30.8330442,3.146698 32.5592059,2.31212332 C37.8538256,-0.246396027 46.8768799,-0.466513928 54.2656541,0.609722108 L54.2656541,1.29068259 C53.380419,2.49430601 52.1691675,3.27876875 51.2130391,4.6964217 C49.1958412,7.68768347 48.8007969,11.9902859 46.1255028,14.2317418 C43.410098,16.5073863 34.9406654,16.6136985 32.2201301,14.0617359 C31.0182066,12.9349196 29.3494127,7.20108241 27.3023649,7.08025173 C24.7632609,6.93038423 23.4839143,12.9222745 21.5366771,14.4026845 C19.1001819,16.2544849 11.0798965,16.5116013 8.13968487,14.5726904 C5.44200339,12.7934821 4.81748826,7.5617011 2.71307282,4.52594741 C1.80358477,3.21367005 0.85491877,2.59640325 -4.01964176e-13,1.29068259 L-4.01964176e-13,0.609722108 Z" id="Stroke-12" stroke="#E7923D"></path>
                        </g>
                    </g>
                </g>
            </g>
        </g>
    </g>
</svg>