<?xml version="1.0" encoding="UTF-8"?>
<svg width="38px" height="130px" viewBox="0 0 38 130" version="1.1" xmlns="http://www.w3.org/2000/svg" xmlns:xlink="http://www.w3.org/1999/xlink">
    <title>EF9251B6-33EC-4EF6-9EF2-437D99FB47F9</title>
    <g id="Page-1" stroke="none" stroke-width="1" fill="none" fill-rule="evenodd">
        <g id="Solutions-Mobile" transform="translate(-297.000000, -994.000000)" fill="#33CCCC">
            <g id="1" transform="translate(0.000000, 590.000000)">
                <g id="call" transform="translate(20.000000, 404.000000)">
                    <g id="image" transform="translate(277.000000, 0.000000)">
                        <g id="Group-5" transform="translate(19.000000, 65.000000) scale(-1, 1) translate(-19.000000, -65.000000) ">
                            <path d="M29.1208664,50.5471085 C28.3913555,51.9921126 28.0753703,52.2777258 27.174141,55.2203009 L26.2010703,59.8929092 C31.5827469,60.7830411 35.2384788,62.3705597 37.7026957,66.7178377 C37.4351888,72.0954258 34.5393398,78.3024018 29.939741,80.2736584 C26.2933543,80.7379989 21.3345488,78.4122081 18.1116172,74.4328981 C15.2642465,86.1144188 13.8040564,102.395538 8.25533404,113.346964 C15.2642465,109.55047 21.9326426,113.125599 21.9326426,114.416991 C22.8578191,119.91782 22.4682404,125.515604 20.1798304,128.629898 C12.5868419,131.745359 4.75087781,129.312099 2.23117379,123.713146 C-4.8378985,110.572603 5.9675082,69.0541418 19.5513646,61.3116299 L23.5809052,53.7519337 C25.2840709,51.0447413 25.0130597,51.7981994 26.1596009,49.3392392 C26.797996,47.970165 26.6730038,48.1500604 27.1268308,46.6320468 C27.76581,44.4949126 26.3704524,42.930757 28.4777987,42.1194753 C26.7851464,41.1545817 26.0129978,38.1559353 28.4777987,37.4597167 C26.9720507,36.2880602 25.9014393,33.4412736 28.4777987,32.6264875 C26.944015,31.4694329 25.8366069,28.5911061 28.4135503,27.7856653 C26.2191767,26.8353736 26.4884357,23.958215 28.4135503,22.9524361 C26.3558505,22.0938443 26.3067881,19.1045431 28.4135503,18.2938456 C26.7214821,17.3283679 25.9499176,14.3303056 28.4135503,13.634087 C26.9078023,12.4618463 25.837775,9.61564382 28.4135503,8.80144182 C26.8797667,7.64380311 25.8366069,4.77482161 28.4135503,3.96938075 C27.7991024,2.89526492 25.7396502,1.56415563 27.205097,0 L27.8966431,0 C28.7213584,2.33688823 31.3304261,2.96301774 29.4491172,5.17725 C28.3773376,6.43943832 28.5099229,6.07497487 29.4491172,7.24779956 C30.4046656,8.44165098 30.3357446,8.96498311 29.4491172,10.0093111 C28.2009467,11.4800145 28.5788439,10.6044845 29.6225877,11.9087263 C30.4800114,12.9805059 30.1727874,13.9903733 29.4491172,14.8419562 C28.2026989,16.3103234 28.518684,15.3699609 29.6225877,16.7402033 C30.446135,17.7629205 30.1634422,18.8335318 29.4491172,19.6746013 C28.134362,21.2229869 28.6501011,20.3655633 29.6225877,21.5722644 L29.6214196,21.5635033 C30.4455509,22.5868045 30.1628581,23.6568318 29.4485331,24.4984853 C28.1337779,26.0468709 28.6495171,25.1888632 29.6214196,26.3961484 C30.4794273,27.4679279 30.2241861,28.1787485 29.5005159,29.0303313 C28.4287363,30.2931037 28.5741713,29.9006046 29.5127814,31.0734293 C30.4683298,32.2672807 30.399993,32.7906129 29.5127814,33.8355249 C28.264611,35.3056443 28.6419241,34.4301143 29.685668,35.733772 C30.5442597,36.8061356 30.2364517,37.8160031 29.5127814,38.6675859 C28.2657791,40.1359531 28.5823483,39.1961748 29.685668,40.5658331 C30.5097992,41.5885502 30.2276905,42.6585775 29.5127814,43.5002311 C28.1980263,45.0486167 29.5840387,43.8518449 29.685668,45.3984782 C29.8287666,47.57825 29.7002699,47.1489541 29.3720191,48.5361347 C29.240602,49.0898388 29.3726032,50.0488916 29.1208664,50.5471085 Z" id="Fill-1"></path>
                        </g>
                    </g>
                </g>
            </g>
        </g>
    </g>
</svg>