<?xml version="1.0" encoding="UTF-8"?>
<svg width="25px" height="40px" viewBox="0 0 25 40" version="1.1" xmlns="http://www.w3.org/2000/svg" xmlns:xlink="http://www.w3.org/1999/xlink">
    <title>7DFB4A6B-422D-4128-8F89-FE7A1319E56A</title>
    <defs>
        <polygon id="path-1" points="0.102143199 0.310903576 8.05520833 0.310903576 8.05520833 8.26389288 0.102143199 8.26389288"></polygon>
    </defs>
    <g id="Page-1" stroke="none" stroke-width="1" fill="none" fill-rule="evenodd">
        <g id="Landing-MobileView" transform="translate(-175.000000, -4350.000000)">
            <g id="footer" transform="translate(0.000000, 4060.000000)">
                <g id="nformacy.logo" transform="translate(175.000000, 290.000000)">
                    <path d="M15.2626357,39.2106282 L24.0718231,39.2106282 L24.0718231,24.75892 C24.0718231,20.7854207 23.1535201,17.6710768 21.3426964,15.5015765 C18.9980284,12.6844867 15.9587564,11.3157527 12.0504709,11.3157527 C8.64645594,11.3157527 5.85059866,12.496428 3.50365581,14.9260257 C1.14609674,17.3654813 0.000303320562,20.2910081 0.000303320562,23.8709491 L0.000303320562,39.2106282 L8.80873244,39.2106282 L8.80873244,23.6631745 C8.80873244,21.354905 10.0098819,19.9770714 12.0208972,19.9770714 C14.0508701,19.9770714 15.2626357,21.354905 15.2626357,23.6631745 L15.2626357,39.2106282 Z" id="Fill-16" fill="#33CCCC"></path>
                    <g id="Group-20" transform="translate(8.341315, 0.447625)">
                        <mask id="mask-2" fill="white">
                            <use xlink:href="#path-1"></use>
                        </mask>
                        <g id="Clip-19"></g>
                        <path d="M0.102143199,4.28736031 C0.102143199,2.09131944 1.8826349,0.310827746 4.07867577,0.310827746 C6.27471663,0.310827746 8.05520833,2.09131944 8.05520833,4.28736031 C8.05520833,6.48340118 6.27471663,8.26389288 4.07867577,8.26389288 C1.8826349,8.26389288 0.102143199,6.48340118 0.102143199,4.28736031" id="Fill-18" fill="#ED7D31" mask="url(#mask-2)"></path>
                    </g>
                </g>
            </g>
        </g>
    </g>
</svg>