<?xml version="1.0" encoding="UTF-8"?>
<svg width="18px" height="18px" viewBox="0 0 18 18" version="1.1" xmlns="http://www.w3.org/2000/svg" xmlns:xlink="http://www.w3.org/1999/xlink">
    <title>515CAF15-A38D-4059-B7D4-B5785156128F</title>
    <g id="Page-1" stroke="none" stroke-width="1" fill="none" fill-rule="evenodd">
        <g id="QR2" transform="translate(-480.000000, -1317.000000)" fill="#0B5774" fill-rule="nonzero" stroke="#125773" stroke-width="0.7">
            <g id="Card.2" transform="translate(100.000000, 1015.000000)">
                <g id="Project" transform="translate(370.000000, 292.000000)">
                    <g transform="translate(11.000000, 11.000000)" id="Shape">
                        <path d="M2.4144,16 L13.5857778,16 C14.9169778,16 16,14.9169778 16,13.5856 L16,5.51111111 C16,4.17973333 14.9169778,3.09671111 13.5856,3.09671111 L10.4839111,3.09671111 L10.4839111,2.48373333 C10.4839111,1.11431111 9.3696,0 8,0 C6.6304,0 5.51608889,1.11431111 5.51608889,2.48391111 L5.51608889,3.09688889 L2.4144,3.09688889 C1.08302222,3.09671111 0,4.17991111 0,5.51111111 L0,13.5856 C0,14.9169778 1.08302222,16 2.4144,16 Z M6.03217778,2.48391111 C6.03217778,1.39893333 6.91484444,0.516088889 8,0.516088889 C9.08515556,0.516088889 9.96782222,1.39875556 9.96782222,2.48391111 L9.96782222,3.09688889 L6.03217778,3.09688889 L6.03217778,2.48391111 Z M0.516088889,5.51111111 C0.516088889,4.46435556 1.36764444,3.6128 2.41422222,3.6128 L5.77422222,3.6128 L10.2257778,3.6128 L13.5856,3.6128 C14.6323556,3.6128 15.4837333,4.46435556 15.4837333,5.51111111 L15.4837333,13.5856 C15.4837333,14.6323556 14.6321778,15.4839111 13.5856,15.4839111 L2.4144,15.4839111 C1.36764444,15.4839111 0.516266667,14.6323556 0.516266667,13.5856 L0.516266667,5.51111111 L0.516088889,5.51111111 Z"></path>
                    </g>
                </g>
            </g>
        </g>
    </g>
</svg>