<?xml version="1.0" encoding="UTF-8"?>
<svg width="12px" height="16px" viewBox="0 0 12 16" version="1.1" xmlns="http://www.w3.org/2000/svg" xmlns:xlink="http://www.w3.org/1999/xlink">
    <title>0DE6A667-3BD5-44D0-AD0D-FC28347DBCDD</title>
    <g id="Page-1" stroke="none" stroke-width="1" fill="none" fill-rule="evenodd">
        <g id="QR2" transform="translate(-153.000000, -1735.000000)" fill="#125773" fill-rule="nonzero">
            <g id="Card.3" transform="translate(100.000000, 1432.000000)">
                <g id="Question" transform="translate(40.000000, 292.000000)">
                    <g transform="translate(13.000000, 11.000000)" id="Group">
                        <path d="M5.6,1.2 C8.02,1.2 10,3.18 10,5.6 C10,8.02 8.02,10 5.6,10 L5,10 L5,12.4 L6.2,12.4 L6.2,11.16 C9,10.86 11.2,8.48 11.2,5.6 C11.2,2.52 8.68,0 5.6,0 C2.52,0 0,2.52 0,5.6 L1.2,5.6 C1.2,3.18 3.18,1.2 5.6,1.2 Z" id="Path"></path>
                        <circle id="Oval" cx="5.6" cy="14.7" r="1.3"></circle>
                    </g>
                </g>
            </g>
        </g>
    </g>
</svg>