<?xml version="1.0" encoding="UTF-8"?>
<svg width="53px" height="50px" viewBox="0 0 53 50" version="1.1" xmlns="http://www.w3.org/2000/svg" xmlns:xlink="http://www.w3.org/1999/xlink">
    <title>Wallet</title>
    <g id="Page-1" stroke="none" stroke-width="1" fill="none" fill-rule="evenodd">
        <g id="Client-View-.1" transform="translate(-1199.000000, -470.000000)" fill="#FFFFFF" fill-rule="nonzero">
            <g id="Item.5" transform="translate(1080.000000, 447.000000)">
                <g id="Wallet" transform="translate(119.000000, 23.000000)">
                    <path d="M0.212765957,45.1231803 C0.56478102,47.1246014 2.11069392,48.7038793 4.10414334,49.0985442 C4.29837537,49.1363622 4.494694,49.162538 4.69204927,49.1769317 L4.98880179,49.1769317 L10.162374,49.1769317 C18.9753639,49.1769317 27.7883539,49.1153415 35.4983203,48.9865622 L41.0526316,48.8801792 L41.7133259,48.8801792 L42.0380739,48.8801792 L42.4580067,48.8801792 C44.1596771,48.7123855 45.6237817,47.6051158 46.2486002,46.0134378 C46.4347693,45.5325826 46.5352067,45.0228152 46.5453527,44.5072788 C46.5453527,44.2273236 46.5453527,44.087346 46.5453527,43.8857783 L46.5453527,43.3258679 L46.4613662,41.2038074 C46.4128406,40.0167973 46.3605823,38.9305711 46.3045913,37.9451288 L48.9193729,37.9451288 L49.1545353,37.9451288 C49.3109543,37.9317543 49.4662434,37.9074319 49.6192609,37.8723404 C50.5504343,37.6520567 51.3406639,37.0394756 51.7861142,36.1926092 C51.9209128,35.9120115 52.0169756,35.6144053 52.0716685,35.3079507 C52.1026511,35.1564932 52.1232293,35.0030925 52.1332587,34.8488242 L52.1332587,34.6192609 L52.1332587,33.4994401 L52.1332587,31.5229563 L52.0716685,27.6707727 L52.0716685,27.2004479 L52.0716685,27.0716685 L52.0716685,26.8645017 C52.0593643,26.7252923 52.038798,26.5869372 52.0100784,26.450168 C51.8902021,25.9098115 51.6316166,25.4100082 51.2597984,25 C50.8983899,24.5987653 50.4393192,24.2978618 49.9272116,24.1265398 C49.4952189,23.9894685 49.0410029,23.9362549 48.5890258,23.9697648 L46.3101904,24.0369541 C46.4333707,22.3572228 46.5397536,20.2743561 46.6293393,17.8779395 L46.6293393,17.4076148 C46.642061,17.1987751 46.642061,16.9893548 46.6293393,16.7805151 C46.5842998,16.3407467 46.4729213,15.9103348 46.2989922,15.5039194 C45.7148895,14.1718849 44.5321469,13.1970056 43.1131019,12.8779395 C42.66763,12.7842743 42.2133105,12.7392178 41.7581187,12.743561 L41.5957447,12.743561 C41.5957447,12.6035834 41.6461366,12.4524076 41.668533,12.3012318 C41.718925,11.9820829 41.7637178,11.6405375 41.8029115,11.2821948 L41.8589026,10.7222844 L41.8589026,10.4367301 C41.8656474,10.31551 41.8656474,10.1940085 41.8589026,10.0727884 C41.8528991,8.81962311 41.2807954,7.63631496 40.3023516,6.85330347 C39.7814449,6.43429079 39.1698003,6.14284888 38.5162374,6.00223964 C38.3482643,6.00223964 38.1802912,5.9406495 38.012318,5.92945129 C37.8443449,5.91825308 37.6371781,5.92945129 37.5531915,5.92945129 L36.9540873,5.92945129 C34.2168661,5.88030592 31.4808125,6.07895091 28.7793953,6.52295633 C26.9708847,4.58566629 24.9552072,2.50839866 22.9059351,0.453527436 C22.6171545,0.164611273 22.2254026,0.00228845991 21.8169093,0.00228845991 C21.408416,0.00228845991 21.0166641,0.164611273 20.7278835,0.453527436 C18.6114222,2.5699888 16.5341545,4.71444569 14.675252,6.70212766 C12.9955207,6.57894737 10.8846585,6.46696529 8.48824188,6.37178052 L6.55095185,6.29899216 L5.537514,6.26539754 L5.02239642,6.26539754 C4.79432953,6.25942561 4.56611905,6.2687785 4.33930571,6.29339306 C3.34248988,6.39604477 2.40751375,6.8251496 1.67973124,7.51399776 C0.923810735,8.25207663 0.4419393,9.22569392 0.313549832,10.2743561 C0.217185465,11.1687706 0.378424332,12.0720968 0.778275476,12.8779395 C0.559910414,17.1332587 0.419932811,22.8611422 0.307950728,29.3840985 C0.240761478,33.2362822 0.190369541,37.3684211 0.156774916,41.6349384 L0.156774916,43.2418813 L0.156774916,44.2329227 L0.156774916,44.518477 C0.161107918,44.7211157 0.179818613,44.9231912 0.212765957,45.1231803 Z M36.9540873,8.99216125 L37.8275476,8.99216125 C37.8779395,8.99216125 37.9283315,8.99216125 37.9843225,8.99216125 C38.184064,9.02860309 38.3744603,9.10476161 38.5442329,9.21612542 C38.902074,9.44729563 39.1521911,9.81238591 39.2385218,10.2295633 C39.2569277,10.299158 39.2681842,10.3704492 39.2721165,10.4423292 L39.2721165,10.7278835 L39.3281075,11.287794 C39.3673012,11.6461366 39.4120941,11.987682 39.462486,12.3068309 C39.462486,12.4412094 39.5072788,12.5755879 39.5296753,12.6987682 L39.5296753,12.6987682 C37.793953,12.6595745 35.9854423,12.6315789 34.1265398,12.6035834 C33.2642777,11.4837626 32.1220605,10.1791713 30.7670773,8.68421053 C32.822515,8.89622627 34.8877554,8.99902103 36.9540873,8.99216125 L36.9540873,8.99216125 Z M21.8365062,3.69540873 C25.2911534,7.11086226 28.7458007,10.3415454 31.3549832,12.5699888 C27.5083987,12.525196 23.5162374,12.5083987 19.4904815,12.5083987 C17.0996641,12.5083987 14.7144457,12.5083987 12.3628219,12.5083987 C14.9608063,10.3079507 18.387458,7.08846585 21.8365062,3.69540873 Z M3.5162374,9.3281075 C3.81347322,9.00549508 4.20567716,8.78586088 4.63605823,8.70100784 C4.75434926,8.67894409 4.87413722,8.66584228 4.9944009,8.66181411 L5.50951848,8.66181411 L6.52295633,8.62821948 L8.46024636,8.55543113 C10.1903695,8.48824188 11.7637178,8.40985442 13.1466965,8.32586786 C11.6797312,9.93840985 10.4255319,11.3885778 9.49048152,12.5643897 L9.09854423,12.5643897 L6.58454647,12.5923852 L5.34714446,12.5923852 C5.05778279,12.6179368 4.76639663,12.6085372 4.47928331,12.5643897 C4.02911615,12.4644862 3.63091174,12.2036623 3.35946249,11.8309071 C3.08940311,11.4578683 2.95684701,11.002825 2.98432251,10.5431131 C3.02245393,10.09045 3.20950712,9.6631812 3.5162374,9.3281075 Z M3.81858903,15.3303471 C4.32701171,15.447082 4.84804186,15.4997494 5.36954087,15.4871221 L6.60694289,15.4871221 L9.12094065,15.5151176 C12.4804031,15.5487122 15.9854423,15.5655095 19.4736842,15.5655095 C26.450168,15.5655095 33.4266517,15.5039194 39.5240761,15.37514 L41.7637178,15.324748 C42.0336536,15.2974664 42.3056521,15.2974664 42.5755879,15.324748 C42.7930754,15.3639224 43.0028942,15.4376425 43.1970885,15.5431131 C43.5861293,15.7493714 43.9026739,16.0698239 44.1041433,16.4613662 C44.2034146,16.6512834 44.2732667,16.855176 44.3113102,17.0660694 C44.3309114,17.1753109 44.3439991,17.2856213 44.3505039,17.3964166 L44.3505039,17.8667413 C44.4456887,20.2631579 44.5520717,22.3460246 44.675252,24.0537514 C41.6237402,24.1713326 39.0033595,24.3225084 37.0828667,24.5072788 C36.8924972,24.5072788 36.7469205,24.8992161 36.7581187,25.3303471 C36.7693169,25.7614782 36.9092945,26.0302352 37.0828667,26.0470325 C39.7704367,26.3045913 43.8017917,26.5005599 48.5274356,26.6069429 C48.924972,26.6069429 48.8633819,26.6069429 48.9529675,26.6573348 C49.0751258,26.7152286 49.1594923,26.8312325 49.1769317,26.9652856 L49.1769317,27.6091825 L49.1153415,31.4557671 L49.1153415,33.4322508 L49.1153415,34.5520717 C49.1153415,34.5520717 49.1153415,34.5520717 49.1153415,34.5856663 C49.1163414,34.6061842 49.1163414,34.6267386 49.1153415,34.6472564 C49.0883285,34.6873209 49.0517687,34.7200323 49.0089586,34.7424412 C48.9884993,34.7448519 48.9678277,34.7448519 48.9473684,34.7424412 L46.7245241,34.7424412 C44.0257559,34.7424412 41.3325868,34.7424412 38.7178052,34.7928331 L37.743561,34.7928331 L37.256439,34.7928331 C37.0884658,34.7928331 36.9316909,34.7928331 36.825308,34.7928331 C36.3467877,34.7905173 35.8719368,34.7091684 35.4199328,34.5520717 C34.5561771,34.2770733 33.7952551,33.7483301 33.2362822,33.0347144 C32.2730854,31.605778 32.2467153,29.7422933 33.1690929,28.2866741 C33.9170958,27.1000034 35.1423519,26.2954186 36.5285554,26.0806271 C36.6853303,26.0806271 36.8141097,25.6830907 36.8029115,25.2575588 L36.8029115,25.2575588 C36.8029115,24.8824188 36.6405375,24.5912654 36.4445689,24.5856663 C35.5713615,24.5615542 34.7035353,24.7297672 33.9025756,25.0783875 C32.9176658,25.5017122 32.0578498,26.1706722 31.4053751,27.0212766 C31.0347482,27.4962093 30.7314041,28.0199959 30.5039194,28.5778275 C30.267957,29.177201 30.1171805,29.8066931 30.055991,30.4479283 C29.9283922,31.8578666 30.2582205,33.2714161 30.9966405,34.4792833 C32.2387432,36.4768696 34.3858006,37.7336837 36.7357223,37.8387458 C36.9540873,37.8387458 37.1108623,37.8387458 37.2956327,37.8387458 L37.7827548,37.8387458 L38.7569989,37.8387458 C40.7110862,37.8387458 42.7211646,37.8779395 44.7368421,37.8835386 C44.6808511,38.8727137 44.6285928,39.9608063 44.5800672,41.1478163 L44.4960806,43.2698768 L44.4960806,43.8297872 C44.4960806,44.0033595 44.4960806,44.2441209 44.4960806,44.3449048 C44.458359,44.6239398 44.3691256,44.8935385 44.2329227,45.1399776 C44.0034867,45.6336989 43.6068232,46.0303624 43.1131019,46.2597984 C42.8602617,46.3721678 42.5887885,46.4367138 42.31243,46.450168 L41.7525196,46.450168 L41.0918253,46.450168 L35.537514,46.343785 C27.8275476,46.2150056 19.0145577,46.1534155 10.2015677,46.1534155 L4.91041433,46.1534155 C4.83582318,46.1577722 4.76104133,46.1577722 4.68645017,46.1534155 C3.92649763,46.007096 3.33220973,45.4128081 3.18589026,44.6528555 C3.1798354,44.5783236 3.1798354,44.5034233 3.18589026,44.4288914 L3.18589026,44.3113102 L3.18589026,43.3034714 L3.18589026,41.6965286 C3.15229563,37.4300112 3.1019037,33.2978723 3.03471445,29.4456887 C2.93952968,23.8465845 2.81075028,18.8857783 2.64837626,14.8880179 C3.01822408,15.0898776 3.41377725,15.2405646 3.82418813,15.3359462 L3.81858903,15.3303471 Z" id="Shape"></path>
                    <circle id="Oval" cx="37.0604703" cy="30.8566629" r="1.66853303"></circle>
                </g>
            </g>
        </g>
    </g>
</svg>