<?xml version="1.0" encoding="UTF-8"?>
<svg width="65px" height="142px" viewBox="0 0 65 142" version="1.1" xmlns="http://www.w3.org/2000/svg" xmlns:xlink="http://www.w3.org/1999/xlink">
    <title>Assign the Expert</title>
    <g id="Page-1" stroke="none" stroke-width="1" fill="none" fill-rule="evenodd">
        <g id="NFORMACY" transform="translate(-584.000000, -2126.000000)">
            <g id="Our-Solutions" transform="translate(0.000000, 1456.000000)">
                <g id="Group-9" transform="translate(90.000000, 276.000000)">
                    <g id="features-copy-8" transform="translate(0.000000, 355.000000)">
                        <g id="Group-2" transform="translate(495.773585, 40.000000)">
                            <g id="Assign-the-Expert" transform="translate(0.198113, 0.000000)">
                                <path d="M24.7978325,46.1708808 L37.1202296,46.1708808 C36.4430414,49.3451674 35.1773381,51.9298834 34.0398942,54.6428587 L27.8781678,54.6428587 C26.7401961,51.9298834 25.4744928,49.3451674 24.7978325,46.1708808" id="Fill-1" fill="#FFFFFF"></path>
                                <path d="M24.7978325,46.1708808 L37.1202296,46.1708808 C36.4430414,49.3451674 35.1773381,51.9298834 34.0398942,54.6428587 L27.8781678,54.6428587 C26.7401961,51.9298834 25.4744928,49.3451674 24.7978325,46.1708808 Z" id="Stroke-3" stroke="#FFFFFF"></path>
                                <path d="M34.0397886,59.4756494 C35.6971315,82.1258262 37.3571135,104.77178 39.4303755,126.789633 C37.5571558,132.331703 33.6154244,134.729572 31.3442313,139.667293 C28.1018563,135.814763 24.7565572,132.120577 22.4869476,126.789633 C24.5612653,104.77178 26.2207194,82.1258262 27.8785901,59.4756494 L34.0397886,59.4756494 Z" id="Fill-5" fill="#FFFFFF"></path>
                                <path d="M34.0397886,59.4756494 C35.6971315,82.1258262 37.3571135,104.77178 39.4303755,126.789633 C37.5571558,132.331703 33.6154244,134.729572 31.3442313,139.667293 C28.1018563,135.814763 24.7565572,132.120577 22.4869476,126.789633 C24.5612653,104.77178 26.2207194,82.1258262 27.8785901,59.4756494 L34.0397886,59.4756494 Z" id="Stroke-7" stroke="#FFFFFF"></path>
                                <g id="Group-19" transform="translate(0.253165, 0.359553)">
                                    <path d="M51.6235916,14.3127342 C52.8650154,13.2264884 53.5870679,11.1511151 54.1185788,9.51488488 C55.6481902,4.80043055 55.6534684,1.16061 49.8960492,1.26247853 C44.4083441,1.36012453 37.7615547,3.41649646 35.6946264,7.0204255 C33.0059307,16.6261526 46.5813634,18.7226386 51.6235916,14.3127342 L51.6235916,14.3127342 Z M7.29230867,9.70648216 C7.9314941,11.6409285 8.6287393,13.5679855 10.1710183,14.6964566 C16.1696494,19.0841927 28.3896502,15.5187942 25.5236082,6.82777259 C24.2119849,2.85014967 14.7012647,1.09991114 10.3631433,1.45460363 C5.1467358,1.88160694 6.04613462,5.93523538 7.29230867,9.70648216 L7.29230867,9.70648216 Z M-7.95807864e-13,0.687158869 C6.74126856,-0.381141128 16.7191061,-0.106676702 21.8774538,1.64672873 C24.6785744,2.59890916 28.4883518,4.95771978 30.8973049,4.90916068 C32.6480713,4.87326918 34.8928736,3.54633925 36.8463214,2.60577077 C42.8380909,-0.277689152 53.0492232,-0.525762768 61.4108875,0.687158869 L61.4108875,1.45460363 C60.4090924,2.81109127 59.0383537,3.69518342 57.9563305,5.29288306 C55.6735254,8.66404516 55.2264651,13.5130926 52.1989113,16.039221 C49.1259654,18.6038799 39.5413509,18.7236942 36.462599,15.8476237 C35.1024166,14.5776979 33.2138903,8.11564412 30.8973049,7.97946754 C28.0238735,7.81056636 26.5760737,14.5634469 24.372441,16.2318739 C21.6151292,18.3188592 12.5388017,18.6086303 9.21144839,16.4234712 C6.15855947,14.4182974 5.45181357,8.5220626 3.07030686,5.10075797 C2.04106526,3.62181696 0.967487102,2.92615521 -7.95807864e-13,1.45460363 L-7.95807864e-13,0.687158869 Z" id="Fill-11" fill="#FFFFFF"></path>
                                    <path d="M51.6235916,14.3127342 C52.8650154,13.2264884 53.5870679,11.1511151 54.1185788,9.51488488 C55.6481902,4.80043055 55.6534684,1.16061 49.8960492,1.26247853 C44.4083441,1.36012453 37.7615547,3.41649646 35.6946264,7.0204255 C33.0059307,16.6261526 46.5813634,18.7226386 51.6235916,14.3127342 Z M7.29230867,9.70648216 C7.9314941,11.6409285 8.6287393,13.5679855 10.1710183,14.6964566 C16.1696494,19.0841927 28.3896502,15.5187942 25.5236082,6.82777259 C24.2119849,2.85014967 14.7012647,1.09991114 10.3631433,1.45460363 C5.1467358,1.88160694 6.04613462,5.93523538 7.29230867,9.70648216 Z M-7.95807864e-13,0.687158869 C6.74126856,-0.381141128 16.7191061,-0.106676702 21.8774538,1.64672873 C24.6785744,2.59890916 28.4883518,4.95771978 30.8973049,4.90916068 C32.6480713,4.87326918 34.8928736,3.54633925 36.8463214,2.60577077 C42.8380909,-0.277689152 53.0492232,-0.525762768 61.4108875,0.687158869 L61.4108875,1.45460363 C60.4090924,2.81109127 59.0383537,3.69518342 57.9563305,5.29288306 C55.6735254,8.66404516 55.2264651,13.5130926 52.1989113,16.039221 C49.1259654,18.6038799 39.5413509,18.7236942 36.462599,15.8476237 C35.1024166,14.5776979 33.2138903,8.11564412 30.8973049,7.97946754 C28.0238735,7.81056636 26.5760737,14.5634469 24.372441,16.2318739 C21.6151292,18.3188592 12.5388017,18.6086303 9.21144839,16.4234712 C6.15855947,14.4182974 5.45181357,8.5220626 3.07030686,5.10075797 C2.04106526,3.62181696 0.967487102,2.92615521 -7.95807864e-13,1.45460363 L-7.95807864e-13,0.687158869 Z" id="Stroke-12" stroke="#FFFFFF"></path>
                                </g>
                            </g>
                        </g>
                    </g>
                </g>
            </g>
        </g>
    </g>
</svg>