<?xml version="1.0" encoding="UTF-8"?>
<svg width="49px" height="142px" viewBox="0 0 49 142" version="1.1" xmlns="http://www.w3.org/2000/svg" xmlns:xlink="http://www.w3.org/1999/xlink">
    <title>Project</title>
    <g id="Page-1" stroke="none" stroke-width="1" fill="none" fill-rule="evenodd">
        <g id="NFORMACY" transform="translate(-1231.000000, -2126.000000)" fill="#FFFFFF">
            <g id="Our-Solutions" transform="translate(0.000000, 1456.000000)">
                <g id="Group-9" transform="translate(90.000000, 276.000000)">
                    <g id="features-copy-7" transform="translate(640.000000, 355.000000)">
                        <g id="Project" transform="translate(525.081633, 110.500000) rotate(90.000000) translate(-525.081633, -110.500000) translate(455.081633, 86.500000)">
                            <path d="M30.1153673,42.6949882 C27.8529207,42.8409037 25.9883918,44.8297099 22.9834569,44.2734888 C26.7103283,46.598554 34.0092768,45.7448395 36.4549405,42.8918652 C34.1951175,43.94115 32.0183762,42.5721579 30.1153673,42.6949882 M12.6821971,41.3133646 C13.6214579,41.6313297 14.880802,42.6701608 15.8519837,42.3003631 C15.0714527,41.4884632 14.1960337,40.3638251 12.6821971,41.3133646 M16.4462367,40.5245499 C17.8538161,44.0922923 25.1549509,43.7921855 28.5306927,42.1030505 C27.6146073,41.1718048 26.6351175,38.59803 26.1532434,36.5774273 C23.3140347,38.2879051 20.1499327,39.67432 16.4462367,40.5245499 M30.3134517,41.3133646 C31.7839983,40.2780181 33.1679649,39.1581712 33.2851539,36.7747398 C31.2102971,36.8683871 29.6999587,36.3992797 27.7383554,36.3801147 C27.9705469,38.6485559 28.4301201,40.690066 30.3134517,41.3133646 M10.7013538,39.7344285 C11.9716297,39.8816506 12.7149925,39.5044482 13.8711404,39.5375514 C13.7941805,38.3427868 13.8842585,37.3139738 14.267309,36.5774273 C11.1062679,35.7559449 9.1332955,37.4254793 10.7013538,39.7344285 M15.455815,39.1429263 C18.8324314,38.5597 21.6082356,37.3775668 24.1724001,35.9854895 C22.9191779,35.7589939 22.395763,35.8191023 21.5973038,36.3801147 C21.6445292,36.0983018 21.9235089,36.0469047 21.9934725,35.788177 C18.9915985,36.00117 14.8812393,36.0081391 15.455815,39.1429263 M38.6338681,40.9187395 C39.8162523,39.6216162 39.7633424,36.0111881 37.8415308,35.5904288 C37.1519525,36.4820377 35.5957005,36.5107853 34.2760128,36.7747398 C34.3625927,39.3607106 32.9458306,40.448761 31.7004793,41.7079898 C34.2121711,42.2807625 36.7396047,41.5755769 38.6338681,40.9187395 M34.2760128,35.1958037 C35.0626656,34.9274934 36.1882044,34.9958777 36.6530248,34.406989 C35.7898494,34.0127994 34.6411352,32.8637694 33.6813226,33.2226779 C34.053004,33.7074658 34.0416349,34.5746829 34.2760128,35.1958037 M29.32303,34.9984911 C30.7249249,34.9183465 31.6121503,35.349995 33.0870696,35.1958037 C32.948017,34.1508746 32.8662471,33.0484505 32.0966479,32.6307402 C31.3668405,33.6142541 29.9159712,33.8790798 29.32303,34.9984911 M27.5398338,34.2096764 C28.5341909,33.3577042 29.793535,32.7701222 30.7096203,31.8419255 C29.6111924,31.6864275 28.7606979,31.283091 27.7383554,31.0522396 C26.8205209,31.50828 26.80784,33.3812249 27.5398338,34.2096764 M25.5589905,30.4603019 C25.0045292,30.0913753 24.1973247,29.9750785 23.5781471,29.670616 C22.9165542,31.7748479 21.477054,33.1033322 20.0126292,34.406989 C23.6433007,34.7332298 26.3823741,34.0376268 25.5589905,30.4603019 M24.1724001,34.406989 C24.7920149,34.4466257 25.6263304,34.273705 25.9551591,34.603866 C25.9385428,33.9631446 25.8532747,33.3903719 25.5589905,33.0253654 C25.2988135,33.6869941 24.5331497,33.8451055 24.1724001,34.406989 M12.8802814,33.8146157 C12.4036547,34.4096024 11.3765022,35.1017209 11.6917755,35.788177 C17.0321815,36.0429846 21.4792403,33.6978833 22.9834569,29.4733035 C21.3226969,28.9571547 19.9535974,28.1504816 18.2289957,27.6974903 C16.6263928,29.6449175 14.4474652,31.8589127 12.8802814,33.8146157 M9.31476349,39.5375514 C8.82020857,38.3562894 9.35892799,36.9350291 9.90857921,36.1828021 C5.45671039,34.8286194 3.74916224,30.7412437 2.18241575,26.5136149 C0.174024291,33.2849643 3.88296755,38.331462 9.31476349,39.5375514 M33.8794069,31.4468648 C35.6280586,31.810129 36.5939931,32.9526254 38.2376995,33.4199905 C39.3899118,31.7983686 39.8704741,28.1047469 39.0304741,25.7243646 C37.6666219,27.9836589 35.5594069,29.5024866 33.8794069,31.4468648 M19.615586,26.7109274 C20.9155964,26.8006546 22.0813642,28.0664169 23.1819785,27.6974903 C22.832598,25.3811365 20.5071841,23.9664097 19.615586,26.7109274 M15.0592091,24.3431765 C16.2485896,24.9346787 17.4366583,25.527052 18.6256016,26.1189897 C19.1009165,25.3428065 19.9330456,24.9216116 20.4083606,24.145864 C19.2137328,23.2289921 15.5708176,22.0089644 15.0592091,24.3431765 M7.33304563,23.9481158 C8.06503939,25.1568187 10.3078088,23.9333065 11.0975225,23.3561781 C10.4827177,23.0477955 10.0581263,22.5499406 9.51284782,22.1723027 C8.93346208,22.911027 7.87526323,23.1719326 7.33304563,23.9481158 M21.7953882,24.145864 C22.5649873,25.4177243 23.6454871,26.3803309 23.7762315,28.289428 C24.4059035,28.3199178 24.6477151,28.7371925 25.3609061,28.6840532 C24.9997192,26.4129985 25.402447,23.3810055 24.9647375,21.1857398 C24.0521503,22.3151692 22.9790842,23.285616 21.7953882,24.145864 M44.1811039,32.2365506 C44.658168,27.8664909 43.6314527,23.5007869 41.8036547,20.7906791 C39.7213642,24.3462255 42.8347427,29.0560288 44.1811039,32.2365506 M37.0491935,19.6072392 C30.3152008,17.8902278 27.072827,23.9507292 30.9077047,27.6974903 C33.2217494,25.3850566 36.9578036,23.479444 37.0491935,19.6072392 M31.3043106,28.289428 C31.8062991,28.9737063 32.0323689,29.9328283 32.6909009,30.4603019 C34.9769603,28.3961423 37.1292143,26.1982632 38.8323897,23.5534907 C38.7033944,22.3665663 38.2053413,21.5472617 37.4457994,20.9884272 C35.9013538,23.9228529 33.1666531,25.6716608 31.3043106,28.289428 M2.97519035,24.9351143 C2.54841263,29.5756621 6.54595558,34.3386047 10.3047479,35.5904288 C12.1972622,32.2796719 15.1484126,30.022991 17.4370956,27.1055526 C16.0400108,26.7213811 15.1326708,25.8485016 13.8711404,25.3293039 C12.2147531,26.968784 10.499334,28.5485913 9.11667916,30.4603019 C9.19232726,28.9493145 8.01081763,30.9646903 7.72965157,30.2629893 C8.04929759,29.5996184 8.58583064,29.2790399 7.72965157,28.8818013 C9.52115599,27.5750955 11.3235922,26.2788434 12.2860285,24.145864 C10.5675485,23.6388621 9.5084751,25.2622263 7.33304563,24.9351143 C6.40559118,23.6750143 7.19617942,21.612597 7.72965157,20.5933665 C7.38945375,19.8799051 6.87041159,19.3445913 6.34306125,18.8175533 C5.45714766,20.9322389 3.20563283,22.4227546 2.97519035,24.9351143 M39.624727,20.0014288 C40.0869238,19.9356579 40.4778452,19.799325 40.6151487,19.4094911 C40.1017911,19.1973692 39.8787822,18.6960297 39.2285584,18.6202408 C39.2617911,19.1790753 39.5914944,19.4425943 39.624727,20.0014288 M33.2851539,19.2121785 C34.3971373,19.4203803 35.6923377,19.4460788 37.0491935,19.4094911 C37.193056,18.8062286 36.7072466,18.8293137 36.8511091,18.2256156 C35.3718171,18.2652524 34.1024158,18.5135265 33.2851539,19.2121785 M28.9268614,29.8679286 C29.0864657,29.1723256 30.1359191,29.3622335 30.1153673,28.4867406 C26.9805626,25.5945651 27.9744824,20.5267245 31.3043106,18.6202408 C30.0646438,18.7173726 29.6728478,17.1606504 28.9268614,17.2390528 C28.5027073,17.2834807 26.6351175,19.6908684 26.5498494,20.0014288 C25.8318483,22.6074357 27.0225407,26.9975316 26.7479337,29.2764265 C27.5761274,29.371816 28.2158567,29.6553711 28.9268614,29.8679286 M29.32303,30.0656768 C30.053712,29.9406686 30.8364293,30.7791381 31.3043106,30.2629893 C30.728423,29.9811765 30.8569811,28.9976626 30.1153673,28.8818013 C29.9924938,29.4166796 29.287611,29.3726871 29.32303,30.0656768 M26.946018,18.028303 C27.1974496,17.3583985 28.0448832,17.2808673 28.134524,16.4498025 C27.500042,16.358333 27.435763,15.6980111 26.7479337,15.6601166 C26.8743054,16.389694 26.4912549,17.6262732 26.946018,18.028303 M23.5781471,13.0946176 C20.9929936,15.9793884 18.746726,19.2017248 16.644321,22.5669278 C18.6929415,22.3683085 19.7179077,23.1889198 21.0026136,23.7508033 C22.400573,22.4462753 23.7294433,21.0729275 25.1632591,19.8045518 C25.3377307,18.0709888 25.3845188,16.2098042 25.5589905,14.4762411 C25.1068509,13.8085145 24.464498,13.3302602 23.5781471,13.0946176 M21.3987822,13.8843034 C21.7193028,13.4138893 22.1102242,13.0144729 22.3892039,12.5026798 C22.1552632,12.2757486 21.689131,12.2792331 21.2006979,12.3053673 C21.3218223,12.7775236 20.9523273,13.7370812 21.3987822,13.8843034 M10.7013538,21.1857398 C11.4407812,21.8961522 12.1098077,22.6766911 13.2764501,22.961553 C15.6670175,20.0798311 20.2697453,16.9463507 19.615586,12.3053673 C14.9324001,13.560676 13.8204168,18.3728378 10.7013538,21.1857398 M24.1724001,12.897305 C24.9113902,13.0166508 24.9787302,13.8041588 25.7570748,13.8843034 C25.4850914,12.6211545 26.4628322,11.5688208 25.9551591,10.7268667 C25.5073923,11.5962616 24.4570644,11.8650074 24.1724001,12.897305 M38.8323897,17.0417402 C39.3282565,17.6654744 40.369839,17.7464902 41.0113174,18.2256156 C41.7039566,14.7824459 40.5683606,11.6041018 38.8323897,9.93761638 C39.1065594,12.4634787 38.2691831,14.8804488 38.8323897,17.0417402 M17.832827,12.5026798 C18.3693601,12.1158949 19.1472674,11.970415 20.0126292,11.9111777 C19.7948676,11.3379694 19.8329103,10.5103891 19.615586,9.93761638 C18.8459868,10.4890462 17.8092143,11.8170949 17.832827,12.5026798 M2.57858442,21.9749901 C3.42295714,20.1848032 4.5913486,18.7173726 5.55028665,17.0417402 C4.22141627,15.4937294 4.59266042,11.5784033 4.95603366,9.93761638 C2.61575256,12.328888 1.60128093,17.5152032 2.57858442,21.9749901 M42.7940763,17.6332423 C46.437866,14.3194365 45.9966583,8.74938525 40.0208957,8.75373838 C41.6681003,10.9938702 42.7499118,13.7971897 42.7940763,17.6332423 M29.32303,17.2390528 C30.0983137,17.6506651 30.8040711,18.1315328 31.5023949,18.6202408 C33.1539722,17.9634033 34.6319525,17.1332096 36.8511091,17.0417402 C36.6893184,14.2850265 38.1043314,10.4934019 36.6530248,8.35868022 C34.4277463,11.5357176 31.7153465,14.227967 29.32303,17.2390528 M27.9364397,9.54299123 C27.4969811,11.2761187 27.0570852,13.008375 26.946018,15.0681789 C28.3605938,17.0095081 28.9395423,15.9593522 30.3134517,14.4762411 C32.0625407,12.5880513 34.9603439,9.80389682 35.0679129,8.16136764 C32.4906302,8.42227323 29.7699223,8.54031232 27.9364397,9.54299123 M20.6064449,8.55642836 C20.8333892,9.58001456 21.3218223,10.3435663 21.2006979,11.7138651 C23.9458931,12.8389388 24.9131393,9.38923552 26.7479337,8.35868022 C24.8729103,8.24717466 21.8404272,7.50845032 20.6064449,8.55642836 M16.8424053,7.37211735 C13.2593965,10.3810252 9.99341003,13.7052847 7.33304563,17.6332423 C7.93648134,18.0853625 7.96971404,19.104593 8.91815755,19.2121785 C11.589891,14.8355852 15.4151487,11.6071508 18.6256016,7.7667425 C18.1336703,7.53327773 17.4593965,7.4810095 16.8424053,7.37211735 M7.9277359,8.16136764 C6.27397223,9.59090378 5.43003678,12.846779 6.34306125,15.6601166 C9.15603366,13.265796 11.0332434,9.93935865 14.0692247,7.7667425 C14.0976474,7.5337133 14.4216661,7.31941355 14.0692247,7.17480477 C12.0258515,7.50757918 9.51590873,7.37516633 7.9277359,8.16136764 M31.1062263,7.50179172 C32.2444459,7.05691692 33.9506823,7.27577487 35.0679129,6.80686659 C33.9126396,6.28580058 31.3668405,7.01294079 31.1062263,7.50179172 M9.71093215,6.78017963 C11.5072466,6.33328625 13.9638421,6.54410145 15.8519837,6.1882419 C14.4898806,4.58578504 10.8286,5.72610362 9.71093215,6.78017963 M35.4640816,5.79361676 C33.7438525,3.60967582 29.4909426,3.51820641 28.9268614,6.78017963 C30.7585948,6.19738884 33.477991,5.57975258 35.4640816,5.79361676 M18.6256016,5.99092933 C19.085612,6.12464889 19.1560128,6.64646007 19.615586,6.78017963 C20.0309946,5.67862665 21.4438213,4.52654771 21.3987822,3.62274287 C20.5955131,4.53264567 19.2666427,4.91943058 18.6256016,5.99092933 M22.5877255,7.17480477 C24.1680274,7.17872489 25.4229988,7.50801475 27.1441024,7.37211735 C27.5993028,3.49991253 32.6664137,1.0703109 35.6626032,4.2146806 C31.9536599,-0.00946364708 25.1698181,4.73779848 22.5877255,7.17480477 M107.575086,18.028303 C108.655149,8.03984401 123.794826,3.9816514 129.762718,12.6999924 C131.114326,14.6739893 132.35924,17.5478709 132.338251,21.3830524 C132.287528,30.4764179 124.989016,37.2638834 115.103165,36.5774273 C105.865789,35.9358347 99.6534621,27.7994134 100.64126,17.2390528 C101.587955,7.11513188 110.360073,-0.234652611 122.235076,0.663054265 C132.591432,1.44533546 138.488486,9.79649215 139.470162,18.2256156 C140.325029,25.5658176 137.502437,31.6511465 133.922926,35.788177 C129.777148,40.5798671 123.531588,44.7621968 113.914659,44.0761762 C102.961427,43.2947662 96.8894642,35.4750032 93.3112653,26.7109274 C92.1385011,23.837917 91.0982304,20.9165584 88.1606354,19.4094911 C84.4993548,17.5317548 76.0446958,17.3170195 70.9251123,17.6332423 C68.5892039,17.7778511 65.039865,18.2025305 63.7936391,19.4094911 C62.9894954,20.1887233 63.152598,22.6631885 61.6142742,23.1588655 C58.1825615,24.2652098 55.5357526,19.8193611 53.0957734,19.4094911 C52.6064657,20.6364878 54.7119316,22.3665663 53.491942,23.7508033 C50.5792716,24.1406372 49.030016,21.4954291 46.5585532,20.7906791 C49.7283398,27.72406 47.5996984,35.1452777 43.7849353,38.9456137 C42.7123064,40.0144991 41.4612705,40.5206298 40.2185428,41.5106772 C36.0482773,44.8353723 34.1199066,47.7201431 26.7479337,47.0363004 C23.2899847,46.7148508 21.2890269,45.008293 18.4275173,44.0761762 C15.3880378,43.0865644 12.7486625,43.3095755 10.7013538,41.116052 C4.68579941,40.4548589 0.190203364,36.8435597 0.0034881118,30.8549271 C-0.0835290668,28.0751283 1.48365469,26.0845798 1.78668436,23.3561781 C1.97427416,21.6635585 1.39488842,20.2784504 1.3905157,18.8175533 C1.37171299,13.1316409 3.50603887,10.4777214 6.54114558,7.56942992 C8.90154121,5.3075222 12.4570019,2.72111588 17.0404897,4.80705389 C19.6116505,3.42107461 21.2037588,1.06072839 24.5685688,0.465306122 C25.0674964,1.92315421 23.6175016,3.04082323 23.1819785,4.2146806 C23.1443731,4.37453427 22.9830196,4.4115576 22.9834569,4.60974131 C25.6521294,2.56344005 32.0931497,-1.08618922 36.0587718,1.84692971 C37.6036547,2.98942614 37.9884543,4.84756177 38.6338681,7.17480477 C42.2041961,7.88783057 46.1453309,8.44361609 46.5585532,11.9111777 C46.9354819,15.0795037 44.3857474,17.5409018 42.398345,19.4094911 C42.7499118,20.4086854 43.8365334,21.6121615 44.3791883,23.1588655 C45.2738473,25.707813 46.4387406,32.9526254 44.3791883,33.4199905 C42.1932643,33.9161032 41.9601982,29.6584201 41.2094017,28.0921155 C40.7576995,29.5499635 41.1136391,30.3932243 40.813233,31.6441774 C40.5797297,32.6163665 39.2338057,33.8782087 39.2285584,34.406989 C39.2185011,35.4140236 42.1456016,37.0787667 40.813233,39.3402389 C44.2550029,37.2817417 46.9813955,33.1900103 46.9547218,28.0921155 C46.9385428,25.0457487 45.0009894,22.5325179 45.7657786,19.8045518 C48.7584699,19.2274234 50.0492976,21.9575674 52.5015204,22.5669278 C52.4429259,21.091657 51.1778973,20.0593594 51.9072674,18.4229282 C53.8623116,17.5718272 54.8509842,19.0967528 56.2655599,20.0014288 C57.3001461,20.6630575 59.6168145,22.2973109 60.8219368,21.9749901 C62.1766063,21.612597 62.1639254,19.2679313 62.8032174,18.6202408 C64.2510259,17.1523746 68.3132851,16.5987669 70.7270279,16.4498025 C77.2931081,16.043417 86.9817494,16.5329961 90.5376474,19.6072392 C92.1747947,21.021966 93.7048103,24.4311614 94.89594,27.3033007 C98.5209269,36.0373222 105.499355,43.7708426 117.480177,43.0891778 C123.8919,42.7246069 128.302666,40.0415043 131.743561,36.7747398 C135.71443,33.0053292 139.107663,27.0624313 138.479303,18.8175533 C137.78404,9.68367989 130.87164,1.58558855 120.254233,1.45230456 C109.767569,1.32032728 101.460708,8.73544705 101.434035,19.4094911 C101.411297,28.1726956 106.57417,35.0150427 114.905081,35.788177 C128.367819,37.0373877 136.454295,22.1039184 128.772296,12.3053673 C122.266559,4.00778551 107.175419,9.6348962 107.971255,20.5933665" id="Fill-86" stroke="#FFFFFF" stroke-width="0.5"></path>
                            <path d="M22.811925,11.9451956 C21.0589006,12.5719788 18.3823571,12.2797123 16.5960999,12.8738278 C17.005824,12.2204749 20.9989943,11.2487214 22.811925,11.9451956" id="Fill-92"></path>
                        </g>
                    </g>
                </g>
            </g>
        </g>
    </g>
</svg>