<?xml version="1.0" encoding="UTF-8"?>
<svg width="55px" height="180px" viewBox="0 0 55 180" version="1.1" xmlns="http://www.w3.org/2000/svg" xmlns:xlink="http://www.w3.org/1999/xlink">
    <title>Call</title>
    <g id="Page-1" stroke="none" stroke-width="1" fill="none" fill-rule="evenodd">
        <g id="NFORMACY" transform="translate(-1221.000000, -1732.000000)" fill="#FFFFFF">
            <g id="Our-Solutions" transform="translate(0.000000, 1456.000000)">
                <g id="Group-9" transform="translate(90.000000, 276.000000)">
                    <g id="features-copy-6" transform="translate(640.000000, 0.000000)">
                        <g id="Group-2" transform="translate(491.000000, 0.000000)">
                            <g id="Call" transform="translate(27.230769, 90.000000) scale(-1, 1) translate(-27.230769, -90.000000) ">
                                <path d="M41.3397285,69.9883041 C40.3128016,71.989079 39.8679917,72.3845434 38.5993381,76.4588781 L37.229554,82.9286435 C44.8052988,84.1611338 49.9514445,86.3592365 53.4203035,92.3785445 C53.0437362,99.8244357 48.9672719,108.41871 42.492452,111.148142 C37.3594615,111.791075 30.3789891,108.57075 25.8420931,103.060936 C21.8338713,119.235349 19.7783729,141.778438 11.9674791,156.94195 C21.8338713,151.685266 31.2209212,156.635445 31.2209212,158.423527 C32.523285,166.040058 31.974878,173.790837 28.753501,178.102935 C18.0649095,182.416651 7.03428303,179.047521 3.48731505,171.295125 C-6.46376363,153.100527 8.74692427,95.6134272 27.8688145,84.893026 L33.5411677,74.4257544 C35.938701,70.6773341 35.5572005,71.7205837 37.1711779,68.3158697 C38.0698417,66.4202285 37.8938911,66.6693144 38.53274,64.5674494 C39.4322261,61.6083405 37.4679918,59.4425865 40.4344871,58.3192735 C38.0517534,56.983267 36.9648058,52.8312951 40.4344871,51.8673001 C38.3148571,50.2450064 36.8077657,46.3033019 40.4344871,45.1751365 C38.2753916,43.5730609 36.7165016,39.5876854 40.3440451,38.4724596 C37.2550422,37.1566711 37.6340761,33.1729131 40.3440451,31.7802961 C37.4474368,30.5914767 37.3783721,26.4524443 40.3440451,25.32994 C37.9621336,23.9931248 36.8760083,19.8419616 40.3440451,18.8779666 C38.2244152,17.2548642 36.718146,13.3139684 40.3440451,12.1866117 C38.1849496,10.5837274 36.7165016,6.61129146 40.3440451,5.49606566 C39.4790914,4.00882835 36.5800165,2.16575395 38.6429147,0 L39.6163987,0 C40.7773442,3.23569139 44.4501087,4.10263995 41.8018046,7.1685 C40.2930688,8.91614537 40.479708,8.41150367 41.8018046,10.0354148 C43.1469227,11.6884398 43.0499032,12.4130535 41.8018046,13.8590461 C40.0447646,15.8954047 40.5767275,14.6831325 42.0459978,16.4890057 C43.2529864,17.9730081 42.8205096,19.3712862 41.8018046,20.5504009 C40.0472312,22.5835247 40.492041,21.2814844 42.0459978,23.1787431 C43.2052989,24.594813 42.8073544,26.0771979 41.8018046,27.2417557 C39.9510338,29.3856742 40.6770359,28.1984723 42.0459978,29.8692892 L42.0443534,29.8571583 C43.2044767,31.274037 42.8065322,32.7556132 41.8009824,33.9209797 C39.9502116,36.0648982 40.6762137,34.8768875 42.0443534,36.5485132 C43.2521642,38.0325156 42.8928631,39.0167286 41.8741581,40.1958434 C40.3654223,41.9442975 40.57015,41.4008372 41.8914243,43.0247483 C43.2365424,44.6777733 43.1403451,45.402387 41.8914243,46.8491883 C40.1343843,48.8847382 40.6655251,47.6724659 42.1347953,49.4775305 C43.3434283,50.9623416 42.9101293,52.3606197 41.8914243,53.5397344 C40.1360287,55.5728582 40.5816607,54.2716266 42.1347953,56.1680766 C43.2949186,57.5841465 42.8977963,59.0657227 41.8914243,60.2310892 C40.0406536,62.3750077 41.9917326,60.717939 42.1347953,62.8594314 C42.3362341,65.8775769 42.1553503,65.2831672 41.6932743,67.2038788 C41.5082794,67.970546 41.6940965,69.2984653 41.3397285,69.9883041 Z" id="Fill-1"></path>
                            </g>
                        </g>
                    </g>
                </g>
            </g>
        </g>
    </g>
</svg>